<svg width="19" height="19" viewBox="0 0 19 19" fill="none" xmlns="http://www.w3.org/2000/svg">
<circle cx="9.5" cy="9.5" r="9.5" fill="#333333"/>
<path d="M14.3788 12.4611L12.1721 10.4547C12.0678 10.3599 11.9307 10.3094 11.7898 10.3137C11.649 10.3181 11.5153 10.377 11.417 10.4781L10.118 11.8141C9.80527 11.7543 9.17664 11.5584 8.52955 10.9129C7.88247 10.2653 7.6865 9.63503 7.62841 9.32452L8.96329 8.02492C9.06449 7.92673 9.12351 7.79302 9.12787 7.65209C9.13223 7.51115 9.08158 7.37405 8.98664 7.2698L6.98078 5.06363C6.8858 4.95905 6.7538 4.89562 6.61281 4.8868C6.47181 4.87798 6.33293 4.92448 6.22567 5.0164L5.04767 6.02666C4.95381 6.12085 4.89779 6.24622 4.89024 6.37898C4.8821 6.51469 4.72684 9.72949 7.21964 12.2234C9.39432 14.3975 12.1184 14.5566 12.8686 14.5566C12.9783 14.5566 13.0456 14.5533 13.0635 14.5522C13.1962 14.5448 13.3215 14.4885 13.4153 14.3943L14.425 13.2157C14.5173 13.1088 14.5641 12.97 14.5555 12.829C14.5469 12.6881 14.4835 12.556 14.3788 12.4611Z" fill="white"/>
</svg>
