<svg width="24" height="30" viewBox="0 0 24 30" fill="none" xmlns="http://www.w3.org/2000/svg">
<path d="M21.4188 3.90253L19.3487 1.83003C18.7696 1.24792 18.0807 0.786448 17.322 0.47233C16.5633 0.158212 15.7499 -0.00231999 14.9288 2.53318e-05H7C5.34301 0.00201015 3.75445 0.661128 2.58277 1.8328C1.4111 3.00447 0.751985 4.59303 0.75 6.25003V23.75C0.751985 25.407 1.4111 26.9956 2.58277 28.1673C3.75445 29.3389 5.34301 29.998 7 30H17C18.657 29.998 20.2456 29.3389 21.4172 28.1673C22.5889 26.9956 23.248 25.407 23.25 23.75V8.32128C23.252 7.50026 23.0912 6.68698 22.7769 5.92852C22.4625 5.17005 22.0009 4.48144 21.4188 3.90253ZM19.6513 5.67003C19.8286 5.84667 19.9873 6.04102 20.125 6.25003H17V3.12503C17.2087 3.26418 17.4033 3.42325 17.5812 3.60003L19.6513 5.67003ZM20.75 23.75C20.75 24.7446 20.3549 25.6984 19.6517 26.4017C18.9484 27.1049 17.9946 27.5 17 27.5H7C6.00544 27.5 5.05161 27.1049 4.34835 26.4017C3.64509 25.6984 3.25 24.7446 3.25 23.75V6.25003C3.25 5.25546 3.64509 4.30164 4.34835 3.59838C5.05161 2.89511 6.00544 2.50003 7 2.50003H14.5V6.25003C14.5 6.91307 14.7634 7.54895 15.2322 8.01779C15.7011 8.48663 16.337 8.75003 17 8.75003H20.75V23.75ZM17 11.25C17.3315 11.25 17.6495 11.3817 17.8839 11.6161C18.1183 11.8506 18.25 12.1685 18.25 12.5C18.25 12.8315 18.1183 13.1495 17.8839 13.3839C17.6495 13.6183 17.3315 13.75 17 13.75H7C6.66848 13.75 6.35054 13.6183 6.11612 13.3839C5.8817 13.1495 5.75 12.8315 5.75 12.5C5.75 12.1685 5.8817 11.8506 6.11612 11.6161C6.35054 11.3817 6.66848 11.25 7 11.25H17ZM18.25 17.5C18.25 17.8315 18.1183 18.1495 17.8839 18.3839C17.6495 18.6183 17.3315 18.75 17 18.75H7C6.66848 18.75 6.35054 18.6183 6.11612 18.3839C5.8817 18.1495 5.75 17.8315 5.75 17.5C5.75 17.1685 5.8817 16.8506 6.11612 16.6161C6.35054 16.3817 6.66848 16.25 7 16.25H17C17.3315 16.25 17.6495 16.3817 17.8839 16.6161C18.1183 16.8506 18.25 17.1685 18.25 17.5ZM18.01 21.7663C18.2043 22.0336 18.2849 22.367 18.234 22.6935C18.1832 23.0201 18.0051 23.3132 17.7388 23.5088C16.4723 24.4112 14.9723 24.929 13.4188 25C12.5111 24.9957 11.631 24.6876 10.9188 24.125C10.5087 23.8438 10.3525 23.75 10.0438 23.75C9.20803 23.8793 8.41952 24.2211 7.75375 24.7425C7.48968 24.9308 7.1628 25.009 6.84211 24.9608C6.52143 24.9125 6.23206 24.7415 6.03511 24.4839C5.83815 24.2262 5.74903 23.9021 5.78656 23.58C5.82409 23.2579 5.98534 22.963 6.23625 22.7575C7.33772 21.9024 8.66035 21.3795 10.0487 21.25C10.8814 21.2633 11.6864 21.5511 12.3387 22.0688C12.6361 22.3362 13.019 22.4891 13.4188 22.5C14.4408 22.4235 15.4237 22.0743 16.265 21.4888C16.5333 21.2943 16.8677 21.2143 17.1949 21.2664C17.5221 21.3184 17.8153 21.4982 18.01 21.7663Z" fill="#A63A42"/>
</svg>
