<svg width="163" height="56" viewBox="0 0 163 56" fill="none" xmlns="http://www.w3.org/2000/svg">
<circle cx="27.5" cy="27.5" r="27.5" fill="white"/>
<path fill-rule="evenodd" clip-rule="evenodd" d="M16.5613 51.089C19.8673 52.6097 23.5467 53.453 27.4197 53.453C34.7785 53.453 41.418 50.4116 46.1487 45.5177C41.9437 45.1859 36.881 45.6145 31.7077 47.8955C26.9356 50.0106 21.5963 50.923 16.5613 51.089Z" fill="#2A985D"/>
<path fill-rule="evenodd" clip-rule="evenodd" d="M8.23431 45.0339C9.94952 46.9002 11.9414 48.5176 14.1407 49.8309H14.1822C19.729 49.8862 25.829 49.0707 31.1821 46.7066C36.9917 44.1353 42.663 43.8312 47.2415 44.315C48.2927 43.0846 49.2333 41.7575 50.0356 40.3336C45.2911 39.4212 38.6101 39.1447 31.7078 42.1999C26.1749 44.6468 19.8811 45.4763 14.1684 45.421C12.0935 45.3933 10.0879 45.2551 8.23431 45.0339Z" fill="#2A985D"/>
<path fill-rule="evenodd" clip-rule="evenodd" d="M4.73474 40.223C5.39867 41.3981 6.15946 42.5179 6.98942 43.5686C9.1749 43.8865 11.6094 44.0939 14.1822 44.1215C17.7371 44.163 21.541 43.845 25.2204 42.9741L25.1374 42.9464C24.3905 42.6838 23.6712 42.3934 22.9934 42.0893C16.1326 39.0618 9.47923 39.3106 4.73474 40.223Z" fill="#2A985D"/>
<path fill-rule="evenodd" clip-rule="evenodd" d="M35.2199 2.77473L33.5324 10.1713C33.4138 10.691 32.8964 11.0162 32.3767 10.8976L29.4976 10.2408C28.9755 10.1217 28.6489 9.60196 28.768 9.07994L30.4541 1.68948C31.2588 1.79554 32.0657 1.94 32.8728 2.12414C33.6727 2.30663 34.4555 2.52416 35.2199 2.77473Z" fill="#DBDBDB"/>
<path fill-rule="evenodd" clip-rule="evenodd" d="M42.9624 14.6017C41.9786 13.3094 40.8303 12.1354 39.5397 11.1143L40.8666 5.25776C42.2662 6.08799 43.5816 7.04509 44.797 8.1135H44.7973C46.8952 9.96728 48.7014 12.1669 50.1186 14.6017H42.9624ZM22.9849 7.36498C18.51 8.38373 14.5218 10.953 11.7777 14.6017H4.92212C6.3393 12.1669 8.1455 9.96728 10.2573 8.1135H10.2577C14.0818 4.74119 18.9134 2.47783 24.243 1.8125L22.9849 7.36498ZM8.61625 21.0899C9.26422 18.6803 10.3533 16.4957 11.7776 14.6018H4.92448C3.7574 16.6077 2.8543 18.7934 2.25688 21.0899H8.61625ZM42.9624 14.6018C44.4362 16.5378 45.5407 18.7394 46.2014 21.0899H52.7886C52.1912 18.7934 51.288 16.6077 50.121 14.6018H42.9624ZM2.25466 21.0905H8.61609C8.5496 21.3378 8.48777 21.5874 8.43069 21.8393C7.07432 27.8258 8.70219 33.8005 12.3403 38.2391C9.71234 38.1365 7.06195 38.3495 4.43585 38.8528L4.04682 38.922C3.29656 37.3864 2.69914 35.7678 2.25453 34.0801H2.26169C1.73379 32.0052 1.44203 29.8196 1.44199 27.5786H1.43494C1.43494 25.3376 1.72671 23.1656 2.25466 21.0905ZM23.0535 40.5683C21.7398 40.0217 20.4014 39.5739 19.0454 39.2212L19.0454 28.1488C19.0454 27.4379 19.4105 26.7769 20.0122 26.3984L26.3729 22.3973C27.0399 21.9777 27.8873 21.9737 28.5582 22.3868L35.0772 26.4009C35.6885 26.7773 36.0609 27.4438 36.0609 28.1617V39.2587C34.7018 39.5996 33.3601 40.0349 32.0428 40.5683H23.0535ZM46.4365 30.4503C45.7585 33.443 44.4088 36.1115 42.5793 38.3366C45.2154 38.2372 47.8739 38.4542 50.5076 38.9635L50.9245 39.0465C51.7164 37.4694 52.3277 35.8094 52.7862 34.0801H52.7934C53.3214 32.005 53.6131 29.8193 53.6131 27.5781H53.6061C53.606 25.3372 53.3282 23.1654 52.7864 21.0905H46.2016C47.0338 24.0517 47.1618 27.2493 46.4365 30.4503ZM32.043 40.5683H23.0537C23.2621 40.6513 23.4566 40.7343 23.6512 40.8174C24.332 41.1217 25.0127 41.3845 25.6935 41.6335L27.5275 42.2699C28.778 41.8964 30.0145 41.4537 31.2094 40.928C31.4872 40.8035 31.7651 40.679 32.043 40.5683ZM25.7599 30.7652C25.2682 30.7652 24.8696 31.1638 24.8696 31.6555V35.1795C24.8696 35.6712 25.2682 36.0698 25.7598 36.0698H29.2839C29.7756 36.0698 30.1741 35.6712 30.1741 35.1795V31.6555C30.1741 31.1638 29.7756 30.7652 29.2839 30.7652H25.7599Z" fill="#A63A42"/>
<path d="M68.408 7.2V24H72.56C75.464 24 77.192 22.464 77.192 19.824V19.56C77.192 17.136 75.68 15.648 74.432 15.528V15.288C75.656 15.144 76.88 13.896 76.88 11.472V11.352C76.88 8.688 75.296 7.2 72.512 7.2L68.408 7.2ZM71.768 10.128H72.464C73.232 10.128 73.52 10.488 73.52 11.352V12.744C73.52 13.608 73.232 13.944 72.464 13.944H71.768V10.128ZM71.768 16.872H72.512C73.304 16.872 73.64 17.256 73.64 18.144V19.824C73.64 20.712 73.328 21.072 72.536 21.072H71.768V16.872ZM79.0858 7.176L77.2138 23.976L80.5738 23.976L80.9338 19.824H82.3978L82.7818 23.976H86.1418L84.3418 7.176L79.0858 7.176ZM81.1978 16.896L81.5578 12.888H81.7978L82.1338 16.896H81.1978ZM85.4169 7.2L87.9609 19.344V24H91.3209V19.344L93.9609 7.2H90.5769L89.7849 14.688H89.5689L88.7769 7.2L85.4169 7.2ZM98.5721 7.2V24L101.668 24L101.308 13.032H101.524L102.916 24H105.148L106.54 13.032L106.756 13.032L106.396 24H109.468V7.2L105.124 7.2L104.164 18.24H103.924L102.94 7.2H98.5721ZM111.898 7.176L110.026 23.976H113.386L113.746 19.824H115.21L115.594 23.976H118.954L117.154 7.176L111.898 7.176ZM114.01 16.896L114.37 12.888H114.61L114.946 16.896H114.01ZM127.884 13.152V11.352C127.884 8.568 126.276 6.96 123.516 6.96C120.804 6.96 119.268 8.52 119.268 11.352V11.64C119.268 14.256 119.844 15.456 121.644 16.296L122.556 16.704C124.284 17.544 124.548 17.88 124.548 18.888V20.112C124.548 20.88 124.188 21.312 123.564 21.312C122.94 21.312 122.58 20.88 122.58 20.088V18.048H119.22V19.824C119.22 22.68 120.756 24.24 123.516 24.24C126.3 24.24 127.932 22.632 127.932 19.824V19.44C127.932 16.824 127.332 15.672 125.556 14.856L124.74 14.496C122.868 13.608 122.628 13.248 122.628 12.24V11.112C122.628 10.32 122.964 9.888 123.564 9.888C124.164 9.888 124.524 10.32 124.524 11.112V13.152H127.884ZM136.635 7.176L128.355 7.176V10.104H130.803V23.976H134.163V10.104H136.635V7.176ZM143.364 10.104V7.176L137.244 7.176V24H143.436V21.072H140.604V16.656H143.316V13.728H140.604V10.104L143.364 10.104ZM144.088 7.2V24.024L147.448 24.024V17.592H148.216C148.936 17.592 149.272 17.976 149.272 18.84V20.568C149.272 21.864 149.296 22.992 149.512 24H152.872C152.656 23.064 152.632 22.032 152.632 20.592V20.352C152.632 17.904 151.336 16.368 150.16 16.248V16.008C151.336 15.888 152.632 14.496 152.632 11.808V11.688C152.632 8.712 151.024 7.2 148.24 7.2H144.088ZM147.448 10.128L148.216 10.128C148.936 10.128 149.272 10.536 149.272 11.4V13.368C149.272 14.256 148.936 14.664 148.216 14.664H147.448V10.128ZM69.992 31.176L68.12 47.976H71.48L71.84 43.824H73.304L73.688 47.976H77.048L75.248 31.176H69.992ZM72.104 40.896L72.464 36.888H72.704L73.04 40.896H72.104ZM77.5721 31.2V48H80.9321V42.6H81.7001C84.6761 42.6 86.1161 41.16 86.1161 37.08V37.032C86.1161 33.048 84.5561 31.2 81.7241 31.2L77.5721 31.2ZM80.9321 34.128H81.7001C82.4681 34.128 82.7561 34.536 82.7561 35.592V38.304C82.7561 39.288 82.4681 39.696 81.7001 39.696H80.9321V34.128ZM86.7596 31.2V48L90.1196 48V42.6H90.8876C93.8636 42.6 95.3036 41.16 95.3036 37.08V37.032C95.3036 33.048 93.7436 31.2 90.9116 31.2H86.7596ZM90.1196 34.128H90.8876C91.6556 34.128 91.9436 34.536 91.9436 35.592V38.304C91.9436 39.288 91.6556 39.696 90.8876 39.696H90.1196V34.128ZM95.9711 31.176V48H102.091V45.072H99.3311V31.176H95.9711ZM102.603 31.2V48H105.963V31.2H102.603ZM108.359 31.176L106.487 47.976H109.847L110.207 43.824H111.671L112.055 47.976H115.415L113.615 31.176H108.359ZM110.471 40.896L110.831 36.888H111.071L111.407 40.896H110.471ZM121.435 31.2L122.227 42.24H122.035L119.635 31.2H115.939V48H119.299L118.555 37.032H118.747L121.075 48H124.795V31.2L121.435 31.2ZM128.955 35.088C128.955 34.176 129.435 33.864 129.939 33.864C130.443 33.864 130.923 34.176 130.923 35.088V38.928L134.283 38.928V35.328C134.283 32.424 132.555 30.936 129.891 30.936C127.275 30.936 125.595 32.376 125.595 35.328V43.824C125.595 46.8 127.275 48.24 129.891 48.24C132.555 48.24 134.283 46.752 134.283 43.824V40.248L130.923 40.248V44.088C130.923 45 130.443 45.312 129.939 45.312C129.435 45.312 128.955 45 128.955 44.088V35.088ZM141.184 34.104V31.176H135.064V48H141.256V45.072H138.424V40.656H141.136V37.728H138.424V34.104H141.184Z" fill="#333333"/>
</svg>
