<svg width="55" height="55" viewBox="0 0 55 55" fill="none" xmlns="http://www.w3.org/2000/svg">
<path d="M43.5417 4.58333H41.25V2.29167C41.25 1.68388 41.0086 1.10098 40.5788 0.671214C40.149 0.241443 39.5661 0 38.9583 0C38.3505 0 37.7677 0.241443 37.3379 0.671214C36.9081 1.10098 36.6667 1.68388 36.6667 2.29167V4.58333H18.3333V2.29167C18.3333 1.68388 18.0919 1.10098 17.6621 0.671214C17.2323 0.241443 16.6495 0 16.0417 0C15.4339 0 14.851 0.241443 14.4212 0.671214C13.9914 1.10098 13.75 1.68388 13.75 2.29167V4.58333H11.4583C8.42051 4.58697 5.50815 5.79535 3.36009 7.94342C1.21202 10.0915 0.00363884 13.0038 0 16.0417L0 43.5417C0.00363884 46.5795 1.21202 49.4919 3.36009 51.6399C5.50815 53.788 8.42051 54.9964 11.4583 55H43.5417C46.5795 54.9964 49.4919 53.788 51.6399 51.6399C53.788 49.4919 54.9964 46.5795 55 43.5417V16.0417C54.9964 13.0038 53.788 10.0915 51.6399 7.94342C49.4919 5.79535 46.5795 4.58697 43.5417 4.58333ZM4.58333 16.0417C4.58333 14.2183 5.30766 12.4696 6.59697 11.1803C7.88629 9.891 9.63497 9.16667 11.4583 9.16667H43.5417C45.365 9.16667 47.1137 9.891 48.403 11.1803C49.6923 12.4696 50.4167 14.2183 50.4167 16.0417V18.3333H4.58333V16.0417ZM43.5417 50.4167H11.4583C9.63497 50.4167 7.88629 49.6923 6.59697 48.403C5.30766 47.1137 4.58333 45.365 4.58333 43.5417V22.9167H50.4167V43.5417C50.4167 45.365 49.6923 47.1137 48.403 48.403C47.1137 49.6923 45.365 50.4167 43.5417 50.4167Z" fill="#314AB4"/>
<path d="M27.5 37.8125C29.3985 37.8125 30.9375 36.2735 30.9375 34.375C30.9375 32.4765 29.3985 30.9375 27.5 30.9375C25.6015 30.9375 24.0625 32.4765 24.0625 34.375C24.0625 36.2735 25.6015 37.8125 27.5 37.8125Z" fill="#314AB4"/>
<path d="M16.0417 37.8125C17.9402 37.8125 19.4792 36.2735 19.4792 34.375C19.4792 32.4765 17.9402 30.9375 16.0417 30.9375C14.1432 30.9375 12.6042 32.4765 12.6042 34.375C12.6042 36.2735 14.1432 37.8125 16.0417 37.8125Z" fill="#314AB4"/>
<path d="M38.9583 37.8125C40.8568 37.8125 42.3958 36.2735 42.3958 34.375C42.3958 32.4765 40.8568 30.9375 38.9583 30.9375C37.0598 30.9375 35.5208 32.4765 35.5208 34.375C35.5208 36.2735 37.0598 37.8125 38.9583 37.8125Z" fill="#314AB4"/>
</svg>
