<svg xmlns="http://www.w3.org/2000/svg" viewBox="0 0 183 43">
  <path d="M0 42.03h41.91V.41H0v41.62zM26.87 3.6a18.53 18.53 0 010 35.26V3.6zm-5.92-.95c1.33 0 2.76.17 3.95.42 0 9.43-9.2 17.18-18.67 17.18H2.27c.65-9.66 8.72-17.6 18.68-17.6zM6.23 22.2c9.49 0 18.67 7.75 18.67 17.18-1.2.24-2.7.42-3.95.42-9.98-.02-18.3-7.97-18.68-17.6h3.96zM55.95 24.87v-2.61h8.72V18.9h-8.72v-4.86h9.29v-3.33H52.39v14.04c0 3.55 1.51 5.98 5.08 6.47.07.02.15.02.2.02h.07c.37.04.73.07 1.14.07h6.6V28h-6.59c-1.13-.04-2.94-.59-2.94-3.13zM68.02 20.43V31.3h3.58V10.7h-3.58v9.73zM81.83 15.93c-4.51 0-7.9 3.09-7.9 7.9v.13c0 4.7 3.28 7.73 8 7.73 2.26 0 4.38-.62 6.34-2.67l-2.16-2.09a5.2 5.2 0 01-4.07 1.72c-2.65 0-4.43-1.53-4.54-3.9h11.72c.05-.6.05-1.25.05-1.25 0-4.22-2.96-7.57-7.44-7.57zm-4.25 6.29c.16-1.81 2-3.27 4.24-3.27 2.1 0 3.8 1.48 3.8 3.27h-8.04zM99.33 19.11c1.6 0 2.8.59 3.82 1.63l2.21-2.29a8 8 0 00-6.03-2.57c-4.55 0-8.21 3.34-8.21 7.91s3.64 7.93 8.19 7.93c2.23 0 4.3-.75 6.03-2.6l-2.21-2.28a5.07 5.07 0 01-3.82 1.65c-2.63 0-4.64-2-4.64-4.7a4.57 4.57 0 014.66-4.68zM111.15 24.87v-5.25h3.26V16.4h-3.24v-5.7h-3.58v14.4c.1 3.34 1.63 5.63 5.08 6.1.07.02.15.04.22.04h.05c.37.04.75.07 1.14.07h.38v-3.32h-.36c-1.14-.02-2.95-.57-2.95-3.11zM120.95 18.62V16.4h-3.55v14.9h3.55v-7.85c0-2.45 1.57-4 4.04-4 .57 0 1.08.05 1.48.14v-3.43a6.5 6.5 0 00-1.06-.1c-2.14.03-3.75 1.01-4.46 2.55zM135.2 15.95c-4.54 0-8.18 3.44-8.18 7.9 0 4.46 3.62 7.9 8.19 7.9 4.51 0 8.19-3.44 8.19-7.9 0-4.46-3.66-7.9-8.2-7.9zm0 12.58a4.58 4.58 0 01-4.63-4.68c0-2.64 1.99-4.68 4.64-4.68a4.59 4.59 0 014.64 4.68 4.59 4.59 0 01-4.64 4.68zM145.6 20.06v11.22h3.57v-20.6h-3.58v9.38zM162.06 25.05c0 2.36-1.39 3.37-3.27 3.37-1.86 0-3.27-1.01-3.27-3.33v-8.7h-3.6v9c0 4.25 3.12 6.3 6.83 6.3 3.75 0 6.91-2.07 6.91-6.38V16.4h-3.6v8.64zM179.17 26.53l-2.25-3.12 2.8-3.77 2.38-3.23h-3.9l-3.25 4.46-3.27-4.46h-3.88l2.21 3.01 2.96 4.02-3.1 4.3-2.58 3.58h3.84l3.8-5.26 3.82 5.26h3.84l-3.42-4.79z"/>
</svg>
