<svg width="40" height="36" viewBox="0 0 40 36" fill="none" xmlns="http://www.w3.org/2000/svg">
<path d="M38.778 13.7553C37.274 11.3356 35.3768 9.17427 33.1618 7.35699L37.8267 2.77392C38.1302 2.46522 38.2981 2.05175 38.2943 1.62259C38.2906 1.19342 38.1153 0.782889 37.8064 0.479411C37.4975 0.175933 37.0797 0.00379122 36.6428 6.18757e-05C36.206 -0.00366746 35.7852 0.161314 35.4709 0.459472L30.3978 5.45011C27.253 3.61495 23.6577 2.65847 20 2.6839C9.68549 2.6839 3.80767 9.6207 1.22196 13.7553C0.423133 15.0246 0 16.4875 0 17.9799C0 19.4723 0.423133 20.9351 1.22196 22.2045C2.72599 24.6241 4.62318 26.7855 6.83821 28.6028L2.17327 33.1859C2.01415 33.3368 1.88722 33.5175 1.79991 33.7172C1.71259 33.9169 1.66663 34.1316 1.66471 34.349C1.66279 34.5663 1.70494 34.7818 1.78871 34.983C1.87248 35.1842 1.99619 35.3669 2.15262 35.5206C2.30905 35.6743 2.49507 35.7958 2.69982 35.8781C2.90457 35.9604 3.12396 36.0018 3.34517 35.9999C3.56639 35.9981 3.78501 35.9529 3.98827 35.8671C4.19154 35.7813 4.37538 35.6566 4.52906 35.5003L9.61385 30.5048C12.7548 32.3396 16.3458 33.2977 20 33.2759C30.3145 33.2759 36.1923 26.3391 38.778 22.2045C39.5769 20.9351 40 19.4723 40 17.9799C40 16.4875 39.5769 15.0246 38.778 13.7553ZM4.0609 20.4908C3.58631 19.7363 3.33492 18.8668 3.33492 17.9799C3.33492 17.0929 3.58631 16.2235 4.0609 15.469C6.28341 11.9237 11.3066 5.95752 20 5.95752C22.7661 5.94229 25.4934 6.59724 27.9404 7.8644L24.5866 11.1593C22.9871 10.116 21.0694 9.64852 19.159 9.83618C17.2486 10.0238 15.4631 10.8551 14.1055 12.1889C12.7479 13.5226 11.9018 15.2768 11.7108 17.1537C11.5198 19.0306 11.9956 20.9146 13.0576 22.486L9.209 26.2671C7.16826 24.6462 5.4268 22.6922 4.0609 20.4908ZM24.9981 17.9799C24.9981 19.2822 24.4716 20.5312 23.5342 21.4521C22.5969 22.373 21.3256 22.8903 20 22.8903C19.2578 22.8875 18.5259 22.7196 17.8591 22.3993L24.4983 15.8766C24.8244 16.5316 24.9953 17.2507 24.9981 17.9799ZM15.0019 17.9799C15.0019 16.6776 15.5284 15.4286 16.4658 14.5077C17.4031 13.5868 18.6744 13.0695 20 13.0695C20.7422 13.0723 21.4741 13.2402 22.1409 13.5605L15.5017 20.0832C15.1756 19.4281 15.0047 18.7091 15.0019 17.9799ZM35.9391 20.4908C33.7166 24.0361 28.6934 30.0023 20 30.0023C17.2339 30.0175 14.5066 29.3625 12.0596 28.0954L15.4134 24.8005C17.0129 25.8438 18.9306 26.3113 20.841 26.1236C22.7514 25.9359 24.5369 25.1047 25.8945 23.7709C27.2521 22.4371 28.0982 20.683 28.2892 18.8061C28.4802 16.9292 28.0044 15.0452 26.9424 13.4737L30.791 9.69272C32.8317 11.3136 34.5732 13.2676 35.9391 15.469C36.4137 16.2235 36.6651 17.0929 36.6651 17.9799C36.6651 18.8668 36.4137 19.7363 35.9391 20.4908Z" fill="white"/>
</svg>
