<svg xmlns="http://www.w3.org/2000/svg" viewBox="0 0 30 30">
  <circle cx="15" cy="15" r="15"/>
  <g fill="white">
    <path d="M22.8 15.62c0-.63-.05-1.09-.16-1.56h-7.19v2.84h4.22c-.08.7-.54 1.77-1.56 2.48l-.02.1 2.27 1.76.16.01a7.48 7.48 0 002.28-5.63z"/>
    <path d="M15.45 23.1a7.3 7.3 0 005.07-1.85l-2.41-1.87c-.65.45-1.52.77-2.66.77a4.6 4.6 0 01-4.35-3.18H11L8.66 18.8l-.03.09a7.65 7.65 0 006.83 4.22z"/>
    <path d="M11.1 16.97a4.71 4.71 0 010-3.03l-.01-.1-2.4-1.86-.07.04a7.66 7.66 0 000 6.87l2.48-1.92z"/>
    <path d="M15.45 10.76c1.44 0 2.4.62 2.96 1.14l2.16-2.11a7.65 7.65 0 00-11.96 2.23l2.48 1.92a4.63 4.63 0 014.36-3.18z"/>
  </g>
</svg>
