<svg width="46" height="55" viewBox="0 0 46 55" fill="none" xmlns="http://www.w3.org/2000/svg">
<path d="M37.9975 4.90464L23.6405 0.117425C23.1704 -0.0391417 22.6622 -0.0391417 22.1922 0.117425L7.83509 4.90464C5.55241 5.6629 3.56673 7.12124 2.1602 9.07246C0.753658 11.0237 -0.0022038 13.3685 4.82644e-06 15.7739V27.5001C4.82644e-06 44.8317 21.083 54.4039 21.9859 54.8026C22.2788 54.9328 22.5958 55 22.9163 55C23.2368 55 23.5538 54.9328 23.8467 54.8026C24.7496 54.4039 45.8326 44.8317 45.8326 27.5001V15.7739C45.8348 13.3685 45.079 11.0237 43.6724 9.07246C42.2659 7.12124 40.2802 5.6629 37.9975 4.90464ZM41.2494 27.5001C41.2494 40.001 26.7686 48.2004 22.9163 50.1621C19.0595 48.2073 4.58327 40.0331 4.58327 27.5001V15.7739C4.5834 14.3308 5.03764 12.9243 5.88163 11.7537C6.72561 10.5832 7.91655 9.70789 9.2857 9.25187L22.9163 4.70756L36.5469 9.25187C37.9161 9.70789 39.107 10.5832 39.951 11.7537C40.795 12.9243 41.2492 14.3308 41.2494 15.7739V27.5001Z" fill="#314AB4"/>
<path d="M30.4788 19.0211L20.8815 28.646L15.7391 23.2836C15.5327 23.0579 15.2832 22.8759 15.0054 22.7481C14.7276 22.6204 14.427 22.5495 14.1214 22.5397C13.8158 22.5299 13.5113 22.5814 13.2258 22.6911C12.9404 22.8008 12.6798 22.9666 12.4594 23.1785C12.2391 23.3905 12.0633 23.6444 11.9426 23.9254C11.8219 24.2063 11.7586 24.5086 11.7565 24.8144C11.7544 25.1201 11.8135 25.4233 11.9303 25.7058C12.0472 25.9884 12.2194 26.2448 12.4368 26.4598L17.7213 31.9597C18.1154 32.3853 18.5918 32.7267 19.1215 32.963C19.6513 33.1993 20.2235 33.3258 20.8036 33.3346H20.8792C21.4476 33.3365 22.0108 33.2255 22.536 33.0079C23.0612 32.7904 23.5379 32.4707 23.9385 32.0674L33.7284 22.2775C33.9422 22.0642 34.1119 21.8108 34.2278 21.5318C34.3437 21.2529 34.4035 20.9538 34.4038 20.6518C34.4041 20.3497 34.3449 20.0505 34.2296 19.7713C34.1143 19.4921 33.9452 19.2384 33.7318 19.0246C33.5184 18.8107 33.265 18.641 32.9861 18.5251C32.7071 18.4093 32.4081 18.3494 32.106 18.3491C31.804 18.3488 31.5048 18.408 31.2256 18.5233C30.9464 18.6386 30.6926 18.8077 30.4788 19.0211Z" fill="#314AB4"/>
</svg>
