<svg width="71" height="81" viewBox="0 0 71 81" fill="none" xmlns="http://www.w3.org/2000/svg">
<path d="M35.2231 69.0146L36.2407 71.9169L39.3691 72.0112L36.9015 73.945L37.837 76.8923L35.2781 75.157L32.6917 76.8923L33.5457 73.9146L31.0581 72.0112L34.1775 71.9343L35.2231 69.0146Z" fill="white"/>
<path d="M45.5318 14.7002L45.0983 17.414L44.6649 20.1278" fill="#354692"/>
<path d="M17.5634 53.2659L11.5824 53.5048C11.8704 54.0884 12.1639 54.7164 12.4519 55.2943L18.7707 55.0554C18.7707 55.0554 18.6267 49.9703 18.239 48.3754C18.0784 47.7363 17.6022 47.125 16.9653 46.5359C16.4835 46.0913 15.9076 45.6634 15.315 45.2521C15.2984 45.241 15.2818 45.2299 15.2652 45.2188C14.7612 44.8687 14.2407 44.5352 13.7533 44.2129C13.7533 44.2129 13.5595 44.6186 13.3269 45.2188C13.3213 45.2299 13.3158 45.241 13.3103 45.2521C13.1331 45.7078 12.9392 46.2691 12.7952 46.836C12.618 47.5195 12.5128 48.2198 12.5903 48.7644C12.834 50.3594 11.3831 51.3319 11.3831 51.3319C11.3831 51.3319 15.4867 52.0599 17.5634 53.2659Z" fill="white"/>
<path d="M29.184 34.8962C29.3771 35.7598 28.3179 36.9589 28.4613 37.3384L30.0501 35.6113L34.3751 38.2955C34.342 38.2515 32.0637 35.2703 31.2031 34.6047C30.9603 34.4122 29.6143 32.3055 29.6143 32.3055C29.6143 32.3055 29.1729 30.8203 28.3289 30.1603C28.0586 29.9513 27.7497 29.8247 27.4021 29.8577C27.4021 29.8577 27.86 30.9028 28.3289 32.179C28.6599 33.0645 28.9909 34.0546 29.184 34.8962Z" fill="white"/>
<path d="M40.7073 35.8773C40.7073 35.8773 43.6873 36.8405 45.8506 40.2175L46.4742 36.1208L46.3141 35.6558L46.2755 35.5396L46.0934 35.0137C46.0934 35.0137 43.3065 30.1918 42.9202 30.3856C42.9202 30.3856 41.8662 34.0781 40.9556 35.5451C40.928 35.5839 40.906 35.6226 40.8784 35.6614C40.8177 35.7389 40.7625 35.8108 40.7073 35.8773Z" fill="white"/>
<path d="M27.3643 50.2755C27.3643 50.2755 32.7935 50.5142 36.526 50.6141C38.028 50.664 46.7502 50.4198 46.7502 50.4198L46.9449 47.2782L46.5555 46.6788L46.5055 46.6011L46.511 46.5123L46.5222 46.1571L46.5555 44.8638L46.9894 44.2366L47.0395 42.1552C47.0395 42.1552 46.3608 42.2051 45.5876 41.8666C45.2483 41.7223 43.5517 40.6566 41.9997 40.0294C40.9094 41.4614 39.8692 43.6427 39.2017 45.1802C38.7455 46.2348 38.4618 46.9896 38.4618 46.9896C38.384 45.2634 38.9013 42.6436 39.3574 40.7787L39.633 39.709L39.3574 40.0627C37.2547 42.7657 36.1811 48.2274 36.0421 48.9711V49.1154C32.4041 49.5539 27.3643 50.2755 27.3643 50.2755Z" fill="white"/>
<path d="M34.4129 46.1728L34.012 39.8043L31.4729 38.9736L34.4129 46.1728Z" fill="white"/>
<path d="M50.6959 34.2812L51.3318 47.9069C52.004 43.1931 52.4765 40.2144 52.1279 35.6947H52.1282L51.531 35.285L50.6959 34.2812Z" fill="white"/>
<path d="M23.2561 33.6645V33.6756L23.6218 36.8075L23.8655 40.8962L23.8777 40.8405L23.8838 40.8238L24.024 40.262L24.0301 40.2397L24.1093 39.9227L24.3227 38.9492L24.475 37.9201L24.5055 37.653L24.5116 37.6419L24.5665 37.1858V37.1746L24.5969 36.9187L24.6884 35.9174V34.8883L24.6274 33.8314L24.5055 33.3029L24.3531 32.8301L23.2561 33.6645Z" fill="white"/>
<path d="M35.9582 33.8452V34.2573L36.6264 33.9826L37.0998 33.7079L37.4339 33.5156L38.0465 33.1036L38.6034 32.6641L38.8262 32.4718L39.1046 32.2246L39.4387 31.9224L39.8007 31.5653L40.0624 31.2797L40.0792 31.2632L39.8675 31.6093L39.8564 31.6258L39.8286 31.6752L39.7896 31.7466L38.9932 33.1036L38.5477 33.8178L38.2136 34.3671L37.7681 35.0813L37.2112 35.9603L36.7712 36.6196L36.7378 36.6745L37.0441 36.4547L37.2112 36.3174L37.6567 35.9328L38.13 35.4659L38.492 35.0813L38.9375 34.5045L39.6615 33.5431L40.3298 32.4993L40.7753 31.7851L41.1651 31.0709L41.5549 30.4116L41.889 29.6975L42.1396 29.203L42.0728 28.8459L41.6273 27.4176L41.5549 27.1978L41.2932 26.6484L40.792 27.3626L40.3186 28.0493L39.745 28.8185L39.1603 29.3129L38.9654 29.4667L38.5477 29.6975L37.7681 29.9172L37.2112 29.9721L36.6264 30.0271L36.7657 31.2906L36.7935 31.5379L36.7657 31.7851L36.6431 32.2026L36.6264 32.252L36.5875 32.3235L36.3201 32.8014L36.2366 32.9717L36.103 33.2299V33.2354L36.0417 33.3508L35.986 33.598L35.9582 33.8452Z" fill="white"/>
<path d="M13.3429 57.0853H14.6621L18.2805 56.7461L18.7705 58.1595L18.959 59.7049L15.6044 60.8734L13.3429 57.0853Z" fill="white"/>
<path d="M23.036 8.59533V11.5361L2.95933 17.6114C3.13699 20.6462 3.85322 29.8672 6.79587 40.2788C7.03461 41.1261 7.29002 41.979 7.55653 42.8374C7.80637 43.6127 8.07287 44.4158 8.35048 45.2354C8.35603 45.2465 8.35604 45.2576 8.36159 45.2686C8.53926 45.7892 8.72803 46.3209 8.92236 46.847C8.95012 46.9245 8.97789 47.0021 9.00565 47.0796C9.0223 47.0021 9.04451 46.9245 9.06116 46.847C9.10558 46.6532 9.15555 46.4593 9.20552 46.2655C9.21662 46.2212 9.22773 46.1713 9.23883 46.127C9.31101 45.8391 9.38874 45.5511 9.46648 45.2686C9.46648 45.2576 9.47203 45.2465 9.47758 45.2354C9.69967 44.4435 9.93841 43.6737 10.216 42.9371C10.216 42.9371 10.216 42.9371 10.216 42.9316C10.2216 42.9094 10.2327 42.8873 10.2438 42.8651C10.2771 42.7931 10.3271 42.7211 10.3826 42.6436C10.4326 42.5771 10.4825 42.5107 10.538 42.4442C10.6491 42.3113 10.7712 42.1728 10.8823 42.0399C11.0377 41.8516 11.171 41.6744 11.2265 41.5304C11.3209 41.3366 10.4048 40.5668 10.7435 40.1791C11.7096 39.0217 12.7256 38.5398 13.1142 38.346C13.1753 38.3128 13.2642 38.2574 13.3641 38.1909C13.4918 38.1079 13.6362 38.0082 13.8027 37.8974C13.8749 37.8476 13.9471 37.7977 14.0193 37.7479C14.0914 37.6981 14.1636 37.6482 14.2413 37.5928C14.2636 37.5762 14.2802 37.5651 14.3024 37.5485C15.0409 37.0279 15.8237 36.4575 15.8237 36.4575L16.9675 36.0809L17.6226 35.8649L18.2111 35.6711L18.5665 35.5548L19.6047 35.2114L19.9434 34.1481C19.9434 34.1481 22.2642 33.5223 22.9916 33.5223C23.1248 33.5223 23.2303 33.5445 23.3025 33.5888C23.3358 33.6109 23.3636 33.6331 23.3802 33.6663C23.4302 33.6165 23.4302 33.5722 23.4746 33.5223C23.4246 33.6663 23.3802 33.7605 23.3802 33.7605C23.3802 33.7605 23.4524 34.5192 23.5412 35.5493C23.5468 35.588 23.5468 35.6268 23.5523 35.6656C23.7022 37.4156 23.891 39.8579 23.8632 40.7495C23.8632 40.7495 23.8632 40.7495 23.8632 40.744L23.8688 40.7219L23.8744 40.7052L23.8799 40.6886C23.9021 40.5945 23.9465 40.4117 24.0021 40.1459L24.0076 40.1237C24.1353 39.5422 24.313 38.6118 24.4407 37.5541V37.5374C24.4573 37.3879 24.474 37.2384 24.4906 37.0833V37.0722C24.5351 36.6126 24.5684 36.1418 24.585 35.6656C24.585 35.6268 24.5906 35.588 24.5906 35.5493C24.6072 34.8736 24.5795 34.1924 24.4906 33.5666C24.4407 33.179 24.3463 32.9408 24.2963 32.747C24.4407 32.603 24.685 32.315 25.118 31.6394C25.651 30.7699 26.2784 29.8561 26.6171 29.0808C26.9058 28.4051 27.5832 28.1171 27.5832 28.1171L27.7775 28.167C27.8275 27.2532 27.9219 26.2397 28.0163 25.4644L27.8719 25.3204C26.9558 24.1131 26.4672 22.7175 26.1285 21.1225C26.1285 21.0727 26.1285 21.0727 26.1285 21.0727C26.1285 21.0727 26.1119 21.0007 26.0841 20.8788C26.0786 20.8567 26.073 20.829 26.0675 20.8013C26.0286 20.6352 25.9842 20.3915 25.9342 20.109C25.9342 20.0592 25.7399 19.1842 25.7399 19.1399C25.5955 18.4199 25.6122 18.3701 25.4678 17.5726L24.9959 14.6374C25.6844 14.7315 26.824 14.1774 27.3278 13.7402C28.4382 12.7766 29.0353 11.3666 30.0651 10.2069C30.9257 9.23777 32.5358 8.07476 34.479 7.82555C32.7024 7.16098 29.6209 9.40391 28.6493 10.9269C27.8275 11.7465 27.239 12.7711 26.2673 13.4467C26.023 13.6406 25.3512 13.9396 25.007 13.7956C24.957 13.7458 24.9071 13.7458 24.8626 13.7015C24.9126 11.5305 24.9348 9.48144 24.9792 9.09931C25.1236 7.99169 25.4623 6.87853 25.9953 5.9149C25.9453 6.15858 25.9453 6.44656 25.9009 6.87853C25.6122 10.1072 25.9287 12.4941 25.9287 12.4941C25.9287 12.4941 26.173 11.8185 26.2673 10.7552C26.4617 8.92208 26.5283 7.36035 26.867 5.13957C26.9614 4.56361 27.2556 3.98211 27.6387 3.55013C28.0718 3.06832 28.5604 2.63081 29.0434 2.24868C30.2038 1.32935 32.6246 0.991531 34.0737 0.84754C34.6843 0.78687 34.7733 0.792106 35.2563 0.792106C35.7393 0.792106 35.9051 0.798931 36.3945 0.84754C37.8436 0.991531 40.3143 1.32935 41.4248 2.24868C41.8634 2.5865 42.3464 3.06832 42.8295 3.55013C43.2181 4.03195 43.5068 4.56361 43.6012 5.13957C43.8899 7.06683 43.9677 8.20212 44.162 10.0297C44.3063 11.4751 44.5951 12.4886 44.5951 12.4886C44.5951 12.4886 44.856 10.0574 44.5673 6.87299C44.5173 6.44102 44.4729 6.1475 44.4729 5.90937C45.0059 6.873 45.3446 7.93631 45.489 9.09377C45.5389 9.48144 45.6111 11.525 45.6611 13.6959C45.5667 13.7901 45.3724 13.8399 45.228 13.7901L45.178 13.779C45.1225 13.7513 45.1263 13.7524 45.0836 13.7402C45.041 13.7281 45.0238 13.7159 44.9837 13.6959C44.9282 13.6682 44.9282 13.6682 44.8393 13.6405C44.7894 13.5907 44.745 13.5907 44.695 13.5409C42.7073 12.6437 41.4248 10.2069 40.5864 9.09931C39.587 8.13015 37.1718 7.41019 36.0892 7.82555C37.4289 7.84958 40.2255 9.4316 40.9306 10.7552C41.6049 12.0209 42.4575 13.8344 44.4951 14.4602C44.8171 14.6042 45.178 14.6928 45.5167 14.6706L45.0809 17.3871L44.645 20.1035C44.6173 20.3306 44.5895 20.5576 44.5562 20.7902C44.5506 20.8179 44.5506 20.8401 44.5451 20.8678C44.2453 22.1028 43.8844 22.9887 43.418 24.0797C43.4069 24.1019 43.3625 24.1905 43.3625 24.1905L43.3069 24.3013L43.1959 24.4674C43.1959 24.4674 43.1959 24.4951 43.0293 24.6889C42.9772 24.7495 42.8072 24.9104 42.8072 24.9104L42.5574 25.1874C42.5574 25.1874 42.0355 25.6913 41.669 26.1288C40.9362 27.0038 40.2088 28.4771 39.3594 29.1804C39.2261 29.2912 39.0873 29.402 38.9485 29.5072C38.5154 29.845 37.9324 29.9392 37.3495 29.989C37.1052 29.989 36.9164 30.0389 36.6721 30.0389C36.7221 30.4265 36.772 30.9526 36.8165 31.3403C36.8498 31.6283 36.7776 31.9052 36.6666 32.171C36.6499 32.2098 36.6332 32.2541 36.611 32.2929C36.5 32.5255 36.3723 32.7414 36.2612 32.9464C36.2113 33.035 36.1669 33.1236 36.128 33.2066V33.2122C36.0891 33.3008 36.0614 33.3839 36.0447 33.4614C35.9947 33.6054 35.9947 33.8491 35.9947 34.1869C37.2329 33.766 38.421 32.8245 39.1983 32.1046C39.7591 31.5895 40.1033 31.1963 40.1033 31.1963C40.0978 31.2129 40.0867 31.224 40.0811 31.2406C40.0145 31.3514 39.9479 31.4621 39.8868 31.5729L39.8757 31.5895C39.8535 31.6283 39.8313 31.6671 39.8035 31.7058C39.5981 32.0547 39.3927 32.3981 39.1983 32.7193C38.2156 34.353 37.3661 35.7099 36.7665 36.6403C36.7776 36.6347 36.7887 36.6237 36.7943 36.6181C37.6493 36.02 38.4766 35.1007 39.2094 34.1094C40.914 31.811 42.1354 29.1195 42.1354 29.1195C42.1354 28.6377 41.3098 27.325 41.3098 26.5996L41.5302 26.2673L41.8125 25.9627C42.0568 26.3005 42.5685 27.8679 42.7628 28.2999H43.0515C43.0515 28.2999 43.7289 28.5879 44.0176 29.2635C44.3563 30.0333 44.9337 31.0025 45.5167 31.8221C46.5328 33.4116 46.4384 32.8356 46.7771 33.1734C46.9214 33.3174 47.1157 33.6054 47.2601 33.7992C47.3545 33.7051 47.4544 33.6552 47.6487 33.6552C47.9041 33.6552 48.365 33.7328 48.848 33.838C48.8702 33.8435 48.8924 33.8491 48.9091 33.8491C49.3088 33.9321 49.7253 34.0318 50.0528 34.1149C50.4304 34.209 50.6969 34.281 50.6969 34.281L50.7024 34.2977L50.7191 34.3586L50.8801 34.8958L50.8912 34.929L50.9856 35.2447C51.0134 36.4021 51.1411 40.5723 51.2188 43.8066C51.2188 43.8564 51.2188 43.9007 51.2243 43.9506C51.2355 44.4711 51.2466 44.9696 51.2577 45.4237C51.2577 45.4735 51.2577 45.5179 51.2632 45.5677C51.2743 46.127 51.2799 46.6199 51.2854 47.0021C51.2854 47.3343 51.2854 47.5891 51.2799 47.7386C51.2799 47.7386 51.3243 47.4617 51.3909 47.0021C51.4464 46.6255 51.5186 46.1326 51.5963 45.5677C51.6019 45.5179 51.6074 45.4735 51.6185 45.4237C51.6796 44.964 51.7463 44.4601 51.8073 43.9506C51.8129 43.9007 51.8184 43.8564 51.824 43.8066C51.8406 43.6737 51.8573 43.5408 51.8684 43.4078C51.8739 43.3303 51.8851 43.2528 51.8906 43.1808C51.8962 43.1254 51.9017 43.0645 51.9073 43.0091C52.0016 42.1451 52.0738 41.2978 52.1016 40.6C52.1293 39.7028 52.1405 38.6451 52.1349 37.6482V37.3325C52.1294 36.8064 52.1238 36.3024 52.1071 35.8649C52.1071 35.804 52.1016 35.7486 52.1016 35.6988V35.6933C52.1016 35.6877 52.1016 35.6877 52.1016 35.6822L52.1293 35.6933L52.629 35.8649L54.7611 36.6181C54.7611 36.6181 55.2719 36.9947 55.8604 37.4101C56.2213 37.6648 56.6099 37.9417 56.9264 38.1522C57.1596 38.3072 57.3484 38.4346 57.465 38.4955C57.8981 38.6894 58.8697 39.1712 59.8358 40.3287C60.1245 40.7163 59.2583 41.4861 59.3527 41.68C59.5415 42.051 60.1744 42.6048 60.3521 43.0312C60.3577 43.0479 60.3632 43.0645 60.3688 43.0811C60.3854 43.1199 60.3965 43.1642 60.4132 43.2029C60.441 43.2805 60.4687 43.358 60.4965 43.43C60.5409 43.5629 60.5909 43.6958 60.6353 43.8287C60.6519 43.873 60.6686 43.9229 60.6797 43.9727C60.8407 44.4545 60.9851 44.9474 61.1239 45.4459C61.135 45.4902 61.1516 45.54 61.1627 45.5899C61.2904 46.0606 61.4126 46.5369 61.5292 47.0242C61.5458 47.0907 61.5625 47.1627 61.5791 47.2291C61.6069 47.1627 61.6291 47.0907 61.6569 47.0242C61.8345 46.5424 62.0067 46.0661 62.1677 45.5899C62.1843 45.54 62.201 45.4957 62.2176 45.4459C62.3898 44.953 62.5563 44.4601 62.7173 43.9727C62.734 43.9229 62.7507 43.8786 62.7618 43.8287C62.8506 43.5463 62.945 43.2638 63.0283 42.9814C63.1282 42.6713 63.2226 42.3556 63.317 42.0455C66.6538 30.9803 67.4367 20.9453 67.6255 17.7553L47.5099 11.5361V8.59533L70.6347 15.7339L70.5848 16.7973C70.5348 17.3289 70.2461 29.629 65.8432 43.7623C63.2281 52.0584 59.7969 59.2468 55.5384 65.1283C50.1694 72.5105 43.5401 77.7662 35.8504 80.8066L35.3174 81.0005L34.7844 80.8066C27.0946 77.816 20.4653 72.5105 15.0964 65.1283C10.8379 59.2911 7.35664 52.1027 4.79154 43.7623C0.388672 29.629 0.0499878 17.3289 0.0499878 16.7973L2.28882e-05 15.7339L23.036 8.59533ZM27.3833 29.8173C27.3833 29.8173 27.8442 30.8696 28.3161 32.1544C28.6437 33.0405 28.9768 34.0374 29.1711 34.8847C29.3654 35.7542 28.2994 36.9615 28.4438 37.3436L28.4493 37.3381L30.0428 35.6046H30.0484L34.3957 38.3072C34.3957 38.3072 34.3957 38.3017 34.3902 38.3017C34.2791 38.1466 32.0583 35.2557 31.2088 34.5967C30.9645 34.4029 29.6097 32.2818 29.6097 32.2818C29.6097 32.2818 29.1656 30.7865 28.3161 30.1219C28.044 29.9115 27.7331 29.7841 27.3833 29.8173ZM33.0465 41.0597C33.5296 41.9735 34.4013 46.0772 34.4013 46.0772L33.9682 39.7582L32.5191 39.3706L31.3642 38.9441L31.3531 38.9386C31.3531 38.9386 31.3587 38.9441 31.3642 38.9497C31.4975 39.0826 32.5913 40.2013 33.0465 41.0597ZM40.3532 3.68857C41.1249 4.38083 41.658 5.2337 41.7079 6.25271C41.8023 7.59293 42.0966 7.7203 42.3353 8.04151C42.4297 8.12459 42.5296 8.16335 42.624 8.12459C42.724 8.08028 42.7684 8.00275 42.7684 7.91968C42.7684 7.31049 42.624 6.74006 42.5741 5.72659C42.4797 4.3033 41.1694 3.45043 40.4476 2.92431C39.5259 2.27635 36.8664 2.15451 36.822 2.15451C36.8442 2.14897 39.3427 2.7194 40.3532 3.68857ZM46.3329 35.6766L46.294 35.5603L46.1052 35.0287C46.1052 35.0287 44.1176 31.6061 43.257 30.6425C43.2292 30.6148 43.207 30.5871 43.1793 30.5594C43.1681 30.5484 43.157 30.5373 43.1515 30.5317C43.1237 30.5041 43.1015 30.4819 43.0738 30.4653C43.0016 30.4044 42.9461 30.3822 42.9127 30.3988C42.9127 30.3988 41.8523 34.0927 40.9362 35.5603C40.9084 35.5991 40.8862 35.6379 40.8584 35.6766C40.8362 35.7154 40.8085 35.7486 40.7863 35.7819C40.7863 35.7819 40.7863 35.7819 40.7807 35.7874C40.753 35.8262 40.7196 35.8649 40.6919 35.8982C40.6919 35.8982 43.6901 36.8618 45.8665 40.24L46.4939 36.1418L46.3329 35.6766ZM47.0214 42.1673C47.0214 42.1673 47.0214 42.1673 47.0158 42.1673C46.9936 42.1673 46.9492 42.1673 46.8825 42.1673C46.877 42.1673 46.8659 42.1673 46.8603 42.1673C46.8326 42.1673 46.8048 42.1673 46.7771 42.1618C46.5106 42.1451 46.0608 42.0898 45.5722 41.8738C45.2336 41.7298 43.5457 40.6665 41.9966 40.0407C41.9966 40.0407 41.9966 40.0407 41.9911 40.0407C40.9029 41.4695 39.8646 43.646 39.1983 45.18C38.7764 46.1492 38.5043 46.8691 38.4655 46.9744C38.4599 46.9854 38.4599 46.9854 38.4599 46.9854C38.3822 45.2631 38.8985 42.6491 39.3538 40.7883C39.3538 40.7828 39.3594 40.7717 39.3594 40.7662C39.4537 40.3896 39.537 40.0462 39.6203 39.7472C39.5315 39.8468 39.4371 39.9576 39.3538 40.0684C37.2606 42.7709 36.1835 48.2204 36.0447 48.9626V49.1065C32.4191 49.5385 27.3833 50.264 27.3833 50.264C27.3833 50.264 27.3833 50.264 27.3889 50.264C27.3889 50.264 27.3944 50.264 27.4055 50.264C27.4111 50.264 27.4111 50.264 27.4166 50.264C27.4444 50.264 27.4888 50.2695 27.5499 50.2695C27.561 50.2695 27.5721 50.2695 27.5832 50.2695C27.6054 50.2695 27.6276 50.2695 27.6554 50.2751H27.6887H27.6942C27.7109 50.2751 27.7276 50.2751 27.7442 50.2751C27.7609 50.2751 27.7775 50.2751 27.7942 50.2751C27.7997 50.2751 27.7997 50.2751 27.8053 50.2751C27.8386 50.2751 27.8719 50.2806 27.9052 50.2806C27.933 50.2806 27.9663 50.2806 27.9996 50.2862C28.0274 50.2862 28.0607 50.2862 28.094 50.2917C28.1218 50.2917 28.1551 50.2917 28.1828 50.2972C28.2384 50.3028 28.2994 50.3028 28.3661 50.3028C28.4438 50.3083 28.5271 50.3083 28.6159 50.3138C28.6437 50.3138 28.6714 50.3138 28.6992 50.3194C28.7214 50.3194 28.7492 50.3194 28.7769 50.3249C28.8158 50.3249 28.8491 50.3305 28.888 50.3305C28.9102 50.3305 28.9324 50.3305 28.9601 50.3305C28.9935 50.3305 29.0268 50.336 29.0601 50.336C29.0767 50.336 29.0989 50.336 29.1212 50.336C29.1545 50.336 29.1822 50.3415 29.2155 50.3415C29.4654 50.3526 29.7374 50.3637 30.0262 50.3748C30.0983 50.3803 30.165 50.3803 30.2371 50.3858C30.3093 50.3914 30.3815 50.3914 30.4537 50.3914C30.5259 50.3969 30.598 50.3969 30.6702 50.4025C30.698 50.4025 30.7202 50.4025 30.7479 50.408C30.7979 50.408 30.8479 50.4135 30.8979 50.4135C30.9645 50.4191 31.0311 50.4191 31.0977 50.4191C31.1088 50.4191 31.1199 50.4191 31.1255 50.4191C31.1755 50.4191 31.2254 50.4246 31.2754 50.4246C31.714 50.4412 32.1749 50.4578 32.6468 50.4744C32.8134 50.48 32.9744 50.4855 33.1409 50.4911C33.2076 50.4911 33.2797 50.4966 33.3519 50.4966C33.4185 50.4966 33.4796 50.5021 33.5462 50.5021C33.8016 50.5132 34.0626 50.5188 34.318 50.5298C34.4235 50.5354 34.5345 50.5354 34.64 50.5409C34.9787 50.552 35.3174 50.5631 35.645 50.5741C35.7393 50.5797 35.8337 50.5797 35.9281 50.5797C36.0336 50.5852 36.1391 50.5852 36.239 50.5908C36.339 50.5963 36.4445 50.5963 36.5444 50.6018C36.7887 50.6129 37.2329 50.6129 37.7992 50.6074C37.8381 50.6074 37.8769 50.6074 37.9158 50.6074C37.9769 50.6074 38.0435 50.6074 38.1101 50.6074C38.1434 50.6074 38.1823 50.6074 38.2156 50.6074H38.2545C38.2822 50.6074 38.31 50.6074 38.3378 50.6074C38.4099 50.6074 38.4821 50.6074 38.5543 50.6018C38.5932 50.6018 38.6376 50.6018 38.6764 50.6018C38.7209 50.6018 38.7708 50.6018 38.8208 50.6018C39.0817 50.5963 39.3483 50.5908 39.6314 50.5852H39.7258C39.7758 50.5852 39.8257 50.5852 39.8702 50.5797C39.9146 50.5797 39.9645 50.5797 40.009 50.5741C40.1089 50.5741 40.2088 50.5686 40.3088 50.5686C40.3532 50.5686 40.4032 50.5686 40.4476 50.5631C40.4642 50.5631 40.4753 50.5631 40.492 50.5631C40.5475 50.5631 40.5975 50.5631 40.653 50.5575C40.7585 50.5575 40.8696 50.552 40.9806 50.552C41.0361 50.552 41.0972 50.552 41.1583 50.5464L41.5969 50.5354C41.6857 50.5354 41.7746 50.5298 41.8634 50.5298C41.9689 50.5298 42.0688 50.5243 42.1743 50.5243C42.2409 50.5243 42.302 50.5188 42.3686 50.5188C42.4686 50.5188 42.5741 50.5132 42.674 50.5132C42.8683 50.5077 43.0627 50.5021 43.2514 50.4966C43.5068 50.4911 43.7622 50.4855 44.001 50.48C44.1953 50.4745 44.3896 50.4689 44.5728 50.4634C44.584 50.4634 44.6006 50.4634 44.6117 50.4634C44.6395 50.4634 44.6672 50.4634 44.695 50.4634C44.7672 50.4634 44.8338 50.4578 44.9004 50.4578C44.9393 50.4578 44.9782 50.4578 45.0115 50.4578C45.0892 50.4578 45.1669 50.4523 45.2391 50.4523C45.278 50.4523 45.3113 50.4523 45.3446 50.4468C45.6056 50.4412 45.8443 50.4357 46.0386 50.4302C46.0608 50.4302 46.083 50.4302 46.1108 50.4302C46.1497 50.4302 46.1885 50.4301 46.2218 50.4246C46.2385 50.4246 46.2607 50.4246 46.2774 50.4246C46.3384 50.4246 46.394 50.4191 46.4439 50.4191C46.4661 50.4191 46.4828 50.4191 46.4995 50.4191C46.5272 50.4191 46.5494 50.4191 46.5716 50.4191C46.5883 50.4191 46.6049 50.4191 46.6216 50.4191C46.6882 50.4191 46.7271 50.4135 46.7437 50.4135L46.9381 47.279L46.5494 46.6808L46.4995 46.6033L46.505 46.5147L46.5161 46.1603L46.5494 44.8699L46.9825 44.2441L47.0214 42.1673ZM51.9628 56.9762C51.9628 56.9762 53.2675 54.8994 53.2675 54.6114C53.2675 53.8416 47.1268 53.2103 47.1268 53.2103L41.1749 54.9492C44.5617 56.2064 49.4476 56.7325 51.9628 56.9762ZM47.1213 65.8538C43.1737 63.4834 39.698 61.2073 39.5814 61.1297C39.7314 61.1851 44.5617 63.0736 47.7542 64.0705C47.5155 63.4945 47.4655 63.201 47.2212 62.5253C46.2052 59.9224 46.1108 58.5711 46.1108 58.5711C42.9183 56.3504 26.0341 52.734 24.3907 52.9278C22.7473 53.1217 20.6152 54.7111 20.4709 55.9184C20.2765 57.7515 20.9589 58.4458 22.3137 57.9141C23.2298 57.5763 24.0248 58.9519 25.6682 59.1014C24.9909 58.2818 25.1125 58.3773 25.1125 58.3773C27.8219 58.6653 30.3438 60.7421 31.2655 61.1297C33.5863 62.1432 42.3353 67.3047 46.9769 68.8942C41.4636 65.9977 32.4191 60.1661 32.4191 60.1661C32.4191 60.1661 40.4476 63.3893 47.1213 65.8538ZM39.0762 72.2226L39.3372 72.0232H39.3316L36.239 71.929L35.223 69.0326L34.2069 71.929L31.1088 72.0232L33.574 73.9061L32.7079 76.8469L35.273 75.1079L37.8381 76.8469L36.8775 73.9228L36.872 73.9061L39.0429 72.2503L39.0762 72.2226ZM22.7417 69.7083C27.9163 68.1631 34.0126 65.8981 34.0126 65.8981C31.9805 64.1646 28.205 62.2817 27.8219 62.0878C27.4833 61.894 23.6634 61.894 23.6634 61.894C23.1304 63.0515 21.437 65.7541 20.4709 67.2992C21.1982 68.1188 21.97 68.9385 22.7417 69.7083ZM20.1322 66.9115L21.0983 63.4391C20.6652 63.9209 20.0323 64.8846 19.4049 66.042C19.6492 66.3356 19.8879 66.6236 20.1322 66.9115ZM15.585 60.7864C16.551 60.3544 17.6171 59.9169 18.8274 59.6289L18.6831 58.2776C18.6831 58.2776 16.7454 58.8093 14.9076 59.6788C15.1019 60.0609 15.3407 60.3987 15.585 60.7864ZM14.8576 59.6289C15.0964 59.2911 16.1624 57.8457 18.1445 56.7823L14.5634 57.17L13.403 57.1202C13.8916 57.9897 14.3746 58.8093 14.8576 59.6289ZM17.5504 53.2601C17.556 53.2601 17.556 53.2657 17.5615 53.2657L11.5763 53.5038H11.5707C11.8595 54.0853 12.1537 54.7111 12.4424 55.2871L18.7775 55.0489C18.7775 55.0489 18.7775 55.0489 18.7775 55.0434C18.7775 55.0434 18.7775 55.0378 18.7775 55.0212C18.7775 55.0157 18.7775 55.0046 18.7775 54.9935C18.7775 54.9603 18.7775 54.9105 18.7719 54.8496C18.7719 54.8385 18.7719 54.8274 18.7719 54.8108C18.7719 54.7942 18.7719 54.7831 18.7719 54.7665C18.7719 54.7277 18.7664 54.6834 18.7664 54.6391C18.7664 54.628 18.7664 54.6114 18.7664 54.6003C18.7664 54.5782 18.7664 54.5505 18.7608 54.5283C18.7608 54.5228 18.7608 54.5173 18.7608 54.5117C18.7608 54.4951 18.7608 54.4785 18.7608 54.4563C18.7608 54.3733 18.7553 54.2791 18.7497 54.1794C18.7497 54.1573 18.7497 54.1351 18.7497 54.1074C18.7497 54.0631 18.7441 54.0188 18.7441 53.9801C18.7441 53.9302 18.7386 53.8748 18.7386 53.8195C18.733 53.6201 18.7219 53.4041 18.7108 53.177C18.7108 53.1549 18.7108 53.1327 18.7053 53.1161C18.6997 52.9888 18.6942 52.8614 18.6831 52.7229C18.6831 52.7008 18.6775 52.6731 18.6775 52.6509C18.6775 52.6288 18.6775 52.6122 18.672 52.59C18.672 52.5679 18.672 52.5402 18.6664 52.518C18.6553 52.2688 18.6387 52.014 18.622 51.7537C18.6164 51.7094 18.6164 51.6596 18.6109 51.6153C18.6053 51.571 18.6053 51.5211 18.5998 51.4768C18.5831 51.2055 18.5609 50.9341 18.5387 50.6683C18.5332 50.6351 18.5332 50.6018 18.5276 50.5686C18.5276 50.552 18.5276 50.5354 18.5221 50.5243C18.5165 50.4966 18.5165 50.4634 18.5165 50.4357C18.5165 50.4135 18.511 50.3914 18.511 50.3692C18.4999 50.2806 18.4943 50.192 18.4832 50.1034C18.4832 50.1034 18.4832 50.1034 18.4832 50.0979C18.4166 49.4001 18.3333 48.7909 18.2389 48.3977C18.0779 47.7608 17.6004 47.1516 16.9619 46.5645C16.4789 46.1215 15.9014 45.6951 15.3074 45.2853C15.2907 45.2742 15.274 45.2631 15.2574 45.252C14.7521 44.9031 14.2302 44.5708 13.7416 44.2496C13.7416 44.2496 13.5473 44.6539 13.3141 45.252C13.3086 45.2631 13.303 45.2742 13.2975 45.2853C13.1198 45.7394 12.9255 46.2987 12.7811 46.8636C12.659 47.3233 12.5757 47.794 12.5535 48.2149C12.5479 48.3811 12.5479 48.5417 12.5646 48.6856C12.5701 48.7189 12.5701 48.7521 12.5757 48.7853C12.5812 48.8296 12.5868 48.8795 12.5923 48.9238C12.5923 48.9459 12.5979 48.9681 12.5979 48.9902C12.6034 49.1065 12.6034 49.2228 12.5923 49.3336C12.4924 50.5409 11.4597 51.283 11.3709 51.3439C11.3653 51.3439 11.3653 51.3495 11.3653 51.3495C11.3653 51.3495 15.4739 52.0639 17.5504 53.2601Z" fill="#354692"/>
<path fill-rule="evenodd" clip-rule="evenodd" d="M41.501 13.9167C41.0809 13.3832 40.3118 11.8014 39.8802 11.2115C38.5337 9.37133 36.719 9.23535 35.0804 9.23535C33.1897 9.23535 30.701 11.3257 29.8048 13.074C29.5107 13.3613 29.5764 13.7525 29.3243 14.0398C30.5427 14.1218 33.6777 13.9167 34.4922 14.4224C34.4922 14.4224 35.2064 15.0656 35.2905 15.64C35.3745 16.2145 35.3325 18.2661 35.0804 18.8405C34.8283 19.415 33.4838 19.7022 33.5258 20.6049C33.5258 20.6049 33.988 20.4818 34.4922 20.769C34.9123 21.0152 34.7863 21.2204 35.3745 21.2614C35.9627 21.3025 36.2988 20.5639 36.887 20.769C37.4753 20.9742 36.887 21.7948 36.0467 21.6717C35.2064 21.5486 35.6266 22.041 34.8703 22.0821C33.3157 22.1641 32.3494 23.5592 34.4922 23.1079C34.6182 23.0668 34.9543 22.8617 35.2064 22.8617C35.4585 22.8617 35.7106 23.1079 35.8367 23.1079C36.1728 23.1079 36.7919 23.1592 37.2961 23.2002C37.7852 23.2002 37.8511 23.2179 38.0877 23.1437L38.3703 23.0683L38.6547 22.9552C38.6547 22.9552 39.2838 22.4906 39.6032 22.5783C39.6032 22.5783 39.545 23.1584 39.3187 23.4673C39.2139 23.7115 38.7246 23.9905 38.6547 24.0254C38.2766 24.1485 37.6853 24.2568 37.2652 24.2568C36.2568 24.2568 35.7526 24.2978 35.2485 24.2978C34.7443 24.2978 33.5258 24.0516 33.3157 24.7492C33.1057 25.4467 34.4081 25.1192 35.0804 25.1602C35.7106 25.2012 36.2568 25.4877 36.1308 26.1032C36.1308 26.1032 33.1897 25.857 32.5595 26.5546C31.9292 27.2521 32.6775 28.2244 35.2533 28.3844C37.8292 28.5445 38.587 28.1261 38.6937 28.0317C40.0382 26.8418 39.8557 25.8433 40.9718 24.7492C40.9718 24.7492 42.265 23.5182 42.3911 22.9027C42.5591 22.2462 42.7692 21.5486 42.8532 20.8921L43.2123 19.5288C43.2964 18.2978 43.1053 15.681 42.8953 15.5169C42.5171 15.1887 42.3194 14.7917 41.9833 14.4224C41.4371 14.3814 40.7105 14.6963 40.7105 14.6963C40.7105 14.6963 41.7188 14.9425 42.139 15.8041C41.0466 16.1324 40.8785 16.9941 39.45 17.0761C38.0215 17.1172 36.9711 15.9822 36.9711 15.5169C36.9711 15.5169 36.9946 14.0599 39.1559 13.9167C40.0802 14.0398 41.1229 13.9167 41.501 13.9167ZM31.0049 17.3223C31.341 17.2813 32.4334 17.3223 32.6855 17.7737C32.9376 18.225 31.8452 20.2356 31.257 20.1946C30.7528 20.1946 30.2066 19.3739 29.7024 18.7174C29.2403 18.0199 29.3663 17.5685 31.0049 17.3223Z" fill="white"/>
</svg>
