<svg width="488" height="374" viewBox="0 0 488 374" fill="none" xmlns="http://www.w3.org/2000/svg">
<path d="M29.2856 334.612H36.9324V372.358H29.5412V347.884L18.9194 365.409H18.0594L7.43761 347.93V372.358H0V334.612H7.64679L18.4778 352.462L29.2856 334.612ZM76.3284 372.358H68.24L65.9855 365.571H50.9476L48.6931 372.358H40.6512L53.8529 334.612H63.057L76.3284 372.358ZM58.4782 343.189L53.2951 358.598H63.638L58.4782 343.189ZM92.0404 373.125C88.3448 373.125 85.2071 372.288 82.6504 370.638C80.0937 368.988 78.2808 366.71 77.2117 363.782L83.5801 360.063C85.0444 363.921 87.9497 365.827 92.2728 365.827C94.2949 365.827 95.8057 365.455 96.8051 364.758C97.8045 364.037 98.3159 363.061 98.3159 361.852C98.3159 360.528 97.7116 359.505 96.5262 358.784C95.3408 358.017 93.2258 357.227 90.1577 356.367C86.8573 355.368 84.2541 354.182 82.3483 352.858C79.9775 351.091 78.7921 348.511 78.7921 345.095C78.7921 341.655 80.0008 338.935 82.3947 336.96C84.812 334.914 87.7405 333.892 91.1804 333.892C94.2019 333.892 96.8748 334.635 99.2223 336.1C101.57 337.564 103.383 339.656 104.661 342.352L98.4088 345.955C96.8981 342.724 94.4808 341.097 91.1804 341.097C89.6696 341.097 88.461 341.469 87.5778 342.166C86.6714 342.84 86.2298 343.747 86.2298 344.862C86.2298 346.048 86.7178 347.024 87.694 347.767C88.7632 348.534 90.6691 349.325 93.4117 350.138L95.9916 350.998C96.4565 351.138 97.27 351.44 98.4088 351.905C99.478 352.3 100.268 352.672 100.78 353.044C102.546 354.113 103.731 355.228 104.336 356.39C105.265 357.901 105.73 359.691 105.73 361.736C105.73 365.223 104.452 367.988 101.895 370.034C99.3618 372.102 96.0613 373.125 92.0404 373.125ZM106.404 334.612H134.179V341.724H123.999V372.358H116.561V341.724H106.428V334.612H106.404ZM145.777 356.786V365.246H161.675V372.358H138.339V334.612H161.419V341.724H145.777V349.766H160.071V356.786H145.777ZM195.679 372.358H187.637L180.037 359.249H174.365V372.358H166.928V334.612H182.035C185.522 334.612 188.497 335.844 190.937 338.285C193.378 340.725 194.61 343.677 194.61 347.117C194.61 349.464 193.936 351.626 192.611 353.648C191.286 355.623 189.52 357.111 187.335 358.134L195.679 372.358ZM182.035 341.585H174.389V352.741H182.035C183.43 352.741 184.639 352.207 185.638 351.114C186.637 349.999 187.149 348.674 187.149 347.117C187.149 345.559 186.637 344.258 185.638 343.189C184.639 342.12 183.43 341.585 182.035 341.585ZM245.883 372.358H237.794L235.516 365.571H220.479L218.224 372.358H210.182L223.384 334.612H232.611L245.883 372.358ZM228.032 343.189L222.849 358.598H233.192L228.032 343.189ZM249.555 334.612H263.64C267.243 334.612 270.287 335.844 272.797 338.285C275.284 340.725 276.516 343.723 276.516 347.279C276.516 350.836 275.284 353.834 272.797 356.274C270.287 358.715 267.219 359.947 263.64 359.947H257.016V372.358H249.578V334.612H249.555ZM256.993 352.997H263.617C265.197 352.997 266.522 352.462 267.545 351.37C268.591 350.254 269.102 348.883 269.102 347.279C269.102 345.629 268.591 344.258 267.545 343.189C266.499 342.12 265.197 341.562 263.617 341.562H256.993V352.997ZM281.351 334.612H295.436C299.038 334.612 302.083 335.844 304.593 338.285C307.08 340.725 308.312 343.723 308.312 347.279C308.312 350.836 307.08 353.834 304.593 356.274C302.083 358.715 299.015 359.947 295.436 359.947H288.812V372.358H281.374V334.612H281.351ZM288.812 352.997H295.436C297.016 352.997 298.318 352.462 299.364 351.37C300.41 350.254 300.921 348.883 300.921 347.279C300.921 345.629 300.41 344.258 299.364 343.189C298.318 342.12 297.016 341.562 295.436 341.562H288.812V352.997ZM320.607 334.612V365.246H334.994V372.358H313.147V334.612H320.607ZM339.225 372.358V334.612H346.662V372.358H339.225ZM386.012 372.358H377.923L375.646 365.571H360.608L358.33 372.358H350.288L363.49 334.612H372.717L386.012 372.358ZM368.162 343.189L362.978 358.598H373.345L368.162 343.189ZM411.509 357.646V334.612H418.946V372.358H413.275L397.098 349.278V372.358H389.661V334.612H395.332L411.509 357.646ZM443.862 373.125C438.215 373.125 433.52 371.242 429.777 367.454C426.082 363.712 424.223 359.063 424.223 353.485C424.223 347.884 426.082 343.212 429.777 339.516C433.52 335.751 438.215 333.845 443.862 333.845C447.279 333.845 450.417 334.659 453.299 336.262C456.204 337.843 458.482 340.004 460.086 342.724L453.671 346.443C452.741 344.746 451.393 343.444 449.673 342.515C447.953 341.539 446.001 341.05 443.839 341.05C440.167 341.05 437.215 342.213 434.937 344.514C432.706 346.838 431.59 349.836 431.59 353.462C431.59 357.064 432.706 360.016 434.937 362.364C437.215 364.665 440.167 365.827 443.839 365.827C446.001 365.827 447.93 365.362 449.673 364.432C451.44 363.456 452.764 362.155 453.671 360.504L460.086 364.223C458.459 366.966 456.204 369.127 453.299 370.754C450.417 372.335 447.279 373.125 443.862 373.125ZM472.102 356.786V365.246H488V372.358H464.641V334.612H487.721V341.724H472.079V349.766H486.373V356.786H472.102Z" fill="#DC2041"/>
<path d="M415.966 282.733H307.28C304.147 285.502 300.827 288.131 297.53 290.575H415.966V282.733ZM352.944 264.934H325.319C322.847 267.703 320.35 270.332 317.877 272.775H352.944V264.934ZM168.001 264.934H140.376V272.775H175.443C172.97 270.309 170.474 267.703 168.001 264.934ZM12.9904 300.556V308.397H224.075C219.271 305.954 214.655 303.325 210.015 300.556H12.9904ZM283.14 300.556C278.501 303.325 273.885 306.117 269.08 308.397H480.165V300.556H283.14ZM186.041 282.733H77.3544V290.575H195.791C192.494 288.131 189.173 285.525 186.041 282.733Z" fill="#DC2041"/>
<path d="M205.191 33.8272C205.726 29.7257 212.057 20.3586 216.636 15.2642C218.24 13.4801 219.567 11.6354 222.428 9.47201C226.616 6.30576 236.655 4.69786 242.021 4.16467C244.282 3.94001 244.611 3.9594 246.4 3.9594C248.189 3.9594 248.802 3.98467 250.614 4.16467C255.981 4.69786 266.259 6.34697 270.371 9.75118C271.995 11.0021 273.885 12.2592 275.535 14.1722C278.885 18.0556 283.421 24.5457 285.166 28.8026" stroke="white" stroke-width="7.6206"/>
<path d="M276.908 22.7533C274.039 16.8936 269.601 11.9449 264.087 8.45796C258.572 4.97096 252.199 3.08247 245.675 3.00264C239.151 2.92281 232.733 4.65479 227.135 8.00583C221.537 11.3568 216.979 16.1955 213.968 21.9831L223.575 26.9815C225.661 22.9716 228.819 19.6192 232.697 17.2975C236.576 14.9758 241.023 13.7759 245.543 13.8312C250.062 13.8865 254.478 15.1949 258.299 17.6108C262.119 20.0267 265.194 23.4553 267.182 27.5151L276.908 22.7533Z" fill="white"/>
<path d="M170.458 247.873L170.455 247.87L170.453 247.867C153.919 225.239 140.315 197.248 130.257 164.596L130.254 164.587L130.251 164.579C121.613 136.892 116.954 110.973 114.458 91.7092C113.21 82.0827 112.505 74.1331 112.112 68.4745C111.915 65.6454 111.797 63.3914 111.728 61.7898C111.693 60.9883 111.671 60.3527 111.658 59.8913C111.651 59.6606 111.646 59.4759 111.644 59.3382C111.642 59.2696 111.641 59.2145 111.641 59.1732L111.641 59.1238V59.1099V59.1051V58.9862L111.635 58.8672L111.62 58.565L246.196 16.9595L381.809 58.5732L381.796 58.8399C381.781 59.0898 381.761 59.4927 381.734 60.0409C381.309 68.6923 379.104 113.534 363.179 164.577C352.914 197.087 339.499 225.084 322.966 247.882C302.161 276.442 276.591 296.641 247.04 308.321L246.715 308.439L246.377 308.317C216.853 296.841 191.279 276.458 170.458 247.873Z" fill="#354692" stroke="white" stroke-width="10.1246"/>
<path d="M149.07 178.449L153.254 165.137C153.838 163.276 154.685 161.508 155.767 159.885L156.855 158.253C156.884 158.209 156.917 158.169 156.954 158.131C157.196 157.889 157.256 157.52 157.103 157.215L156.239 155.487C155.54 154.09 155.861 152.398 157.022 151.353L159.207 149.386C159.51 149.114 159.833 148.868 160.176 148.65L164.726 145.754L171.729 140.752C173.497 139.489 175.449 138.507 177.517 137.84L186.965 134.792C188.026 134.45 188.837 133.584 189.107 132.502C189.404 131.311 190.351 130.392 191.55 130.13L201.448 127.964C203.312 127.557 204.979 126.522 206.17 125.032L211.146 117.759C211.819 116.777 212.407 115.739 212.907 114.658L214.341 111.55C214.722 110.725 215.282 109.995 215.98 109.413L217.481 108.162C217.611 108.053 217.775 107.994 217.945 107.994C218.318 107.994 218.631 107.71 218.666 107.338L219.277 100.927C219.437 99.238 219.043 97.5419 218.154 96.0961L216.785 93.8714C216.158 92.8521 215.65 91.7638 215.271 90.6284L214.196 87.4021C213.452 85.1698 212.883 82.8827 212.497 80.5616L211.696 75.7601L209.235 62.3979C208.728 59.6461 208.473 56.8535 208.473 54.0555V42.0693C208.473 39.0617 208.857 36.0665 209.616 33.1563C210.687 29.0512 212.489 25.1727 214.936 21.7067L214.992 21.6264C216.17 19.9585 217.488 18.3942 218.931 16.9505L220.416 15.4654C222.266 13.616 224.401 12.0768 226.74 10.9071C228.675 9.93985 230.73 9.23478 232.851 8.81061L238.865 7.60779L243.768 7.11752C246.632 6.83107 249.518 6.82426 252.384 7.09719L252.984 7.15432C256.146 7.4555 259.261 8.13831 262.259 9.18778L264.037 9.80981C265.974 10.488 267.819 11.4074 269.527 12.5462C271.486 13.8519 273.246 15.4335 274.753 17.2419L275.541 18.187C276.569 19.4213 277.506 20.7291 278.344 22.1001L279.391 23.814C281.221 26.8085 282.605 30.0538 283.498 33.4476C284.133 35.862 284.516 38.3358 284.641 40.8293L285.117 50.3443C285.288 53.7697 285.076 57.2036 284.484 60.5819L282.151 73.9182L281.027 80.0968C280.55 82.7244 279.799 85.2945 278.788 87.7662L276.652 92.9869C276.33 93.7755 275.869 94.4998 275.291 95.1258L271.353 99.3915C270.954 99.8241 270.967 100.495 271.384 100.911C271.499 101.027 271.588 101.167 271.642 101.321L273.703 107.161C274.092 108.261 274.989 109.105 276.111 109.426C277.03 109.689 277.806 110.305 278.271 111.14L282.151 118.124L287.061 125.08C287.47 125.66 287.949 126.187 288.488 126.648L290.321 128.219C290.695 128.54 291.171 128.716 291.663 128.716C291.768 128.716 291.873 128.724 291.977 128.74L299.242 129.858C302.2 130.312 304.934 131.699 307.05 133.814C308.544 135.308 310.355 136.446 312.349 137.144L315.783 138.346C317.605 138.984 319.33 139.871 320.908 140.983L336.11 151.694C337.569 152.722 337.874 154.761 336.777 156.171L336.126 157.008C335.785 157.447 335.726 158.043 335.975 158.541C336.01 158.612 336.051 158.68 336.098 158.744L337.239 160.314C338.876 162.564 340.124 165.073 340.93 167.736L344.316 178.909" stroke="white" stroke-width="5.52583"/>
<path d="M212.107 25.9738L217.271 18.3672L257.188 10.0627L275.263 18.2277C275.263 18.2277 278.959 22.8386 280.706 26.1832C282.283 29.2028 283.637 34.3481 283.637 34.3481L284.474 41.3964L284.893 54.7256L284.614 57.3772C284.614 57.3772 284.405 58.0051 284.195 59.471C284.153 59.7674 283.777 59.471 283.777 59.471L282.87 59.401L281.055 58.8426L277.357 57.3077L274.147 54.9348L271.285 51.5852L269.75 49.1428L268.354 46.9095L266.68 43.6295L262.911 40.0007L258.933 37.7676L253.211 35.4647L244.557 34.697L230.391 41.3267L220.412 53.9577L215.248 57.6564L211.898 58.1447C211.898 58.1447 208.513 58.4368 208.478 58.2843C207.711 54.8652 207.99 54.0277 207.99 54.0277L208.408 48.724L208.688 38.8143L208.827 37.7676L208.967 36.9302L209.106 36.1625L209.455 34.697L209.944 32.8826L210.502 31.2775C210.502 31.2775 210.698 29.6374 210.991 28.6257C211.309 27.522 212.107 25.9738 212.107 25.9738Z" fill="white"/>
<path d="M212.107 25.9738L217.271 18.3672L257.188 10.0627L275.263 18.2277C275.263 18.2277 278.959 22.8386 280.706 26.1832C282.283 29.2028 283.637 34.3481 283.637 34.3481L284.474 41.3964L284.893 54.7256L284.614 57.3772C284.614 57.3772 284.405 58.0051 284.195 59.471C284.153 59.7674 283.777 59.471 283.777 59.471L282.87 59.401L281.055 58.8426L277.357 57.3077L274.147 54.9348L271.285 51.5852L269.75 49.1428L268.354 46.9095L266.68 43.6295L262.911 40.0007L258.933 37.7676L253.211 35.4647L244.557 34.697L230.391 41.3267L220.412 53.9577L215.248 57.6564L211.898 58.1447C211.898 58.1447 208.513 58.4368 208.478 58.2843C207.711 54.8652 207.99 54.0277 207.99 54.0277L208.408 48.724L208.688 38.8143L208.827 37.7676L208.967 36.9302L209.106 36.1625L209.455 34.697L209.944 32.8826L210.502 31.2775C210.502 31.2775 210.698 29.6374 210.991 28.6257C211.309 27.522 212.107 25.9738 212.107 25.9738Z" fill="white"/>
<path d="M200.585 199.038L215.337 200.294L249.183 207.413L274.934 215.019L287.914 220.532L293.776 242.166L262.512 230.372L291.333 248.237L236.761 227.371L293.008 260.659L261.674 249.074L208.847 220.532L211.638 222.975L199.984 220.532H193.773L190.842 218.927L188.497 210.483L200.585 199.038Z" fill="white"/>
<path d="M289.939 200.375L300.895 201.352L314.154 205.12L308.572 215.518L290.567 213.355L273.609 209.866L267.677 207.353L289.939 200.375Z" fill="white"/>
<path d="M202.567 232.393L218.757 233.021L243.391 247.885L226.991 253.747L200.054 263.099L186.795 247.885L193.355 238.604L202.567 232.393Z" fill="white"/>
<path d="M246.401 259.47L250.169 270.217L261.754 270.566L252.616 277.727L256.08 288.641L246.605 282.215L237.027 288.641L240.19 277.614L230.978 270.566L242.529 270.282L246.401 259.47Z" fill="white"/>
<path d="M284.578 58.3401L282.973 68.3892L281.368 78.4382" fill="#354692"/>
<path d="M181.008 201.144L158.861 202.029C159.927 204.19 161.014 206.515 162.08 208.655L185.478 207.77C185.478 207.77 184.945 188.941 183.51 183.035C182.915 180.668 181.151 178.405 178.793 176.223C177.009 174.577 174.876 172.992 172.682 171.469C172.62 171.428 172.559 171.387 172.498 171.346C170.632 170.05 168.704 168.815 166.899 167.621C166.899 167.621 166.181 169.123 165.32 171.346C165.3 171.387 165.279 171.428 165.259 171.469C164.603 173.157 163.885 175.235 163.352 177.334C162.696 179.866 162.306 182.458 162.593 184.475C163.495 190.381 158.122 193.982 158.122 193.982C158.122 193.982 173.318 196.678 181.008 201.144Z" fill="white"/>
<path d="M224.041 133.114C224.756 136.312 220.833 140.753 221.365 142.158L227.248 135.762L243.263 145.702C243.141 145.539 234.704 134.5 231.517 132.035C230.619 131.322 225.634 123.521 225.634 123.521C225.634 123.521 224 118.022 220.875 115.578C219.873 114.804 218.729 114.335 217.443 114.457C217.443 114.457 219.138 118.327 220.875 123.053C222.1 126.332 223.326 129.998 224.041 133.114Z" fill="white"/>
<path d="M266.709 136.765C266.709 136.765 277.744 140.332 285.754 152.836L288.063 137.667L287.471 135.945L287.328 135.515L286.654 133.567C286.654 133.567 276.334 115.712 274.904 116.43C274.904 116.43 271 130.102 267.629 135.535C267.527 135.679 267.445 135.822 267.342 135.965C267.118 136.252 266.913 136.519 266.709 136.765Z" fill="white"/>
<path d="M217.302 190.077C217.302 190.077 237.406 190.96 251.227 191.331C256.789 191.515 289.087 190.611 289.087 190.611L289.808 178.978L288.366 176.758L288.18 176.47L288.201 176.142L288.242 174.827L288.366 170.038L289.972 167.715L290.158 160.008C290.158 160.008 287.645 160.193 284.782 158.939C283.525 158.405 277.243 154.458 271.496 152.136C267.459 157.439 263.607 165.516 261.135 171.209C259.446 175.114 258.395 177.909 258.395 177.909C258.107 171.517 260.023 161.817 261.712 154.911L262.732 150.95L261.712 152.259C253.926 162.268 249.95 182.493 249.435 185.247V185.781C235.964 187.405 217.302 190.077 217.302 190.077Z" fill="white"/>
<path d="M243.403 174.877L241.918 151.295L232.516 148.219L243.403 174.877Z" fill="white"/>
<path d="M303.698 130.856L306.053 181.311C308.542 163.856 310.291 152.826 309 136.09H309.002L306.79 134.573L303.698 130.856Z" fill="white"/>
<path d="M202.091 128.566V128.607L203.445 140.204L204.348 155.344L204.393 155.138L204.416 155.076L204.935 152.996L204.957 152.913L205.251 151.739L206.04 148.134L206.605 144.323L206.718 143.335L206.74 143.294L206.943 141.605V141.563L207.056 140.616L207.394 136.908V133.097L207.169 129.184L206.718 127.227L206.153 125.476L202.091 128.566Z" fill="white"/>
<path d="M249.124 129.231V130.757L251.598 129.74L253.351 128.723L254.589 128.011L256.857 126.485L258.919 124.858L259.744 124.146L260.775 123.23L262.012 122.111L263.353 120.789L264.322 119.731L264.383 119.67L263.6 120.952L263.559 121.013L263.456 121.196L263.311 121.46L260.362 126.485L258.713 129.13L257.476 131.164L255.826 133.808L253.764 137.064L252.135 139.505L252.011 139.708L253.145 138.894L253.764 138.386L255.413 136.962L257.166 135.233L258.507 133.808L260.156 131.673L262.837 128.112L265.312 124.247L266.961 121.603L268.405 118.958L269.848 116.517L271.085 113.872L272.014 112.042L271.766 110.72L270.116 105.43L269.848 104.616L268.879 102.582L267.023 105.227L265.27 107.77L263.146 110.618L260.981 112.448L260.259 113.018L258.713 113.872L255.826 114.686L253.764 114.89L251.598 115.093L252.114 119.772L252.217 120.688L252.114 121.603L251.66 123.149L251.598 123.332L251.454 123.596L250.464 125.366L250.155 125.997L249.66 126.953V126.973L249.433 127.401L249.227 128.316L249.124 129.231Z" fill="white"/>
<path d="M165.378 215.297H170.263L183.662 214.041L185.476 219.275L186.174 224.998L173.752 229.324L165.378 215.297Z" fill="white"/>
<path d="M206.688 33.3893L206.228 37.9942L205.767 44.441L126.931 69.1203C127.589 80.3585 130.241 114.503 141.137 153.057C142.021 156.194 142.967 159.352 143.954 162.531C144.879 165.402 145.866 168.375 146.894 171.411C146.915 171.451 146.915 171.493 146.935 171.533C147.593 173.461 148.292 175.43 149.012 177.378C149.115 177.665 149.217 177.952 149.32 178.239C149.382 177.952 149.464 177.665 149.526 177.378C149.69 176.66 149.875 175.943 150.06 175.225C150.101 175.061 150.143 174.876 150.184 174.712C150.451 173.646 150.739 172.58 151.027 171.533C151.027 171.493 151.047 171.451 151.068 171.411C151.89 168.478 152.774 165.627 153.802 162.9C153.802 162.9 153.802 162.9 153.802 162.879C153.823 162.797 153.864 162.715 153.905 162.633C154.028 162.367 154.213 162.1 154.419 161.813C154.604 161.567 154.789 161.321 154.994 161.075C155.406 160.583 155.858 160.07 156.269 159.578C156.845 158.881 157.338 158.225 157.544 157.691C157.894 156.974 154.501 154.123 155.755 152.687C159.333 148.401 163.095 146.617 164.534 145.9C164.76 145.777 165.089 145.571 165.459 145.325C165.932 145.018 166.467 144.649 167.084 144.238C167.351 144.054 167.618 143.869 167.885 143.685C168.153 143.5 168.42 143.316 168.708 143.111C168.79 143.049 168.852 143.008 168.934 142.947C171.668 141.019 174.567 138.906 174.567 138.906L178.802 137.512L181.228 136.712L183.408 135.994L184.723 135.564L188.568 134.292L189.822 130.355C189.822 130.355 198.416 128.038 201.109 128.038C201.602 128.038 201.993 128.12 202.261 128.284C202.384 128.366 202.486 128.448 202.548 128.571C202.733 128.386 202.733 128.222 202.898 128.038C202.713 128.571 202.548 128.92 202.548 128.92C202.548 128.92 202.816 131.729 203.145 135.543C203.165 135.687 203.165 135.83 203.186 135.974C203.741 142.455 204.44 151.498 204.337 154.8C204.337 154.8 204.337 154.8 204.337 154.779L204.358 154.697L204.378 154.636L204.398 154.574C204.481 154.226 204.645 153.549 204.851 152.565L204.871 152.482C205.344 150.329 206.002 146.884 206.475 142.967V142.905C206.537 142.352 206.599 141.798 206.66 141.224V141.183C206.825 139.481 206.948 137.737 207.01 135.974C207.01 135.83 207.03 135.687 207.03 135.543C207.092 133.041 206.989 130.519 206.66 128.202C206.475 126.766 206.126 125.884 205.941 125.167C206.475 124.633 207.38 123.567 208.983 121.065C210.957 117.846 213.28 114.462 214.534 111.591C215.603 109.089 218.112 108.022 218.112 108.022L218.831 108.207C219.016 104.824 219.366 101.071 219.715 98.1998L219.181 97.6664C215.789 93.1959 213.979 88.0279 212.725 82.1218C212.725 81.9376 212.725 81.9376 212.725 81.9376C212.725 81.9376 212.664 81.6709 212.56 81.2195C212.54 81.1375 212.52 81.0353 212.499 80.9327C212.355 80.3172 212.191 79.415 212.005 78.3693C212.005 78.1846 211.286 74.9445 211.286 74.7804C210.752 72.1144 210.813 71.9298 210.279 68.9769L208.531 58.1081C211.08 58.4568 215.3 56.4048 217.166 54.7859C221.278 51.2176 223.489 45.9966 227.302 41.7023C230.489 38.1135 236.451 33.807 243.646 32.8842C237.068 30.4233 225.657 38.7287 222.059 44.3682C219.016 47.4033 216.837 51.197 213.239 53.699C212.335 54.4166 209.847 55.5241 208.572 54.9907C208.387 54.8065 208.202 54.8065 208.038 54.6425C208.223 46.6034 208.305 39.0158 208.469 37.6009C209.004 33.4994 210.258 29.3775 212.232 25.8091C212.047 26.7115 212.047 27.7779 211.882 29.3775C210.813 41.3332 211.985 50.1715 211.985 50.1715C211.985 50.1715 212.89 47.6698 213.239 43.7325C213.959 36.9445 214.205 31.1616 215.46 22.9381C215.809 20.8054 216.899 18.6522 218.317 17.0526C219.921 15.2684 221.73 13.6484 223.519 12.2334C227.816 8.82915 236.779 7.57823 242.145 7.04503C244.407 6.8204 244.736 6.83978 246.525 6.83978C248.313 6.83978 248.927 6.86505 250.739 7.04503C256.105 7.57823 265.254 8.82915 269.366 12.2334C270.99 13.4843 272.779 15.2684 274.568 17.0526C276.007 18.8367 277.076 20.8054 277.425 22.9381C278.494 30.0747 278.782 34.2786 279.502 41.046C280.036 46.3984 281.106 50.1513 281.106 50.1513C281.106 50.1513 282.072 41.1486 281.003 29.3569C280.818 27.7574 280.653 26.6705 280.653 25.7887C282.627 29.3569 283.881 33.2943 284.415 37.5803C284.601 39.0158 284.868 46.5829 285.053 54.6219C284.703 54.9706 283.984 55.1548 283.449 54.9706L283.264 54.9293C283.059 54.8272 283.072 54.831 282.915 54.7859C282.757 54.7408 282.693 54.6957 282.545 54.6219C282.339 54.5192 282.339 54.5192 282.01 54.4166C281.825 54.2324 281.661 54.2324 281.475 54.0477C274.115 50.7255 269.366 41.7023 266.262 37.6009C262.561 34.0121 253.618 31.3461 249.609 32.8842C254.569 32.9732 264.925 38.8313 267.536 43.7325C270.033 48.4193 273.19 55.1346 280.735 57.4519C281.928 57.9848 283.264 58.3129 284.519 58.2309L282.904 68.29L281.29 78.3487C281.188 79.1895 281.085 80.0304 280.962 80.8914C280.941 80.9941 280.941 81.0761 280.92 81.1787C279.81 85.7519 278.474 89.0324 276.747 93.0721C276.706 93.1542 276.541 93.4822 276.541 93.4822L276.336 93.8928L275.924 94.5078C275.924 94.5078 275.924 94.6104 275.308 95.328C275.115 95.5525 274.485 96.1482 274.485 96.1482L273.56 97.1742C273.56 97.1742 271.627 99.0402 270.271 100.66C267.557 103.9 264.864 109.355 261.718 111.96C261.225 112.37 260.711 112.78 260.197 113.17C258.593 114.421 256.434 114.769 254.275 114.954C253.371 114.954 252.672 115.139 251.767 115.139C251.952 116.574 252.137 118.522 252.302 119.958C252.425 121.024 252.158 122.049 251.747 123.034C251.685 123.178 251.623 123.342 251.541 123.485C251.13 124.347 250.657 125.146 250.246 125.905C250.061 126.233 249.896 126.561 249.753 126.869V126.889C249.609 127.217 249.506 127.525 249.444 127.812C249.259 128.346 249.259 129.248 249.259 130.499C253.844 128.94 258.244 125.454 261.122 122.788C263.198 120.88 264.473 119.425 264.473 119.425C264.452 119.486 264.411 119.527 264.391 119.589C264.144 119.999 263.898 120.409 263.671 120.819L263.63 120.88C263.548 121.024 263.465 121.168 263.363 121.311C262.602 122.603 261.841 123.875 261.122 125.064C257.483 131.114 254.337 136.138 252.117 139.583C252.158 139.563 252.199 139.522 252.22 139.501C255.386 137.287 258.449 133.882 261.163 130.211C267.474 121.701 271.998 111.735 271.998 111.735C271.998 109.95 268.94 105.09 268.94 102.403L269.757 101.173L270.802 100.045C271.707 101.296 273.601 107.1 274.321 108.699H275.39C275.39 108.699 277.898 109.766 278.967 112.268C280.222 115.118 282.36 118.707 284.519 121.742C288.281 127.627 287.931 125.495 289.185 126.746C289.72 127.279 290.44 128.346 290.974 129.063C291.324 128.714 291.693 128.53 292.413 128.53C293.359 128.53 295.065 128.817 296.854 129.207C296.936 129.227 297.018 129.248 297.08 129.248C298.56 129.555 300.102 129.925 301.316 130.232C302.713 130.581 303.7 130.847 303.7 130.847L303.721 130.909L303.782 131.134L304.379 133.124L304.42 133.246L304.769 134.415C304.872 138.702 305.345 154.144 305.633 166.119C305.633 166.304 305.633 166.468 305.653 166.653C305.694 168.581 305.736 170.426 305.776 172.108C305.776 172.292 305.776 172.456 305.797 172.641C305.838 174.712 305.859 176.537 305.88 177.952C305.88 179.183 305.88 180.126 305.859 180.68C305.859 180.68 306.023 179.654 306.27 177.952C306.476 176.558 306.743 174.733 307.031 172.641C307.051 172.456 307.072 172.292 307.113 172.108C307.339 170.406 307.586 168.539 307.812 166.653C307.833 166.468 307.853 166.304 307.874 166.119C307.935 165.627 307.997 165.135 308.038 164.643C308.059 164.356 308.1 164.069 308.121 163.802C308.141 163.597 308.161 163.372 308.182 163.167C308.532 159.968 308.799 156.83 308.902 154.246C309.005 150.924 309.045 147.007 309.025 143.316V142.147C309.005 140.199 308.984 138.332 308.922 136.712C308.922 136.486 308.902 136.282 308.902 136.097V136.076C308.902 136.056 308.902 136.056 308.902 136.036L309.005 136.076L310.855 136.712L318.75 139.501C318.75 139.501 320.641 140.896 322.821 142.434C324.157 143.377 325.596 144.402 326.768 145.182C327.631 145.756 328.331 146.228 328.762 146.453C330.366 147.171 333.964 148.955 337.541 153.241C338.61 154.676 335.403 157.527 335.752 158.245C336.451 159.619 338.795 161.67 339.453 163.249C339.474 163.31 339.494 163.371 339.514 163.433C339.576 163.577 339.618 163.741 339.679 163.884C339.782 164.172 339.885 164.458 339.987 164.725C340.152 165.217 340.337 165.709 340.502 166.201C340.563 166.366 340.625 166.55 340.666 166.735C341.262 168.519 341.797 170.344 342.31 172.19C342.352 172.354 342.414 172.538 342.454 172.723C342.927 174.466 343.38 176.23 343.811 178.034C343.873 178.281 343.935 178.547 343.997 178.793C344.099 178.547 344.182 178.281 344.284 178.034C344.942 176.25 345.579 174.487 346.176 172.723C346.238 172.538 346.299 172.374 346.361 172.19C346.998 170.365 347.615 168.539 348.211 166.735C348.273 166.55 348.335 166.386 348.376 166.201C348.704 165.156 349.054 164.11 349.363 163.064C349.732 161.916 350.082 160.747 350.432 159.598C362.788 118.625 365.687 81.4656 366.386 69.6537L287.734 45.8225L286.353 33.3893L377.529 62.1685L377.344 66.1056C377.159 68.0746 376.09 113.621 359.786 165.955C350.103 196.675 337.397 223.294 321.628 245.073C301.747 272.409 277.199 291.87 248.725 303.128L246.751 303.846L244.777 303.128C216.302 292.055 191.755 272.409 171.874 245.073C156.105 223.458 143.214 196.839 133.715 165.955C117.412 113.621 116.158 68.0746 116.158 66.1056L115.973 62.1685L206.688 33.3893ZM217.372 114.319C217.372 114.319 219.078 118.215 220.826 122.972C222.039 126.254 223.272 129.945 223.991 133.082C224.711 136.302 220.764 140.773 221.299 142.188L221.319 142.167L227.22 135.748H227.24L243.338 145.756C243.338 145.756 243.338 145.735 243.317 145.735C242.906 145.161 234.682 134.457 231.537 132.016C230.632 131.298 225.616 123.444 225.616 123.444C225.616 123.444 223.971 117.907 220.826 115.446C219.818 114.667 218.667 114.195 217.372 114.319ZM238.342 155.948C240.131 159.332 243.359 174.528 243.359 174.528L241.755 151.129L236.389 149.693L232.113 148.114L232.071 148.094C232.071 148.094 232.092 148.114 232.113 148.135C232.606 148.627 236.656 152.769 238.342 155.948ZM265.398 17.5652C268.256 20.1286 270.23 23.2867 270.415 27.06C270.764 32.0228 271.854 32.4944 272.738 33.6839C273.087 33.9915 273.457 34.135 273.807 33.9915C274.177 33.8274 274.341 33.5404 274.341 33.2327C274.341 30.9769 273.807 28.8647 273.622 25.1119C273.272 19.8415 268.42 16.6833 265.748 14.7352C262.335 12.3358 252.487 11.8847 252.323 11.8847C252.405 11.8642 261.657 13.9764 265.398 17.5652ZM287.54 136.015L287.397 135.584L286.698 133.616C286.698 133.616 279.338 120.942 276.151 117.374C276.048 117.271 275.966 117.169 275.863 117.066C275.822 117.025 275.781 116.984 275.76 116.964C275.657 116.861 275.575 116.779 275.472 116.718C275.205 116.492 274.999 116.41 274.876 116.472C274.876 116.472 270.949 130.15 267.557 135.584C267.454 135.728 267.372 135.872 267.269 136.015C267.187 136.158 267.084 136.282 267.002 136.404C267.002 136.404 267.002 136.404 266.981 136.425C266.879 136.569 266.755 136.712 266.652 136.835C266.652 136.835 277.754 140.403 285.814 152.913L288.137 137.737L287.54 136.015ZM290.09 160.05C290.09 160.05 290.09 160.05 290.069 160.05C289.987 160.05 289.823 160.05 289.576 160.05C289.555 160.05 289.514 160.05 289.494 160.05C289.391 160.05 289.288 160.05 289.185 160.029C288.199 159.968 286.533 159.762 284.724 158.963C283.47 158.429 277.22 154.492 271.483 152.175C271.483 152.175 271.483 152.175 271.463 152.175C267.434 157.466 263.589 165.525 261.122 171.205C259.559 174.794 258.552 177.46 258.408 177.85C258.388 177.891 258.388 177.891 258.388 177.891C258.1 171.513 260.012 161.834 261.697 154.943C261.697 154.923 261.718 154.882 261.718 154.861C262.068 153.467 262.376 152.195 262.684 151.088C262.355 151.457 262.006 151.867 261.697 152.277C253.947 162.285 249.958 182.464 249.444 185.212V185.745C236.019 187.345 217.372 190.031 217.372 190.031C217.372 190.031 217.372 190.031 217.392 190.031C217.392 190.031 217.413 190.031 217.454 190.031C217.474 190.031 217.474 190.031 217.495 190.031C217.597 190.031 217.762 190.052 217.988 190.052C218.03 190.052 218.07 190.052 218.112 190.052C218.194 190.052 218.276 190.052 218.379 190.072H218.502H218.523C218.585 190.072 218.646 190.072 218.708 190.072C218.77 190.072 218.831 190.072 218.893 190.072C218.914 190.072 218.914 190.072 218.934 190.072C219.058 190.072 219.181 190.093 219.304 190.093C219.407 190.093 219.53 190.093 219.654 190.113C219.756 190.113 219.88 190.113 220.003 190.134C220.106 190.134 220.229 190.134 220.332 190.154C220.538 190.175 220.764 190.175 221.01 190.175C221.298 190.195 221.607 190.195 221.936 190.216C222.039 190.216 222.141 190.216 222.244 190.236C222.327 190.236 222.429 190.236 222.532 190.257C222.676 190.257 222.799 190.277 222.943 190.277C223.025 190.277 223.107 190.277 223.211 190.277C223.334 190.277 223.457 190.298 223.58 190.298C223.642 190.298 223.724 190.298 223.807 190.298C223.93 190.298 224.033 190.318 224.156 190.318C225.081 190.359 226.089 190.4 227.158 190.441C227.425 190.462 227.672 190.462 227.939 190.482C228.206 190.503 228.473 190.503 228.741 190.503C229.008 190.523 229.275 190.523 229.543 190.544C229.645 190.544 229.728 190.544 229.83 190.564C230.016 190.564 230.201 190.585 230.385 190.585C230.632 190.605 230.879 190.605 231.126 190.605C231.167 190.605 231.208 190.605 231.229 190.605C231.413 190.605 231.599 190.626 231.784 190.626C233.408 190.687 235.114 190.749 236.862 190.81C237.479 190.831 238.075 190.851 238.691 190.872C238.938 190.872 239.206 190.892 239.473 190.892C239.719 190.892 239.946 190.913 240.192 190.913C241.138 190.954 242.104 190.974 243.05 191.015C243.441 191.036 243.852 191.036 244.243 191.057C245.496 191.097 246.751 191.139 247.964 191.179C248.314 191.2 248.663 191.2 249.012 191.2C249.403 191.221 249.794 191.221 250.164 191.241C250.534 191.261 250.924 191.261 251.294 191.282C252.199 191.323 253.844 191.323 255.941 191.303C256.085 191.303 256.229 191.303 256.372 191.303C256.599 191.303 256.845 191.303 257.092 191.303C257.216 191.303 257.36 191.303 257.483 191.303H257.627C257.729 191.303 257.832 191.303 257.935 191.303C258.202 191.303 258.47 191.303 258.737 191.282C258.881 191.282 259.045 191.282 259.189 191.282C259.354 191.282 259.539 191.282 259.724 191.282C260.69 191.261 261.677 191.241 262.725 191.221H263.075C263.26 191.221 263.445 191.221 263.61 191.2C263.774 191.2 263.959 191.2 264.123 191.179C264.494 191.179 264.864 191.159 265.234 191.159C265.398 191.159 265.583 191.159 265.748 191.139C265.809 191.139 265.85 191.139 265.912 191.139C266.118 191.139 266.303 191.139 266.508 191.118C266.899 191.118 267.31 191.097 267.721 191.097C267.927 191.097 268.153 191.097 268.379 191.077L270.003 191.036C270.332 191.036 270.661 191.015 270.99 191.015C271.381 191.015 271.751 190.995 272.142 190.995C272.388 190.995 272.615 190.974 272.861 190.974C273.231 190.974 273.622 190.954 273.992 190.954C274.712 190.933 275.431 190.913 276.13 190.892C277.076 190.872 278.021 190.851 278.906 190.831C279.625 190.81 280.345 190.79 281.023 190.769C281.064 190.769 281.126 190.769 281.167 190.769C281.27 190.769 281.373 190.769 281.475 190.769C281.743 190.769 281.99 190.749 282.236 190.749C282.38 190.749 282.524 190.749 282.647 190.749C282.935 190.749 283.223 190.728 283.491 190.728C283.634 190.728 283.758 190.728 283.881 190.708C284.847 190.687 285.732 190.667 286.451 190.646C286.533 190.646 286.616 190.646 286.718 190.646C286.862 190.646 287.006 190.646 287.129 190.626C287.191 190.626 287.273 190.626 287.335 190.626C287.561 190.626 287.767 190.605 287.952 190.605C288.034 190.605 288.096 190.605 288.157 190.605C288.26 190.605 288.342 190.605 288.424 190.605C288.486 190.605 288.548 190.605 288.61 190.605C288.856 190.605 289 190.585 289.062 190.585L289.781 178.977L288.342 176.763L288.157 176.476L288.178 176.148L288.219 174.835L288.342 170.057L289.946 167.74L290.09 160.05ZM308.388 214.886C308.388 214.886 313.219 207.195 313.219 206.129C313.219 203.279 290.481 200.941 290.481 200.941L268.441 207.38C280.982 212.035 299.075 213.984 308.388 214.886ZM290.46 247.759C275.842 238.982 262.972 230.553 262.541 230.266C263.096 230.471 280.982 237.464 292.804 241.156C291.92 239.023 291.735 237.936 290.83 235.434C287.068 225.796 286.718 220.792 286.718 220.792C274.897 212.569 212.376 199.177 206.29 199.895C200.205 200.613 192.31 206.498 191.775 210.969C191.055 217.757 193.582 220.328 198.599 218.359C201.991 217.108 204.935 222.202 211.021 222.755C208.513 219.721 208.963 220.074 208.963 220.074C218.996 221.14 228.334 228.831 231.747 230.266C240.341 234.019 272.738 253.132 289.925 259.017C269.51 248.292 236.019 226.698 236.019 226.698C236.019 226.698 265.748 238.633 290.46 247.759ZM260.669 271.343L261.636 270.604H261.615L250.164 270.256L246.401 259.53L242.639 270.256L231.167 270.604L240.295 277.576L237.088 288.466L246.586 282.027L256.085 288.466L252.528 277.638L252.507 277.576L260.546 271.445L260.669 271.343ZM200.184 262.032C219.345 256.311 241.92 247.923 241.92 247.923C234.395 241.504 220.414 234.532 218.996 233.814C217.741 233.096 203.597 233.096 203.597 233.096C201.623 237.382 195.352 247.39 191.775 253.111C194.468 256.147 197.326 259.181 200.184 262.032ZM190.521 251.676L194.098 238.818C192.495 240.602 190.151 244.17 187.828 248.456C188.732 249.543 189.616 250.609 190.521 251.676ZM173.683 228.995C177.26 227.395 181.208 225.775 185.689 224.709L185.155 219.705C185.155 219.705 177.98 221.674 171.175 224.893C171.894 226.308 172.778 227.559 173.683 228.995ZM170.989 224.709C171.873 223.458 175.821 218.106 183.161 214.168L169.9 215.604L165.603 215.419C167.412 218.639 169.201 221.674 170.989 224.709ZM180.961 201.126C180.981 201.126 180.981 201.146 181.002 201.146L158.839 202.028H158.818C159.888 204.181 160.977 206.498 162.047 208.631L185.505 207.749C185.505 207.749 185.505 207.749 185.505 207.729C185.505 207.729 185.505 207.708 185.505 207.647C185.505 207.626 185.505 207.585 185.505 207.544C185.505 207.421 185.505 207.237 185.484 207.011C185.484 206.97 185.484 206.929 185.484 206.867C185.484 206.806 185.484 206.765 185.484 206.703C185.484 206.56 185.463 206.396 185.463 206.232C185.463 206.191 185.463 206.129 185.463 206.088C185.463 206.006 185.463 205.904 185.443 205.822C185.443 205.801 185.443 205.781 185.443 205.76C185.443 205.699 185.443 205.637 185.443 205.555C185.443 205.248 185.422 204.899 185.402 204.53C185.402 204.448 185.402 204.366 185.402 204.263C185.402 204.099 185.381 203.935 185.381 203.791C185.381 203.607 185.361 203.402 185.361 203.197C185.34 202.459 185.299 201.659 185.258 200.818C185.258 200.736 185.258 200.654 185.237 200.592C185.217 200.121 185.196 199.649 185.155 199.137C185.155 199.054 185.134 198.952 185.134 198.87C185.134 198.788 185.134 198.726 185.114 198.644C185.114 198.562 185.114 198.46 185.093 198.378C185.052 197.455 184.991 196.511 184.929 195.548C184.909 195.384 184.909 195.199 184.888 195.035C184.867 194.871 184.867 194.686 184.847 194.522C184.785 193.517 184.703 192.512 184.621 191.528C184.6 191.405 184.6 191.282 184.579 191.159C184.579 191.097 184.579 191.036 184.559 190.995C184.538 190.892 184.538 190.769 184.538 190.667C184.538 190.585 184.518 190.503 184.518 190.421C184.477 190.093 184.456 189.764 184.415 189.436C184.415 189.436 184.415 189.436 184.415 189.416C184.168 186.832 183.86 184.576 183.51 183.12C182.914 180.762 181.146 178.506 178.782 176.332C176.993 174.692 174.855 173.113 172.655 171.595C172.593 171.554 172.532 171.513 172.47 171.472C170.599 170.18 168.666 168.95 166.857 167.76C166.857 167.76 166.138 169.257 165.274 171.472C165.254 171.513 165.233 171.554 165.212 171.595C164.555 173.277 163.835 175.348 163.3 177.44C162.848 179.142 162.54 180.885 162.458 182.444C162.437 183.059 162.437 183.653 162.499 184.187C162.519 184.309 162.519 184.433 162.54 184.556C162.56 184.72 162.581 184.904 162.601 185.068C162.601 185.15 162.622 185.232 162.622 185.314C162.643 185.745 162.643 186.176 162.601 186.586C162.231 191.057 158.407 193.805 158.078 194.03C158.058 194.03 158.058 194.051 158.058 194.051C158.058 194.051 173.272 196.696 180.961 201.126Z" fill="#354692"/>
<path fill-rule="evenodd" clip-rule="evenodd" d="M269.648 55.4315C268.092 53.4562 265.244 47.5985 263.646 45.4144C258.66 38.6002 251.94 38.0967 245.872 38.0967C238.871 38.0967 229.656 45.8372 226.337 52.3112C225.248 53.3747 225.491 54.8237 224.558 55.8872C229.07 56.1908 240.678 55.4315 243.694 57.3041C243.694 57.3041 246.339 59.6857 246.65 61.8125C246.961 63.9398 246.806 71.5368 245.872 73.6642C244.939 75.791 239.961 76.8549 240.116 80.1973C240.116 80.1973 241.827 79.7416 243.694 80.805C245.25 81.7169 244.783 82.4767 246.961 82.6282C249.139 82.7803 250.384 80.0457 252.562 80.805C254.741 81.5648 252.562 84.6035 249.451 84.1478C246.339 83.6921 247.895 85.5154 245.094 85.6674C239.338 85.9711 235.76 91.1371 243.694 89.4659C244.161 89.3139 245.406 88.5541 246.339 88.5541C247.273 88.5541 248.206 89.4659 248.673 89.4659C249.917 89.4659 252.21 89.6559 254.077 89.8079C255.888 89.8079 256.132 89.8732 257.008 89.5983L258.055 89.3191L259.108 88.9004C259.108 88.9004 261.437 87.1798 262.62 87.5046C262.62 87.5046 262.405 89.653 261.567 90.7965C261.178 91.7007 259.367 92.7344 259.108 92.8634C257.708 93.3191 255.519 93.7201 253.963 93.7201C250.229 93.7201 248.361 93.8722 246.495 93.8722C244.628 93.8722 240.116 92.9603 239.338 95.5433C238.56 98.1263 243.383 96.9133 245.872 97.0653C248.206 97.2174 250.229 98.2784 249.762 100.557C249.762 100.557 238.871 99.6459 236.538 102.229C234.204 104.811 236.975 108.412 246.513 109.005C256.051 109.597 258.857 108.048 259.252 107.699C264.231 103.292 263.555 99.5951 267.688 95.5433C267.688 95.5433 272.477 90.985 272.944 88.7061C273.566 86.2752 274.344 83.6921 274.654 81.2612L275.985 76.2127C276.295 71.6544 275.588 61.9646 274.81 61.3568C273.41 60.1414 272.678 58.6716 271.433 57.3041C269.411 57.1521 266.72 58.3181 266.72 58.3181C266.72 58.3181 270.454 59.23 272.01 62.4203C267.965 63.6362 267.342 66.827 262.053 67.1306C256.763 67.2827 252.874 63.0798 252.874 61.3568C252.874 61.3568 252.961 55.962 260.964 55.4315C264.386 55.8872 268.247 55.4315 269.648 55.4315ZM230.781 68.0425C232.026 67.8904 236.071 68.0425 237.004 69.7136C237.938 71.3848 233.893 78.8302 231.715 78.6782C229.848 78.6782 227.825 75.6395 225.958 73.208C224.247 70.625 224.713 68.9538 230.781 68.0425Z" fill="white"/>
<path d="M167.831 202.074C167.866 202.028 167.902 201.985 167.939 201.943C167.709 201.678 167.467 201.372 167.154 200.966C166.279 199.948 166.15 198.695 166.223 197.724C166.298 196.723 166.605 195.75 166.891 195.014L166.912 194.96L166.937 194.907C167.169 194.41 167.517 193.98 167.984 193.67C167.754 193.392 167.54 193.092 167.366 192.771C167.103 192.283 166.881 191.651 166.932 190.935C166.932 190.904 166.933 190.865 166.934 190.818C166.938 190.706 166.943 190.549 166.954 190.36C166.974 189.984 167.014 189.466 167.092 188.916C167.168 188.377 167.29 187.743 167.493 187.163C167.668 186.662 168.024 185.835 168.793 185.337C168.979 185.217 169.166 185.112 169.355 185.024C169.093 184.711 168.847 184.363 168.657 183.983C168.428 183.526 168.236 182.929 168.295 182.258C168.335 180.636 169.328 177.947 172.537 175.706L172.538 175.705C173.779 174.839 175.264 174.768 176.528 174.892C177.811 175.017 179.205 175.381 180.473 175.721L180.508 175.73L180.544 175.741C180.857 175.839 181.097 175.913 181.33 175.959L181.582 176.008L181.81 176.129C183.312 176.93 184.992 177.474 186.33 177.818C186.992 177.988 187.555 178.106 187.949 178.18C188.145 178.218 188.299 178.244 188.4 178.26C188.411 178.262 188.422 178.264 188.431 178.265H191.586C191.584 178.256 191.581 178.246 191.578 178.235C191.511 178.005 191.433 177.73 191.357 177.424C191.045 176.181 190.758 174.425 191.112 172.258C191.152 172.011 191.192 171.752 191.233 171.483C191.664 168.667 192.267 164.733 195.226 161.874L195.233 161.867L195.24 161.861C195.977 161.164 196.822 160.608 197.808 160.348C198.176 160.234 198.532 160.206 198.699 160.192C198.712 160.191 198.724 160.19 198.734 160.189L198.822 160.182L198.91 160.184C199.901 160.202 200.748 160.394 201.391 160.88C202.016 161.352 202.367 162.218 202.174 161.867L202.311 162.118L202.361 162.399L200.663 162.696C202.361 162.399 202.361 162.399 202.361 162.399V162.399V162.4L202.361 162.402L202.362 162.406L202.365 162.423C202.367 162.437 202.37 162.455 202.374 162.478C202.381 162.523 202.391 162.586 202.402 162.655L202.403 162.662C202.416 162.754 202.455 163.01 202.455 163.226C202.455 163.33 202.451 163.495 202.437 163.674C202.432 163.736 202.424 163.825 202.409 163.929C202.606 165.505 202.496 166.991 202.397 168.304C202.384 168.485 202.371 168.662 202.358 168.836C202.249 170.404 202.206 171.828 202.594 173.413C203.15 175.682 204.01 177.486 204.802 178.919C205.073 179.409 205.321 179.829 205.556 180.23C205.678 180.436 205.796 180.637 205.913 180.84C206.214 181.362 206.558 181.979 206.73 182.562C207.021 183.546 207.298 185.44 207.493 186.937C207.595 187.718 207.681 188.444 207.742 188.976C207.757 189.106 207.77 189.225 207.781 189.331C208.705 190.431 209.357 191.025 209.74 191.296C209.747 191.299 209.753 191.303 209.761 191.307C209.824 191.34 209.914 191.385 210.018 191.435C210.243 191.544 210.465 191.639 210.613 191.684C211.041 191.817 211.534 192.014 211.965 192.187L212.012 192.205C212.416 192.366 212.791 192.516 213.137 192.638C213.352 192.676 213.576 192.684 213.902 192.687C213.926 192.687 213.951 192.688 213.977 192.688C214.298 192.69 214.82 192.694 215.337 192.824C216.324 193.072 217.314 193.368 218.132 193.782C218.929 194.185 219.847 194.843 220.236 195.964L220.248 195.997L220.258 196.031C220.363 196.382 220.448 196.758 220.514 197.154L220.983 199.929L219.126 199.346C218.797 199.608 218.361 199.977 217.857 200.442C216.704 201.508 215.232 203.054 213.917 204.965C211.279 208.799 209.409 213.873 211.609 219.523L212.115 220.822L210.95 221.589C210.423 221.936 209.855 222.244 209.301 222.434L209.268 222.445L209.234 222.455C208.863 222.565 208.511 222.563 208.281 222.549C208.028 222.533 207.773 222.492 207.537 222.444C207.066 222.347 206.543 222.193 206.032 222.025C205.01 221.688 203.879 221.238 203.016 220.886C202.265 220.593 201.402 219.985 200.766 219.537C200.71 219.498 200.655 219.459 200.602 219.422C200.227 219.159 199.895 218.929 199.595 218.744C199.278 218.55 199.096 218.468 199.018 218.444L199.006 218.44L198.993 218.436C197.883 218.068 196.782 217.804 195.952 217.633C195.539 217.547 195.199 217.485 194.964 217.445C194.88 217.431 194.81 217.419 194.755 217.41C194.697 217.412 194.626 217.414 194.541 217.416C194.301 217.422 193.954 217.427 193.523 217.43C192.662 217.433 191.458 217.422 190.087 217.362C187.377 217.241 183.873 216.919 181.044 216.074L181.039 216.073C177.678 215.059 176.347 214.345 175.148 213.482L175.131 213.47L175.115 213.458C174.917 213.308 174.786 213.226 174.543 213.074C174.487 213.039 174.425 213 174.354 212.957C173.997 212.732 173.537 212.432 172.795 211.889C171.354 211.075 170.134 210.212 169.203 209.288C168.256 208.35 167.528 207.268 167.257 206.038C167.196 205.766 167.19 205.459 167.187 205.317C167.183 205.116 167.186 204.896 167.19 204.703C167.195 204.506 167.202 204.322 167.207 204.188C167.21 204.12 167.213 204.065 167.214 204.025L167.216 203.989C167.232 203.37 167.371 202.666 167.831 202.074Z" fill="white" stroke="#354692" stroke-width="3.44741"/>
</svg>
