<svg width="49" height="57" viewBox="0 0 49 57" fill="none" xmlns="http://www.w3.org/2000/svg">
<path d="M16.9944 5.69293L16.9082 6.5556L16.8219 7.76334L2.05283 12.3867C2.17607 14.492 2.67292 20.8886 4.71424 28.1112C4.87986 28.699 5.05703 29.2906 5.24191 29.8861C5.41523 30.4239 5.60009 30.981 5.79267 31.5496C5.79652 31.5572 5.79653 31.5649 5.80038 31.5726C5.92363 31.9337 6.05458 32.3025 6.18938 32.6675C6.20864 32.7213 6.2279 32.7751 6.24716 32.8289C6.25872 32.7751 6.27412 32.7213 6.28568 32.6675C6.31649 32.5331 6.35115 32.3986 6.38581 32.2641C6.39352 32.2334 6.40122 32.1988 6.40892 32.1681C6.45899 31.9683 6.51292 31.7685 6.56684 31.5726C6.56684 31.5649 6.57069 31.5572 6.57454 31.5496C6.7286 31.0002 6.89422 30.4662 7.0868 29.9552C7.0868 29.9552 7.0868 29.9552 7.0868 29.9514C7.09065 29.936 7.09835 29.9206 7.10606 29.9053C7.12917 29.8553 7.16383 29.8054 7.20235 29.7516C7.23701 29.7055 7.27167 29.6594 7.31018 29.6133C7.38721 29.5211 7.47195 29.4251 7.54899 29.3328C7.65683 29.2022 7.74926 29.0793 7.78778 28.9794C7.85325 28.8449 7.21775 28.3109 7.45269 28.042C8.12286 27.2391 8.82769 26.9048 9.0973 26.7704C9.13967 26.7473 9.20129 26.7089 9.27062 26.6628C9.35921 26.6052 9.45935 26.536 9.57489 26.4592C9.62497 26.4246 9.67504 26.39 9.72511 26.3555C9.77518 26.3209 9.82525 26.2863 9.87917 26.2479C9.89458 26.2364 9.90613 26.2287 9.92154 26.2172C10.4338 25.856 10.9769 25.4603 10.9769 25.4603L11.7703 25.1991L12.2248 25.0493L12.633 24.9148L12.8795 24.8341L13.5998 24.5959L13.8347 23.8583C13.8347 23.8583 15.4447 23.4242 15.9492 23.4242C16.0416 23.4242 16.1148 23.4395 16.1649 23.4703C16.188 23.4856 16.2073 23.501 16.2188 23.5241C16.2535 23.4895 16.2535 23.4588 16.2843 23.4242C16.2496 23.5241 16.2188 23.5894 16.2188 23.5894C16.2188 23.5894 16.2689 24.1157 16.3305 24.8303C16.3344 24.8572 16.3344 24.8841 16.3382 24.911C16.4422 26.125 16.5732 27.8192 16.5539 28.4377C16.5539 28.4377 16.5539 28.4377 16.5539 28.4339L16.5577 28.4185L16.5616 28.407L16.5655 28.3955C16.5809 28.3301 16.6117 28.2034 16.6502 28.019L16.654 28.0036C16.7426 27.6002 16.8659 26.9548 16.9545 26.221V26.2095C16.966 26.1058 16.9776 26.002 16.9891 25.8944V25.8868C17.0199 25.5679 17.043 25.2413 17.0546 24.911C17.0546 24.8841 17.0584 24.8572 17.0584 24.8303C17.07 24.3616 17.0507 23.889 16.9891 23.4549C16.9545 23.186 16.889 23.0208 16.8543 22.8863C16.9545 22.7864 17.1239 22.5867 17.4243 22.118C17.7941 21.5148 18.2293 20.8809 18.4643 20.3431C18.6645 19.8744 19.1344 19.6746 19.1344 19.6746L19.2692 19.7092C19.3039 19.0753 19.3694 18.3722 19.4349 17.8344L19.3347 17.7345C18.6992 16.897 18.3603 15.9289 18.1253 14.8224C18.1253 14.7878 18.1253 14.7878 18.1253 14.7878C18.1253 14.7878 18.1138 14.7379 18.0945 14.6534C18.0907 14.638 18.0868 14.6188 18.083 14.5996C18.056 14.4843 18.0252 14.3153 17.9905 14.1194C17.9905 14.0848 17.8557 13.4778 17.8557 13.4471C17.7556 12.9476 17.7671 12.913 17.667 12.3598L17.3396 10.3237C17.8172 10.389 18.6078 10.0046 18.9573 9.70132C19.7276 9.03285 20.1417 8.05476 20.8561 7.25027C21.4531 6.57796 22.57 5.77118 23.9181 5.5983C22.6856 5.13729 20.548 6.69321 19.874 7.7497C19.3039 8.31829 18.8956 9.02902 18.2216 9.49772C18.0522 9.63218 17.5861 9.83962 17.3473 9.73973C17.3126 9.70516 17.278 9.70516 17.2472 9.67442C17.2818 8.16844 17.2972 6.747 17.3281 6.48191C17.4282 5.71356 17.6631 4.94136 18.0329 4.27289C17.9982 4.44192 17.9982 4.6417 17.9674 4.94136C17.7671 7.18112 17.9867 8.83692 17.9867 8.83692C17.9867 8.83692 18.1561 8.36822 18.2216 7.6306C18.3564 6.35896 18.4026 5.27559 18.6376 3.73504C18.7031 3.33549 18.9072 2.9321 19.1729 2.63244C19.4734 2.29821 19.8123 1.9947 20.1474 1.72962C20.9524 1.09188 22.6316 0.857537 23.6369 0.75765C24.0605 0.715563 24.1222 0.719195 24.4573 0.719195C24.7923 0.719195 24.9073 0.72393 25.2468 0.75765C26.2521 0.857537 27.966 1.09188 28.7363 1.72962C29.0406 1.96397 29.3757 2.29821 29.7108 2.63244C29.9804 2.96668 30.1807 3.33549 30.2461 3.73504C30.4464 5.07198 30.5003 5.85953 30.6352 7.12732C30.7353 8.13003 30.9356 8.83307 30.9356 8.83307C30.9356 8.83307 31.1166 7.14654 30.9163 4.93751C30.8817 4.63786 30.8508 4.43424 30.8508 4.26904C31.2206 4.93751 31.4555 5.67514 31.5557 6.47807C31.5903 6.747 31.6404 8.1646 31.6751 9.67058C31.6096 9.73589 31.4748 9.77047 31.3747 9.73589L31.34 9.72822C31.3015 9.70901 31.3041 9.70976 31.2745 9.70132C31.245 9.69288 31.233 9.68445 31.2052 9.6706C31.1667 9.65139 31.1667 9.65139 31.105 9.63216C31.0704 9.59759 31.0396 9.59759 31.0049 9.56301C29.626 8.94066 28.7363 7.25027 28.1548 6.48191C27.4615 5.8096 25.7861 5.31017 25.035 5.5983C25.9644 5.61497 27.9044 6.71242 28.3936 7.6306C28.8613 8.5086 29.4527 9.76664 30.8662 10.2007C31.0896 10.3006 31.34 10.3621 31.5749 10.3467L31.2726 12.2311L30.9702 14.1155C30.951 14.273 30.9317 14.4306 30.9086 14.5919C30.9048 14.6111 30.9048 14.6265 30.9009 14.6457C30.6929 15.5024 30.4426 16.117 30.119 16.8738C30.1113 16.8892 30.0805 16.9507 30.0805 16.9507L30.042 17.0276L29.965 17.1428C29.965 17.1428 29.965 17.162 29.8494 17.2964C29.8133 17.3385 29.6954 17.4501 29.6954 17.4501L29.522 17.6423C29.522 17.6423 29.16 17.9918 28.9058 18.2953C28.3974 18.9023 27.8928 19.9243 27.3036 20.4122C27.2111 20.4891 27.1148 20.5659 27.0186 20.6389C26.7181 20.8732 26.3137 20.9385 25.9093 20.9731C25.7398 20.9731 25.6089 21.0077 25.4394 21.0077C25.4741 21.2766 25.5087 21.6416 25.5396 21.9105C25.5627 22.1103 25.5126 22.3024 25.4356 22.4868C25.424 22.5137 25.4125 22.5444 25.397 22.5713C25.32 22.7327 25.2314 22.8825 25.1544 23.0246C25.1197 23.0861 25.0889 23.1476 25.062 23.2052V23.209C25.035 23.2705 25.0157 23.3281 25.0042 23.3819C24.9695 23.4818 24.9695 23.6508 24.9695 23.8852C25.8284 23.5932 26.6527 22.9401 27.1919 22.4407C27.5809 22.0834 27.8197 21.8106 27.8197 21.8106C27.8158 21.8222 27.8081 21.8298 27.8043 21.8414C27.758 21.9182 27.7118 21.995 27.6695 22.0719L27.6618 22.0834C27.6464 22.1103 27.6309 22.1372 27.6117 22.1641C27.4692 22.4061 27.3267 22.6443 27.1919 22.8671C26.5101 24.0004 25.9209 24.9417 25.5049 25.5871C25.5126 25.5833 25.5203 25.5756 25.5242 25.5717C26.1173 25.1568 26.6912 24.5191 27.1996 23.8314C28.382 22.2371 29.2293 20.37 29.2293 20.37C29.2293 20.0357 28.6566 19.1251 28.6566 18.6218L28.8095 18.3913L29.0053 18.18C29.1748 18.4144 29.5298 19.5017 29.6646 19.8014H29.8648C29.8648 19.8014 30.3347 20.0011 30.535 20.4698C30.77 21.0039 31.1705 21.6762 31.5749 22.2448C32.2798 23.3473 32.2143 22.9478 32.4492 23.1821C32.5494 23.282 32.6842 23.4818 32.7843 23.6163C32.8498 23.551 32.9191 23.5164 33.0539 23.5164C33.2311 23.5164 33.5508 23.5702 33.8859 23.6432C33.9013 23.647 33.9167 23.6508 33.9282 23.6508C34.2055 23.7085 34.4944 23.7776 34.7216 23.8353C34.9836 23.9006 35.1684 23.9505 35.1684 23.9505L35.1723 23.962L35.1838 24.0043L35.2955 24.3769L35.3032 24.4L35.3687 24.619C35.388 25.4219 35.4765 28.3148 35.5305 30.5584C35.5305 30.593 35.5305 30.6237 35.5343 30.6583C35.542 31.0194 35.5497 31.3652 35.5574 31.6802C35.5574 31.7148 35.5574 31.7455 35.5613 31.7801C35.569 32.1681 35.5728 32.51 35.5767 32.7751C35.5767 33.0056 35.5767 33.1823 35.5728 33.286C35.5728 33.286 35.6037 33.094 35.6499 32.7751C35.6884 32.5138 35.7385 32.1719 35.7924 31.7801C35.7962 31.7455 35.8001 31.7148 35.8078 31.6802C35.8501 31.3613 35.8964 31.0117 35.9387 30.6583C35.9426 30.6237 35.9464 30.593 35.9503 30.5584C35.9618 30.4662 35.9734 30.374 35.9811 30.2818C35.985 30.228 35.9927 30.1742 35.9965 30.1243C36.0004 30.0858 36.0042 30.0436 36.0081 30.0052C36.0735 29.4058 36.1236 28.8181 36.1429 28.334C36.1621 27.7116 36.1698 26.9778 36.166 26.2863V26.0673C36.1621 25.7024 36.1583 25.3528 36.1467 25.0493C36.1467 25.007 36.1429 24.9686 36.1429 24.934V24.9302C36.1429 24.9263 36.1429 24.9263 36.1429 24.9225L36.1621 24.9302L36.5088 25.0493L37.9878 25.5717C37.9878 25.5717 38.3421 25.833 38.7504 26.1211C39.0007 26.2978 39.2703 26.4899 39.4899 26.6359C39.6516 26.7435 39.7826 26.8318 39.8635 26.8741C40.1639 27.0086 40.8379 27.3428 41.5081 28.1457C41.7083 28.4147 41.1075 28.9487 41.173 29.0831C41.3039 29.3405 41.743 29.7247 41.8663 30.0205C41.8701 30.0321 41.874 30.0436 41.8778 30.0551C41.8894 30.082 41.8971 30.1127 41.9086 30.1396C41.9279 30.1934 41.9471 30.2472 41.9664 30.2971C41.9972 30.3893 42.0319 30.4815 42.0627 30.5737C42.0742 30.6045 42.0858 30.6391 42.0935 30.6736C42.2052 31.0079 42.3053 31.3498 42.4016 31.6956C42.4093 31.7263 42.4209 31.7609 42.4286 31.7954C42.5172 32.122 42.6019 32.4524 42.6828 32.7905C42.6943 32.8366 42.7059 32.8865 42.7175 32.9326C42.7367 32.8865 42.7521 32.8366 42.7714 32.7905C42.8946 32.4562 43.014 32.1258 43.1257 31.7954C43.1373 31.7609 43.1488 31.7301 43.1604 31.6956C43.2798 31.3536 43.3953 31.0117 43.507 30.6736C43.5186 30.6391 43.5301 30.6083 43.5378 30.5737C43.5995 30.3778 43.6649 30.1819 43.7227 29.986C43.792 29.7708 43.8575 29.5518 43.923 29.3367C46.2378 21.6608 46.7808 14.6995 46.9118 12.4866L32.1774 8.02214L31.9186 5.69293L48.9993 11.0844L48.9647 11.822C48.93 12.1908 48.7297 20.7234 45.6754 30.5276C43.8614 36.2826 41.4811 41.2693 38.527 45.3493C34.8025 50.4704 30.2038 54.1162 24.8694 56.2253L24.4996 56.3598L24.1299 56.2253C18.7955 54.1508 14.1968 50.4704 10.4723 45.3493C7.51817 41.3 5.10325 36.3134 3.32383 30.5276C0.269558 20.7234 0.0346069 12.1908 0.0346069 11.822L-4.95911e-05 11.0844L16.9944 5.69293ZM18.9958 20.854C18.9958 20.854 19.3155 21.584 19.6428 22.4753C19.8701 23.0899 20.1012 23.7815 20.236 24.3693C20.3708 24.9724 19.6313 25.8099 19.7314 26.075L19.7353 26.0712L20.8407 24.8687H20.8445L23.8603 26.7435C23.8603 26.7435 23.8603 26.7396 23.8564 26.7396C23.7794 26.6321 22.2388 24.6267 21.6495 24.1695C21.48 24.035 20.5402 22.5636 20.5402 22.5636C20.5402 22.5636 20.2321 21.5263 19.6428 21.0653C19.4541 20.9193 19.2384 20.831 18.9958 20.854ZM22.9244 28.6529C23.2594 29.2867 23.8641 32.1335 23.8641 32.1335L23.5637 27.75L22.5585 27.4811L21.7573 27.1853L21.7496 27.1814C21.7496 27.1814 21.7535 27.1853 21.7573 27.1891C21.8498 27.2813 22.6085 28.0574 22.9244 28.6529ZM27.993 2.72847C28.5284 3.2087 28.8981 3.80033 28.9328 4.50722C28.9982 5.43693 29.2024 5.52529 29.368 5.74812C29.4335 5.80574 29.5028 5.83264 29.5683 5.80574C29.6376 5.77501 29.6684 5.72123 29.6684 5.6636C29.6684 5.241 29.5683 4.8453 29.5336 4.14225C29.4681 3.15491 28.5592 2.56328 28.0585 2.19831C27.4191 1.74882 25.5742 1.6643 25.5434 1.6643C25.5588 1.66046 27.292 2.05616 27.993 2.72847ZM32.1411 24.9186L32.1141 24.838L31.9832 24.4692C31.9832 24.4692 30.6043 22.0949 30.0074 21.4265C29.9881 21.4072 29.9727 21.388 29.9534 21.3688C29.9457 21.3611 29.938 21.3535 29.9342 21.3496C29.9149 21.3304 29.8995 21.315 29.8802 21.3035C29.8302 21.2613 29.7917 21.2459 29.7686 21.2574C29.7686 21.2574 29.0329 23.8199 28.3974 24.838C28.3781 24.8649 28.3627 24.8917 28.3435 24.9186C28.3281 24.9455 28.3088 24.9686 28.2934 24.9916C28.2934 24.9916 28.2934 24.9916 28.2896 24.9955C28.2703 25.0224 28.2472 25.0493 28.2279 25.0723C28.2279 25.0723 30.3078 25.7408 31.8176 28.0843L32.2528 25.2413L32.1411 24.9186ZM32.6187 29.4212C32.6187 29.4212 32.6187 29.4212 32.6148 29.4212C32.5994 29.4212 32.5686 29.4212 32.5224 29.4212C32.5186 29.4212 32.5109 29.4212 32.507 29.4212C32.4877 29.4212 32.4685 29.4212 32.4492 29.4174C32.2644 29.4058 31.9524 29.3674 31.6134 29.2176C31.3785 29.1177 30.2076 28.3801 29.133 27.946C29.133 27.946 29.133 27.946 29.1292 27.946C28.3743 28.9371 27.6541 30.447 27.1919 31.5111C26.8992 32.1835 26.7104 32.6829 26.6835 32.7559C26.6796 32.7636 26.6796 32.7636 26.6796 32.7636C26.6257 31.5688 26.9839 29.7554 27.2997 28.4646C27.2997 28.4608 27.3036 28.4531 27.3036 28.4492C27.369 28.188 27.4268 27.9498 27.4846 27.7423C27.423 27.8115 27.3575 27.8883 27.2997 27.9652C25.8477 29.84 25.1005 33.6203 25.0042 34.1351V34.235C22.4891 34.5346 18.9958 35.0379 18.9958 35.0379C18.9958 35.0379 18.9958 35.0379 18.9996 35.0379C18.9996 35.0379 19.0035 35.0379 19.0112 35.0379C19.015 35.0379 19.015 35.0379 19.0189 35.0379C19.0381 35.0379 19.069 35.0417 19.1113 35.0417C19.119 35.0417 19.1267 35.0417 19.1344 35.0417C19.1498 35.0417 19.1652 35.0417 19.1845 35.0456H19.2076H19.2115C19.223 35.0456 19.2346 35.0456 19.2461 35.0456C19.2577 35.0456 19.2692 35.0456 19.2808 35.0456C19.2846 35.0456 19.2846 35.0456 19.2885 35.0456C19.3116 35.0456 19.3347 35.0494 19.3578 35.0494C19.3771 35.0494 19.4002 35.0494 19.4233 35.0533C19.4426 35.0533 19.4657 35.0533 19.4888 35.0571C19.508 35.0571 19.5311 35.0571 19.5504 35.061C19.5889 35.0648 19.6313 35.0648 19.6775 35.0648C19.7314 35.0686 19.7892 35.0686 19.8508 35.0725C19.8701 35.0725 19.8893 35.0725 19.9086 35.0763C19.924 35.0763 19.9433 35.0763 19.9625 35.0802C19.9895 35.0802 20.0126 35.084 20.0395 35.084C20.055 35.084 20.0704 35.084 20.0896 35.084C20.1127 35.084 20.1358 35.0878 20.1589 35.0878C20.1705 35.0878 20.1859 35.0878 20.2013 35.0878C20.2244 35.0878 20.2437 35.0917 20.2668 35.0917C20.4401 35.0994 20.6288 35.1071 20.8291 35.1147C20.8792 35.1186 20.9254 35.1186 20.9755 35.1224C21.0255 35.1263 21.0756 35.1263 21.1257 35.1263C21.1758 35.1301 21.2258 35.1301 21.2759 35.134C21.2952 35.134 21.3106 35.1339 21.3298 35.1378C21.3645 35.1378 21.3991 35.1416 21.4338 35.1416C21.48 35.1455 21.5262 35.1455 21.5725 35.1455C21.5802 35.1455 21.5879 35.1455 21.5917 35.1455C21.6264 35.1455 21.661 35.1493 21.6957 35.1493C22 35.1608 22.3197 35.1724 22.647 35.1839C22.7626 35.1877 22.8743 35.1916 22.9898 35.1954C23.036 35.1954 23.0861 35.1993 23.1362 35.1993C23.1824 35.1993 23.2248 35.2031 23.271 35.2031C23.4482 35.2108 23.6292 35.2146 23.8064 35.2223C23.8795 35.2262 23.9566 35.2262 24.0297 35.23C24.2647 35.2377 24.4996 35.2454 24.7269 35.253C24.7924 35.2569 24.8578 35.2569 24.9233 35.2569C24.9965 35.2607 25.0697 35.2607 25.139 35.2646C25.2083 35.2684 25.2815 35.2684 25.3508 35.2723C25.5203 35.2799 25.8284 35.2799 26.2213 35.2761C26.2482 35.2761 26.2752 35.2761 26.3022 35.2761C26.3445 35.2761 26.3907 35.2761 26.437 35.2761C26.4601 35.2761 26.487 35.2761 26.5101 35.2761H26.5371C26.5564 35.2761 26.5756 35.2761 26.5949 35.2761C26.645 35.2761 26.695 35.2761 26.7451 35.2723C26.772 35.2723 26.8029 35.2723 26.8298 35.2723C26.8606 35.2723 26.8953 35.2723 26.93 35.2723C27.111 35.2684 27.2959 35.2646 27.4923 35.2607H27.5578C27.5924 35.2607 27.6271 35.2607 27.6579 35.2569C27.6887 35.2569 27.7234 35.2569 27.7542 35.253C27.8235 35.253 27.8929 35.2492 27.9622 35.2492C27.993 35.2492 28.0277 35.2492 28.0585 35.2454C28.07 35.2454 28.0777 35.2454 28.0893 35.2454C28.1278 35.2454 28.1625 35.2454 28.201 35.2415C28.2742 35.2415 28.3512 35.2377 28.4282 35.2377C28.4667 35.2377 28.5091 35.2377 28.5515 35.2338L28.8557 35.2261C28.9174 35.2261 28.979 35.2223 29.0406 35.2223C29.1138 35.2223 29.1831 35.2185 29.2563 35.2185C29.3025 35.2185 29.3449 35.2146 29.3911 35.2146C29.4604 35.2146 29.5336 35.2108 29.6029 35.2108C29.7377 35.2069 29.8725 35.2031 30.0035 35.1993C30.1807 35.1954 30.3578 35.1916 30.5235 35.1877C30.6583 35.1839 30.7931 35.18 30.9202 35.1762C30.9279 35.1762 30.9394 35.1762 30.9471 35.1762C30.9664 35.1762 30.9856 35.1762 31.0049 35.1762C31.055 35.1762 31.1012 35.1724 31.1474 35.1724C31.1744 35.1724 31.2013 35.1724 31.2244 35.1724C31.2784 35.1724 31.3323 35.1685 31.3824 35.1685C31.4093 35.1685 31.4324 35.1685 31.4555 35.1647C31.6366 35.1608 31.8022 35.157 31.937 35.1532C31.9524 35.1532 31.9678 35.1532 31.987 35.1532C32.014 35.1532 32.041 35.1532 32.0641 35.1493C32.0756 35.1493 32.091 35.1493 32.1026 35.1493C32.145 35.1493 32.1835 35.1455 32.2181 35.1455C32.2335 35.1455 32.2451 35.1455 32.2567 35.1455C32.2759 35.1455 32.2913 35.1455 32.3067 35.1455C32.3183 35.1455 32.3298 35.1455 32.3414 35.1455C32.3876 35.1455 32.4146 35.1416 32.4261 35.1416L32.5609 32.9672L32.2913 32.5523L32.2567 32.4985L32.2605 32.437L32.2682 32.1911L32.2913 31.296L32.5917 30.8619L32.6187 29.4212ZM36.0466 39.6942C36.0466 39.6942 36.9517 38.2535 36.9517 38.0537C36.9517 37.5197 32.6919 37.0817 32.6919 37.0817L28.563 38.2881C30.9125 39.1601 34.3018 39.5251 36.0466 39.6942ZM32.688 45.8525C29.9496 44.2082 27.5385 42.6293 27.4576 42.5755C27.5616 42.6139 30.9125 43.9239 33.1271 44.6155C32.9615 44.2159 32.9268 44.0123 32.7574 43.5436C32.0525 41.738 31.987 40.8006 31.987 40.8006C29.7724 39.26 18.0599 36.7513 16.9198 36.8858C15.7797 37.0203 14.3007 38.1229 14.2006 38.9604C14.0658 40.232 14.5392 40.7136 15.4789 40.3448C16.1144 40.1105 16.666 41.0647 17.806 41.1684C17.3361 40.5999 17.4205 40.6661 17.4205 40.6661C19.3001 40.8659 21.0495 42.3066 21.6888 42.5755C23.2988 43.2785 29.368 46.8591 32.5879 47.9617C28.7633 45.9524 22.4891 41.907 22.4891 41.907C22.4891 41.907 28.0585 44.1429 32.688 45.8525ZM27.1071 50.2706L27.2882 50.1323H27.2843L25.139 50.067L24.4342 48.0577L23.7293 50.067L21.5802 50.1323L23.2903 51.4385L22.6894 53.4785L24.4688 52.2722L26.2482 53.4785L25.5819 51.45L25.5781 51.4385L27.084 50.2898L27.1071 50.2706ZM15.7759 48.5264C19.3655 47.4546 23.5945 45.8833 23.5945 45.8833C22.1849 44.6808 19.5658 43.3746 19.3001 43.2401C19.0651 43.1056 16.4152 43.1056 16.4152 43.1056C16.0455 43.9086 14.8708 45.7834 14.2006 46.8552C14.7052 47.4238 15.2405 47.9924 15.7759 48.5264ZM13.9657 46.5863L14.6358 44.1775C14.3354 44.5117 13.8963 45.1802 13.4611 45.9831C13.6306 46.1868 13.7962 46.3865 13.9657 46.5863ZM10.8112 42.3373C11.4814 42.0376 12.2209 41.7341 13.0605 41.5344L12.9604 40.597C12.9604 40.597 11.6162 40.9658 10.3414 41.5689C10.4762 41.834 10.6418 42.0684 10.8112 42.3373ZM10.3067 41.5344C10.4723 41.3 11.2118 40.2973 12.5868 39.5597L10.1026 39.8286L9.29758 39.794C9.63652 40.3972 9.9716 40.9658 10.3067 41.5344ZM12.1747 37.1163C12.1785 37.1163 12.1785 37.1202 12.1824 37.1202L8.03043 37.2853H8.02657C8.22685 37.6887 8.43098 38.1229 8.63126 38.5224L13.0259 38.3572C13.0259 38.3572 13.0259 38.3572 13.0259 38.3534C13.0259 38.3534 13.0259 38.3495 13.0259 38.338C13.0259 38.3342 13.0259 38.3265 13.0259 38.3188C13.0259 38.2957 13.0259 38.2612 13.022 38.2189C13.022 38.2112 13.022 38.2035 13.022 38.192C13.022 38.1805 13.022 38.1728 13.022 38.1613C13.022 38.1344 13.0182 38.1037 13.0182 38.0729C13.0182 38.0652 13.0182 38.0537 13.0182 38.046C13.0182 38.0307 13.0182 38.0114 13.0143 37.9961C13.0143 37.9922 13.0143 37.9884 13.0143 37.9846C13.0143 37.973 13.0143 37.9615 13.0143 37.9461C13.0143 37.8885 13.0105 37.8232 13.0066 37.754C13.0066 37.7387 13.0066 37.7233 13.0066 37.7041C13.0066 37.6734 13.0028 37.6426 13.0028 37.6157C13.0028 37.5812 12.9989 37.5427 12.9989 37.5043C12.9951 37.366 12.9874 37.2162 12.9797 37.0587C12.9797 37.0433 12.9797 37.0279 12.9758 37.0164C12.972 36.9281 12.9681 36.8397 12.9604 36.7437C12.9604 36.7283 12.9565 36.7091 12.9565 36.6937C12.9565 36.6784 12.9566 36.6668 12.9527 36.6515C12.9527 36.6361 12.9527 36.6169 12.9488 36.6015C12.9411 36.4286 12.9296 36.2519 12.918 36.0713C12.9142 36.0406 12.9142 36.006 12.9103 35.9753C12.9065 35.9446 12.9065 35.91 12.9026 35.8792C12.8911 35.691 12.8757 35.5028 12.8603 35.3184C12.8564 35.2953 12.8564 35.2723 12.8526 35.2492C12.8526 35.2377 12.8526 35.2262 12.8487 35.2185C12.8449 35.1993 12.8449 35.1762 12.8449 35.157C12.8449 35.1416 12.841 35.1263 12.841 35.1109C12.8333 35.0494 12.8294 34.988 12.8217 34.9265C12.8217 34.9265 12.8217 34.9265 12.8217 34.9226C12.7755 34.4386 12.7178 34.016 12.6523 33.7432C12.5406 33.3014 12.2094 32.8788 11.7664 32.4716C11.4313 32.1642 11.0308 31.8684 10.6187 31.5841C10.6071 31.5765 10.5956 31.5688 10.584 31.5611C10.2335 31.3191 9.87146 31.0885 9.53253 30.8657C9.53253 30.8657 9.39772 31.1462 9.23596 31.5611C9.23211 31.5688 9.22826 31.5765 9.2244 31.5841C9.10115 31.8992 8.96635 32.2872 8.86621 32.679C8.78148 32.9979 8.7237 33.3245 8.7083 33.6164C8.70444 33.7317 8.70444 33.8431 8.716 33.943C8.71985 33.966 8.71985 33.9891 8.7237 34.0121C8.72755 34.0429 8.7314 34.0775 8.73526 34.1082C8.73526 34.1236 8.73911 34.1389 8.73911 34.1543C8.74296 34.235 8.74296 34.3156 8.73526 34.3925C8.66593 35.23 7.94954 35.7448 7.88791 35.7871C7.88406 35.7871 7.88406 35.7909 7.88406 35.7909C7.88406 35.7909 10.7342 36.2865 12.1747 37.1163Z" fill="#354692"/>
<path fill-rule="evenodd" clip-rule="evenodd" d="M28.7894 9.82238C28.4979 9.45234 27.9644 8.355 27.665 7.94583C26.731 6.66928 25.4721 6.57495 24.3354 6.57495C23.0238 6.57495 21.2974 8.02504 20.6757 9.23785C20.4716 9.4371 20.5172 9.70852 20.3423 9.90777C21.1876 9.9647 23.3623 9.82238 23.9273 10.1732C23.9273 10.1732 24.4228 10.6194 24.4811 11.0179C24.5394 11.4164 24.5102 12.8396 24.3354 13.2381C24.1605 13.6366 23.2278 13.8358 23.257 14.462C23.257 14.462 23.5776 14.3766 23.9273 14.5759C24.2188 14.7467 24.1313 14.889 24.5394 14.9174C24.9474 14.9459 25.1806 14.4336 25.5886 14.5759C25.9967 14.7182 25.5886 15.2875 25.0057 15.2021C24.4228 15.1167 24.7143 15.4583 24.1896 15.4867C23.1112 15.5437 22.4409 16.5114 23.9273 16.1983C24.0148 16.1699 24.2479 16.0275 24.4228 16.0275C24.5977 16.0275 24.7726 16.1983 24.86 16.1983C25.0932 16.1983 25.5227 16.2339 25.8724 16.2624C26.2117 16.2624 26.2574 16.2747 26.4215 16.2232L26.6176 16.1709L26.8149 16.0924C26.8149 16.0924 27.2512 15.7701 27.4728 15.831C27.4728 15.831 27.4325 16.2334 27.2755 16.4477C27.2028 16.617 26.8634 16.8106 26.8149 16.8348C26.5526 16.9202 26.1424 16.9953 25.851 16.9953C25.1515 16.9953 24.8017 17.0238 24.452 17.0238C24.1022 17.0238 23.257 16.853 23.1112 17.3369C22.9655 17.8208 23.869 17.5936 24.3354 17.622C24.7726 17.6505 25.1515 17.8493 25.064 18.2762C25.064 18.2762 23.0238 18.1054 22.5866 18.5893C22.1494 19.0732 22.6684 19.7476 24.4553 19.8587C26.2422 19.9697 26.7679 19.6795 26.8419 19.614C27.7746 18.7886 27.648 18.0959 28.4222 17.3369C28.4222 17.3369 29.3194 16.483 29.4068 16.056C29.5234 15.6006 29.6691 15.1167 29.7274 14.6613L29.9765 13.7155C30.0348 12.8616 29.9023 11.0463 29.7565 10.9325C29.4942 10.7048 29.3571 10.4294 29.1239 10.1732C28.745 10.1448 28.2409 10.3632 28.2409 10.3632C28.2409 10.3632 28.9405 10.534 29.2319 11.1317C28.4741 11.3594 28.3575 11.9572 27.3666 12.0141C26.3756 12.0426 25.6469 11.2553 25.6469 10.9325C25.6469 10.9325 25.6632 9.92176 27.1625 9.82238C27.8038 9.90777 28.527 9.82238 28.7894 9.82238ZM21.5082 12.1849C21.7414 12.1564 22.4992 12.1849 22.674 12.498C22.8489 12.8111 22.0911 14.2058 21.6831 14.1774C21.3333 14.1774 20.9544 13.6081 20.6047 13.1527C20.2841 12.6688 20.3715 12.3557 21.5082 12.1849Z" fill="white"/>
</svg>
