<svg width="30" height="30" viewBox="0 0 30 30" fill="none" xmlns="http://www.w3.org/2000/svg">
<path fill-rule="evenodd" clip-rule="evenodd" d="M8.711 10.4692C8.85643 10.1961 9.01166 9.91343 9.1728 9.62C10.0401 8.04056 11.0783 6.14999 11.6771 3.77466C12.2582 1.46955 14.1017 0.028303 16.067 0.000398104C17.0493 -0.0135499 18.0523 0.33861 18.8054 1.12092C19.5616 1.90655 19.9315 2.98337 19.9315 4.18066V9.99824L25.0281 10.0112C28.168 10.0192 30.518 12.8941 29.9012 15.9729L27.9082 25.9214C27.4418 28.2498 25.3971 29.9255 23.0224 29.9255H9.96575V29.953H4.98288C2.23091 29.953 0 27.7221 0 24.9701V15.0044C0 12.2524 2.23091 10.0215 4.98288 10.0215H6.64384C7.38127 10.0215 8.08129 10.1817 8.711 10.4692ZM14.8982 4.58666C15.1476 3.59734 15.7955 3.3265 16.1141 3.32198C16.2737 3.31971 16.3607 3.37125 16.4121 3.42471C16.4604 3.47485 16.6096 3.66587 16.6096 4.18066V11.655C16.6096 12.5707 17.3506 13.3136 18.2663 13.3159L25.0197 13.3331C26.0663 13.3358 26.8496 14.2941 26.644 15.3203L24.651 25.2689C24.4955 26.045 23.814 26.6036 23.0224 26.6036H11.6267V24.9701C11.6267 24.0528 10.8831 23.3092 9.96575 23.3092C9.04843 23.3092 8.30479 24.0528 8.30479 24.9701V26.6311H4.98288C4.06555 26.6311 3.32192 25.8875 3.32192 24.9701V15.0044C3.32192 14.0871 4.06555 13.3434 4.98288 13.3434H6.64384C7.56116 13.3434 8.30479 14.0871 8.30479 15.0044V19.1568C8.30479 20.0741 9.04843 20.8177 9.96575 20.8177C10.8831 20.8177 11.6267 20.0741 11.6267 19.1568V12.064C11.7346 11.863 11.8565 11.6422 11.9887 11.4027C12.861 9.82208 14.1818 7.42888 14.8982 4.58666Z" fill="#A63A42"/>
</svg>
