<svg width="30" height="27" viewBox="0 0 30 27" fill="none" xmlns="http://www.w3.org/2000/svg">
<path d="M22.8452 9.51184C23.4961 8.86097 23.4961 7.8057 22.8452 7.15482C22.1943 6.50395 21.139 6.50395 20.4882 7.15482L11.6667 15.9763L9.51184 13.8215C8.86097 13.1706 7.8057 13.1706 7.15482 13.8215C6.50395 14.4724 6.50395 15.5276 7.15482 16.1785L10.4882 19.5118C11.139 20.1627 12.1943 20.1627 12.8452 19.5118L22.8452 9.51184Z" fill="#A63A42"/>
<path fill-rule="evenodd" clip-rule="evenodd" d="M5 0C2.23858 0 0 2.23858 0 5V21.6667C0 24.4281 2.23858 26.6667 5 26.6667H25C27.7614 26.6667 30 24.4281 30 21.6667V5C30 2.23858 27.7614 0 25 0H5ZM3.33333 5C3.33333 4.07953 4.07953 3.33333 5 3.33333H25C25.9205 3.33333 26.6667 4.07953 26.6667 5V21.6667C26.6667 22.5871 25.9205 23.3333 25 23.3333H5C4.07953 23.3333 3.33333 22.5871 3.33333 21.6667V5Z" fill="#A63A42"/>
</svg>
