<svg width="48" height="55" viewBox="0 0 48 55" fill="none" xmlns="http://www.w3.org/2000/svg">
<path d="M43.2462 29.1045L40.6815 27.5004L43.2484 25.8963C45.0307 24.8263 46.4109 23.1893 47.1725 21.242C47.6493 19.9544 47.827 18.5735 47.692 17.2057C47.5569 15.8378 47.1127 14.5195 46.3935 13.3524C45.6744 12.1852 44.6994 11.2003 43.5439 10.4735C42.3883 9.74676 41.0829 9.29754 39.7283 9.16047C37.6615 8.98977 35.5971 9.51693 33.8592 10.6592L32.9491 11.2298V9.5615C32.9875 7.23493 32.1728 4.97615 30.6617 3.21936C29.1505 1.46258 27.0496 0.33178 24.7628 0.0443507C23.5014 -0.0813879 22.228 0.0609533 21.0245 0.462211C19.8209 0.863469 18.7139 1.51475 17.7747 2.37413C16.8355 3.23351 16.085 4.28195 15.5713 5.45194C15.0577 6.62193 14.7924 7.88756 14.7925 9.16734V11.2298L13.8847 10.6569C12.1471 9.51141 10.0817 8.98176 8.01334 9.1513C6.6585 9.28717 5.35265 9.73536 4.19646 10.4613C3.04027 11.1873 2.06462 12.1716 1.34472 13.3385C0.624815 14.5053 0.179892 15.8235 0.0442444 17.1914C-0.0914031 18.5593 0.0858485 19.9404 0.562335 21.2282C1.32409 23.1761 2.70522 24.8133 4.48869 25.8825L7.06012 27.5004L4.49323 29.1045C2.71094 30.1745 1.33076 31.8115 0.569144 33.7589C0.0917248 35.0474 -0.0860421 36.4295 0.0495673 37.7985C0.185177 39.1674 0.630535 40.4866 1.35126 41.6542C2.07198 42.8217 3.04879 43.8064 4.20628 44.5323C5.36377 45.2581 6.67096 45.7056 8.02696 45.8403C10.0892 46.0105 12.1491 45.4859 13.8847 44.3485L14.7925 43.771V45.8335C14.7925 48.2646 15.749 50.5961 17.4515 52.3152C19.154 54.0342 21.4631 55 23.8708 55C26.2785 55 28.5876 54.0342 30.2902 52.3152C31.9927 50.5961 32.9491 48.2646 32.9491 45.8335V43.771L33.8569 44.3462C35.5915 45.4844 37.6505 46.0106 39.7124 45.8426C41.068 45.7073 42.3747 45.2593 43.5316 44.5332C44.6886 43.8071 45.6648 42.8223 46.385 41.6548C47.1053 40.4873 47.5502 39.1684 47.6856 37.7998C47.821 36.4311 47.6431 35.0494 47.1657 33.7611C46.4054 31.8138 45.0269 30.1761 43.2462 29.1045ZM42.5403 39.229C41.9305 40.2171 40.9569 40.9202 39.8337 41.1836C38.7105 41.4471 37.5297 41.2493 36.5509 40.6338L31.8779 37.6959C31.5339 37.4799 31.139 37.3609 30.7341 37.3511C30.3292 37.3412 29.9291 37.441 29.5753 37.64C29.2214 37.8389 28.9268 38.1299 28.7219 38.4827C28.517 38.8354 28.4093 39.2371 28.41 39.6461V45.8335C28.41 47.049 27.9317 48.2148 27.0805 49.0743C26.2292 49.9339 25.0747 50.4167 23.8708 50.4167C22.667 50.4167 21.5124 49.9339 20.6612 49.0743C19.8099 48.2148 19.3317 47.049 19.3317 45.8335V39.6461C19.3316 39.2375 19.2233 38.8364 19.0181 38.4843C18.8129 38.1322 18.5181 37.8419 18.1644 37.6434C17.8107 37.445 17.4109 37.3456 17.0064 37.3557C16.6019 37.3657 16.2074 37.4847 15.8638 37.7005L11.1907 40.6429C10.7061 40.9476 10.1668 41.153 9.60359 41.2472C9.04038 41.3415 8.4643 41.3228 7.90823 41.1922C7.35217 41.0617 6.82702 40.8218 6.36277 40.4863C5.89851 40.1509 5.50424 39.7263 5.20247 39.237C4.9007 38.7477 4.69734 38.2031 4.604 37.6344C4.51066 37.0657 4.52916 36.4841 4.65845 35.9226C4.78775 35.3611 5.0253 34.8309 5.35755 34.3621C5.6898 33.8933 6.11024 33.4952 6.59486 33.1905L12.5525 29.446C12.8809 29.2405 13.1519 28.9537 13.3399 28.6128C13.5278 28.2719 13.6265 27.8883 13.6265 27.4981C13.6265 27.108 13.5278 26.7243 13.3399 26.3834C13.1519 26.0425 12.8809 25.7557 12.5525 25.5502L6.59486 21.808C5.61612 21.1926 4.91958 20.2099 4.65846 19.0759C4.39733 17.942 4.59302 16.7498 5.20247 15.7615C5.81193 14.7733 6.78522 14.07 7.90823 13.8063C9.03125 13.5426 10.212 13.7402 11.1907 14.3556L15.8638 17.2935C16.2069 17.5089 16.6008 17.6279 17.0047 17.6382C17.4086 17.6485 17.808 17.5498 18.1615 17.3522C18.515 17.1546 18.8098 16.8652 19.0155 16.5141C19.2212 16.163 19.3304 15.7627 19.3317 15.3547V9.41255C19.3072 8.29686 19.6721 7.20802 20.3625 6.3366C21.0529 5.46518 22.0249 4.86672 23.1083 4.64595C23.7598 4.53384 24.4277 4.56673 25.0653 4.74233C25.7029 4.91794 26.2948 5.23201 26.7997 5.6626C27.3046 6.09319 27.7103 6.62992 27.9885 7.23528C28.2666 7.84064 28.4104 8.50002 28.41 9.16734V15.3547C28.4105 15.7631 28.519 16.1639 28.7244 16.5157C28.9298 16.8675 29.2246 17.1575 29.5782 17.3556C29.9319 17.5538 30.3315 17.653 30.7358 17.6428C31.1401 17.6327 31.5344 17.5137 31.8779 17.2981L36.5509 14.3625C37.0355 14.0578 37.5749 13.8524 38.1381 13.7582C38.7013 13.6639 39.2774 13.6826 39.8334 13.8132C40.3895 13.9437 40.9146 14.1836 41.3789 14.5191C41.8432 14.8545 42.2374 15.2791 42.5392 15.7684C42.841 16.2577 43.0443 16.8023 43.1377 17.371C43.231 17.9397 43.2125 18.5213 43.0832 19.0828C42.9539 19.6443 42.7164 20.1745 42.3841 20.6433C42.0519 21.1121 41.6314 21.5102 41.1468 21.8149L35.1892 25.5594C34.8608 25.7649 34.5897 26.0517 34.4018 26.3926C34.2138 26.7334 34.1152 27.1171 34.1152 27.5073C34.1152 27.8974 34.2138 28.2811 34.4018 28.622C34.5897 28.9629 34.8608 29.2496 35.1892 29.4552L41.1468 33.1997C41.6317 33.504 42.0524 33.9018 42.385 34.3704C42.7175 34.839 42.9552 35.3692 43.0847 35.9307C43.2141 36.4921 43.2326 37.0739 43.1392 37.6426C43.0458 38.2113 42.8423 38.7558 42.5403 39.245V39.229Z" fill="#314AB4"/>
</svg>
