<svg width="30" height="21" viewBox="0 0 30 21" fill="none" xmlns="http://www.w3.org/2000/svg">
<path d="M27.8988 0.53876L10.625 17.8113C10.5089 17.9279 10.3709 18.0204 10.2189 18.0835C10.0669 18.1466 9.90397 18.1791 9.7394 18.1791C9.57484 18.1791 9.41189 18.1466 9.25991 18.0835C9.10793 18.0204 8.96992 17.9279 8.85378 17.8113L2.17378 11.125C2.05764 11.0084 1.91963 10.9159 1.76765 10.8528C1.61567 10.7896 1.45272 10.7571 1.28815 10.7571C1.12359 10.7571 0.96064 10.7896 0.808662 10.8528C0.656684 10.9159 0.518666 11.0084 0.402529 11.125C0.285934 11.2411 0.193418 11.3792 0.130291 11.5311C0.0671638 11.6831 0.034668 11.8461 0.034668 12.0106C0.034668 12.1752 0.0671638 12.3382 0.130291 12.4901C0.193418 12.6421 0.285934 12.7801 0.402529 12.8963L7.08503 19.5775C7.78996 20.2811 8.74528 20.6763 9.74128 20.6763C10.7373 20.6763 11.6926 20.2811 12.3975 19.5775L29.67 2.30876C29.7864 2.19265 29.8788 2.05471 29.9418 1.90284C30.0048 1.75098 30.0373 1.58818 30.0373 1.42376C30.0373 1.25934 30.0048 1.09654 29.9418 0.944676C29.8788 0.792813 29.7864 0.654875 29.67 0.53876C29.5539 0.422165 29.4159 0.329649 29.2639 0.266522C29.1119 0.203395 28.949 0.170898 28.7844 0.170898C28.6198 0.170898 28.4569 0.203395 28.3049 0.266522C28.1529 0.329649 28.0149 0.422165 27.8988 0.53876Z" fill="#A63A42"/>
</svg>
