<svg width="56" height="56" viewBox="0 0 56 56" fill="none" xmlns="http://www.w3.org/2000/svg">
<path d="M55.0558 48.5714C55.0558 52.1218 52.1777 55 48.6273 55H7.46018C3.91924 55 1.04548 52.1506 1.03573 48.6097C1.01025 39.3543 0.975305 21.7542 1.02592 7.38716C1.03838 3.85199 3.90761 0.999999 7.4428 0.999998C21.7518 0.999994 39.3657 0.999999 48.6412 1C52.1916 1 55.0558 3.87817 55.0558 7.42857V48.5714ZM41.4309 53.0795H46.7068C50.2572 53.0795 53.1354 50.2014 53.1354 46.651V41.3751L42.2786 52.2318C42.2771 52.2334 42.2755 52.2353 42.2736 52.2368C42.2721 52.2384 42.2701 52.2403 42.2686 52.2418L41.4309 53.0795ZM26.4835 53.0795H38.7154L40.2371 51.5578L34.1212 45.4418L26.4835 53.0795ZM12.5283 53.0795H23.7676L40.4611 36.3861L34.8414 30.7664L17.1159 48.4919L12.5283 53.0795ZM2.97628 48.1147C2.97628 50.8567 5.19909 53.0795 7.94106 53.0795H9.81236L15.079 47.8129L9.17861 41.9124L2.97628 48.1147ZM35.479 44.0837L41.5949 50.1996L53.1354 38.6592V26.4277L42.4979 37.0652L35.479 44.0837ZM10.5368 40.5543L16.4368 46.4547L45.8864 17.0051L39.9859 11.1047L28.4405 22.6505C28.4393 22.6513 28.4378 22.6529 28.4378 22.6529L10.5368 40.5543ZM2.97628 32.4991V45.3984L8.48954 39.8848C8.493 39.8817 8.49607 39.8783 8.49915 39.8752C8.50222 39.8717 8.50568 39.8687 8.50875 39.8656L26.4006 21.9734L20.0857 15.6585L2.97628 32.4991ZM36.1992 29.4083L41.8188 35.0279L53.1073 23.7398C53.1165 23.7306 53.1261 23.7214 53.1354 23.7126V12.4721L36.1992 29.4083ZM2.97628 16.8277V29.8043L10.5805 22.3195L4.06441 15.8029L2.97628 16.8277ZM5.46289 14.4855L11.9495 20.9721L30.2246 2.98422H17.6736L5.46289 14.4855ZM21.4542 14.3111L27.7587 20.6156L45.4543 2.92046H33.0269L21.4542 14.3111ZM41.3437 9.74694L47.2441 15.6474L53.1354 9.75616V7.88563C53.1354 5.14344 50.9124 2.92046 48.1702 2.92046L41.3437 9.74694ZM8.76199 2.92046C5.56663 2.92046 2.97628 5.51081 2.97628 8.70617V14.1897L3.3354 13.8517C3.35576 13.8272 3.37688 13.8037 3.39993 13.7807C3.4368 13.7438 3.47598 13.7104 3.51708 13.6808L14.94 2.92046H8.76199Z" fill="#314AB4" stroke="#314AB4" stroke-width="1.62"/>
</svg>
