<svg width="30" height="30" viewBox="0 0 30 30" fill="none" xmlns="http://www.w3.org/2000/svg">
<path d="M18.7219 8.77526V3.76961C18.7219 3.43772 18.8538 3.11941 19.0885 2.88473C19.3231 2.65004 19.6414 2.5182 19.9733 2.5182C20.3052 2.5182 20.6235 2.65004 20.8582 2.88473C21.0929 3.11941 21.2247 3.43772 21.2247 3.76961V7.03705C22.0131 6.24365 27.1076 1.12288 27.8485 0.382041C27.9639 0.262519 28.102 0.167183 28.2547 0.101598C28.4073 0.0360129 28.5716 0.00149115 28.7377 4.72492e-05C28.9039 -0.00139665 29.0687 0.0302662 29.2225 0.0931882C29.3763 0.15611 29.516 0.249031 29.6335 0.36653C29.751 0.484028 29.8439 0.623751 29.9068 0.777544C29.9697 0.931338 30.0014 1.09612 30 1.26229C29.9985 1.42845 29.964 1.59266 29.8984 1.74533C29.8328 1.89801 29.7375 2.0361 29.618 2.15154C28.8771 2.89237 23.8089 7.98937 23.0255 8.77526H26.2304C26.5623 8.77526 26.8806 8.9071 27.1153 9.14178C27.35 9.37647 27.4818 9.69477 27.4818 10.0267C27.4818 10.3586 27.35 10.6769 27.1153 10.9115C26.8806 11.1462 26.5623 11.2781 26.2304 11.2781H21.2247C20.561 11.2781 19.9244 11.0144 19.455 10.545C18.9856 10.0756 18.7219 9.43904 18.7219 8.77526ZM28.8521 20.9627C29.5773 21.69 29.9846 22.6751 29.9846 23.7021C29.9846 24.7291 29.5773 25.7142 28.8521 26.4414L27.7108 27.7554C17.4605 37.564 -7.47762 12.6334 2.18202 2.35176L3.62115 1.10035C4.34901 0.395238 5.32523 0.00503951 6.33858 0.0141731C7.35194 0.0233066 8.32096 0.431038 9.036 1.14916C9.0748 1.1867 11.3924 4.2001 11.3924 4.2001C12.0781 4.92409 12.4596 5.88372 12.4582 6.88087C12.4568 7.87802 12.0726 8.83657 11.3849 9.55864L9.93577 11.3807C10.7379 13.3292 11.9171 15.1 13.4055 16.5915C14.894 18.0829 16.6624 19.2657 18.6093 20.0717L20.4426 18.6138C21.1632 17.9243 22.1218 17.5389 23.1191 17.5375C24.1165 17.5361 25.0761 17.9188 25.7987 18.6063C25.7987 18.6063 28.8133 20.9252 28.8521 20.9627ZM27.1314 22.7823C27.1314 22.7823 24.1368 20.4772 24.098 20.4397C23.8402 20.184 23.4918 20.0406 23.1288 20.0406C22.7657 20.0406 22.4174 20.184 22.1595 20.4397C22.1258 20.4722 19.6017 22.4845 19.6017 22.4845C19.4316 22.6199 19.2291 22.7086 19.0143 22.742C18.7995 22.7753 18.5797 22.7521 18.3765 22.6747C15.853 21.7358 13.5608 20.2653 11.6553 18.3629C9.74988 16.4604 8.27573 14.1706 7.33283 11.6485C7.24924 11.4426 7.22198 11.2181 7.25387 10.9982C7.28576 10.7782 7.37565 10.5708 7.51429 10.3971C7.51429 10.3971 9.52656 7.87674 9.56034 7.84421C9.81597 7.5864 9.95939 7.23804 9.95939 6.87499C9.95939 6.51193 9.81597 6.16358 9.56034 5.90577C9.5228 5.86823 7.2177 2.8711 7.2177 2.8711C6.95603 2.63647 6.61453 2.51081 6.26319 2.51989C5.91184 2.52896 5.57728 2.67208 5.32807 2.9199L3.88895 4.17131C-3.17151 12.6596 18.4429 33.0752 25.88 26.0497L27.0213 24.7345C27.2904 24.4876 27.4524 24.1454 27.473 23.7808C27.4936 23.4162 27.371 23.0579 27.1314 22.7823Z" fill="#A63A42"/>
</svg>
