<svg width="52" height="52" viewBox="0 0 52 52" fill="none" xmlns="http://www.w3.org/2000/svg">
<path d="M41.1667 0H10.8333C7.96121 0.00344036 5.20771 1.14591 3.17681 3.17681C1.14591 5.20771 0.00344036 7.96121 0 10.8333L0 41.1667C0.00344036 44.0388 1.14591 46.7923 3.17681 48.8232C5.20771 50.8541 7.96121 51.9966 10.8333 52H41.1667C44.0388 51.9966 46.7923 50.8541 48.8232 48.8232C50.8541 46.7923 51.9966 44.0388 52 41.1667V10.8333C51.9966 7.96121 50.8541 5.20771 48.8232 3.17681C46.7923 1.14591 44.0388 0.00344036 41.1667 0V0ZM47.6667 10.8333H32.5V4.33333H41.1667C42.8906 4.33333 44.5439 5.01815 45.7629 6.23714C46.9818 7.45613 47.6667 9.10943 47.6667 10.8333ZM23.8333 4.33333H28.1667V15.1667C28.1667 15.7413 27.9384 16.2924 27.5321 16.6987C27.1257 17.1051 26.5746 17.3333 26 17.3333C25.4254 17.3333 24.8743 17.1051 24.4679 16.6987C24.0616 16.2924 23.8333 15.7413 23.8333 15.1667V4.33333ZM10.8333 4.33333H19.5V10.8333H4.33333C4.33333 9.10943 5.01815 7.45613 6.23714 6.23714C7.45613 5.01815 9.10943 4.33333 10.8333 4.33333ZM41.1667 47.6667H10.8333C9.10943 47.6667 7.45613 46.9818 6.23714 45.7629C5.01815 44.5439 4.33333 42.8906 4.33333 41.1667V15.1667H19.5C19.5 16.8906 20.1848 18.5439 21.4038 19.7629C22.6228 20.9818 24.2761 21.6667 26 21.6667C27.7239 21.6667 29.3772 20.9818 30.5962 19.7629C31.8152 18.5439 32.5 16.8906 32.5 15.1667H47.6667V41.1667C47.6667 42.8906 46.9818 44.5439 45.7629 45.7629C44.5439 46.9818 42.8906 47.6667 41.1667 47.6667ZM43.3333 41.1667C43.3333 41.7413 43.1051 42.2924 42.6987 42.6987C42.2924 43.1051 41.7413 43.3333 41.1667 43.3333H34.6667C34.092 43.3333 33.5409 43.1051 33.1346 42.6987C32.7283 42.2924 32.5 41.7413 32.5 41.1667C32.5 40.592 32.7283 40.0409 33.1346 39.6346C33.5409 39.2283 34.092 39 34.6667 39H41.1667C41.7413 39 42.2924 39.2283 42.6987 39.6346C43.1051 40.0409 43.3333 40.592 43.3333 41.1667Z" fill="#314AB4"/>
</svg>
