<svg xmlns="http://www.w3.org/2000/svg" viewBox="0 0 31 30">
  <circle cx="15.25" cy="15" r="15"/>
  <path fill="white" d="M14.42 17.6l-2.15 2.62a.7.7 0 00.28 1.1l2.11.83a.7.7 0 00.96-.64l.1-3.44a.73.73 0 00-1.3-.48zM14.06 14.98l-3.2-1.15a.7.7 0 00-.94.64l-.07 2.27a.7.7 0 00.92.69l3.27-1.07a.73.73 0 00.02-1.38zM17.73 15.35l3.28-.9a.7.7 0 00.4-1.07l-1.25-1.9a.7.7 0 00-1.15-.03l-2.06 2.76a.73.73 0 00.78 1.14zM15.36 7.47c.02-.56-.51-.99-1.06-.84l-2.6.7a.84.84 0 00-.45 1.3l2.97 5.15a.87.87 0 001.55-.16c.04-.1.05-.22.04-.34l-.45-5.8zM21.03 17.7l-3.3-1a.73.73 0 00-.8 1.11l1.95 2.78c.28.4.85.4 1.14.02l1.36-1.8a.7.7 0 00-.35-1.1z"/>
</svg>
