<svg width="340" height="116" viewBox="0 0 340 116" fill="none" xmlns="http://www.w3.org/2000/svg">
<circle cx="57.362" cy="57.362" r="57.362" fill="white"/>
<path fill-rule="evenodd" clip-rule="evenodd" d="M34.5489 106.566C41.4446 109.738 49.1195 111.497 57.1982 111.497C72.5479 111.497 86.3972 105.153 96.2648 94.9454C87.4936 94.2533 76.9335 95.1472 66.1426 99.9052C56.1884 104.317 45.0513 106.22 34.5489 106.566Z" fill="#2A985D"/>
<path fill-rule="evenodd" clip-rule="evenodd" d="M17.1796 93.9362C20.7573 97.8291 24.9121 101.203 29.4997 103.942H29.5862C41.1562 104.058 53.8802 102.356 65.0462 97.4254C77.1644 92.0618 88.994 91.4275 98.5442 92.4367C100.737 89.8703 102.699 87.1019 104.372 84.1318C94.476 82.2286 80.5402 81.652 66.1426 88.0247C54.6016 93.1287 41.4736 94.8589 29.5574 94.7436C25.2295 94.686 21.0459 94.3976 17.1796 93.9362Z" fill="#2A985D"/>
<path fill-rule="evenodd" clip-rule="evenodd" d="M9.87988 83.9013C11.2648 86.3523 12.8517 88.688 14.5829 90.8796C19.1416 91.5428 24.2197 91.9754 29.5862 92.033C37.0014 92.1196 44.9359 91.4563 52.6107 89.6396L52.4376 89.582C50.8796 89.0341 49.3792 88.4285 47.9654 87.794C33.6545 81.479 19.7764 81.9981 9.87988 83.9013Z" fill="#2A985D"/>
<path fill-rule="evenodd" clip-rule="evenodd" d="M73.4665 5.788L69.9466 21.2161C69.6993 22.3001 68.62 22.9785 67.5359 22.7311L61.5304 21.361C60.4415 21.1125 59.7602 20.0285 60.0086 18.9396L63.5256 3.52423C65.2039 3.74546 66.8869 4.04677 68.5703 4.43083C70.2389 4.81152 71.8718 5.2653 73.4665 5.788Z" fill="#DBDBDB"/>
<path fill-rule="evenodd" clip-rule="evenodd" d="M89.6186 30.4574C87.5666 27.7621 85.1714 25.3136 82.4793 23.1841L85.2469 10.9689C88.1655 12.7005 90.9085 14.6965 93.443 16.9245H93.4417C97.8174 20.7911 101.585 25.379 104.541 30.4574H89.6186ZM47.9476 15.3652C38.6151 17.4903 30.2977 22.8485 24.5744 30.4574H10.2656C13.2217 25.3786 16.9892 20.7905 21.3943 16.9237H21.3974C29.3747 9.8888 39.4542 5.16751 50.5724 3.78027L47.9476 15.3652ZM17.9787 43.9914C19.3306 38.9653 21.6027 34.4083 24.574 30.4579H10.2733C7.8389 34.642 5.95514 39.2012 4.70898 43.9914H17.9787ZM89.619 30.4579C92.6935 34.4962 94.9976 39.0884 96.3761 43.9914H110.113C108.866 39.2012 106.983 34.642 104.548 30.4579H89.619ZM4.704 43.9926H17.9784C17.8395 44.509 17.7103 45.0304 17.5911 45.5566C15.5729 54.4641 16.7221 63.3589 20.3013 71.0873C21.7394 74.1923 23.5697 77.1091 25.7444 79.7627C20.2623 79.5485 14.7333 79.9928 9.25506 81.0427L8.4436 81.187C6.87863 77.9839 5.63248 74.6078 4.70508 71.0873L4.71962 71.0873C3.61847 66.7592 3.00988 62.2004 3.00977 57.5261H2.99414C2.99414 52.8515 3.60274 48.321 4.704 43.9926ZM48.0895 84.6209C45.3493 83.4809 42.5577 82.547 39.7293 81.8113L39.7293 71.0873V58.7171C39.7293 57.2344 40.4909 55.8556 41.746 55.0661L55.0137 46.7201C56.4049 45.845 58.1725 45.8366 59.572 46.6983L73.1699 55.0713C74.445 55.8564 75.2217 57.2467 75.2217 58.7442V71.0873V81.8892C72.3867 82.6004 69.5879 83.5084 66.8401 84.6209H48.0895ZM111.833 57.5248C111.833 62.1995 111.224 66.7588 110.123 71.0873H94.3374C95.4129 68.6989 96.2664 66.1695 96.8671 63.5182C98.38 56.8405 98.1129 50.1699 96.3764 43.9926H110.108C111.238 48.3206 111.817 52.8506 111.817 57.5248H111.833ZM94.3374 71.0873C92.8811 74.3211 91.0176 77.2964 88.8232 79.9658C94.3201 79.759 99.8638 80.2117 105.356 81.2736L106.225 81.4467C107.877 78.1571 109.152 74.6944 110.109 71.0873L94.3374 71.0873ZM53.731 64.1732C52.7054 64.1732 51.874 65.0047 51.874 66.0303V73.381C51.874 74.4066 52.7054 75.238 53.731 75.238H61.0818C62.1074 75.238 62.9388 74.4066 62.9388 73.381V66.0303C62.9388 65.0047 62.1074 64.1732 61.0818 64.1732H53.731ZM48.0889 84.621C48.5236 84.7941 48.9294 84.9672 49.3351 85.1404C50.7552 85.7752 52.1752 86.3234 53.5953 86.8428L57.4207 88.1703C60.029 87.3911 62.6083 86.4677 65.1007 85.3712C65.6803 85.1115 66.2599 84.8517 66.8395 84.621H48.0889Z" fill="#A63A42"/>
<path d="M142.692 15.3008V50.3438H151.352C157.41 50.3438 161.014 47.1398 161.014 41.6331V41.0824C161.014 36.0262 157.86 32.9224 155.257 32.6721V32.1715C157.81 31.8711 160.364 29.2679 160.364 24.2117V23.9614C160.364 18.4046 157.059 15.3008 151.252 15.3008L142.692 15.3008ZM149.7 21.4083H151.152C152.754 21.4083 153.355 22.1592 153.355 23.9614V26.865C153.355 28.6672 152.754 29.368 151.152 29.368H149.7V21.4083ZM149.7 35.4755H151.252C152.904 35.4755 153.605 36.2765 153.605 38.1288V41.6331C153.605 43.4853 152.954 44.2363 151.302 44.2363H149.7V35.4755ZM164.964 15.2507L161.06 50.2937L168.068 50.2937L168.819 41.6331H171.873L172.674 50.2937H179.683L175.928 15.2507L164.964 15.2507ZM169.37 35.5256L170.121 27.1653H170.621L171.322 35.5256H169.37ZM178.17 15.3008L183.477 40.6318V50.3438H190.486V40.6318L195.992 15.3008L188.934 15.3008L187.282 30.9199H186.831L185.179 15.3008H178.17ZM205.611 15.3008V50.3438L212.069 50.3438L211.318 27.4657H211.768L214.672 50.3438H219.328L222.231 27.4657H222.682L221.931 50.3438H228.339V15.3008L219.278 15.3008L217.275 38.329H216.774L214.722 15.3008H205.611ZM233.408 15.2507L229.503 50.2937H236.512L237.262 41.6331H240.316L241.117 50.2937H248.126L244.371 15.2507L233.408 15.2507ZM237.813 35.5256L238.564 27.1653H239.065L239.766 35.5256H237.813ZM266.752 27.716V23.9614C266.752 18.1543 263.398 14.8002 257.641 14.8002C251.984 14.8002 248.78 18.0542 248.78 23.9614V24.5622C248.78 30.0188 249.982 32.5219 253.736 34.2741L255.638 35.1251C259.243 36.8772 259.794 37.5781 259.794 39.6807V42.2338C259.794 43.8358 259.043 44.7369 257.741 44.7369C256.439 44.7369 255.689 43.8358 255.689 42.1838V37.9285H248.68V41.6331C248.68 47.5904 251.884 50.8444 257.641 50.8444C263.448 50.8444 266.852 47.4903 266.852 41.6331V40.8321C266.852 35.3754 265.601 32.9725 261.896 31.2704L260.194 30.5195C256.289 28.6672 255.789 27.9163 255.789 25.8137V23.4608C255.789 21.8088 256.49 20.9077 257.741 20.9077C258.993 20.9077 259.744 21.8088 259.744 23.4608V27.716L266.752 27.716ZM285.006 15.2507L267.735 15.2507V21.3582H272.841V50.2937H279.849V21.3582H285.006V15.2507ZM299.042 21.3582V15.2507L286.276 15.2507V50.3438L299.192 50.3438V44.2363L293.285 44.2363V35.025H298.942V28.9175H293.285V21.3582H299.042ZM300.551 15.3008V50.3938H307.56V36.9774H309.162C310.664 36.9774 311.365 37.7784 311.365 39.5806V43.185C311.365 45.8883 311.415 48.2412 311.865 50.3438H318.874C318.423 48.3914 318.373 46.2387 318.373 43.235V42.7344C318.373 37.6282 315.67 34.4242 313.217 34.1739V33.6733C315.67 33.423 318.373 30.5195 318.373 24.9126V24.6623C318.373 18.4547 315.019 15.3008 309.212 15.3008L300.551 15.3008ZM307.56 21.4083H309.162C310.664 21.4083 311.365 22.2593 311.365 24.0615V28.1666C311.365 30.0188 310.664 30.8699 309.162 30.8699H307.56V21.4083ZM145.996 64.2507L142.091 99.2937H149.1L149.851 90.6331H152.904L153.705 99.2937H160.714L156.959 64.2507H145.996ZM150.401 84.5256L151.152 76.1653H151.653L152.354 84.5256H150.401ZM161.807 64.3008L161.807 99.3438H168.816V88.0799H170.418C176.625 88.0799 179.629 85.0763 179.629 76.5658V76.4657C179.629 68.1555 176.375 64.3008 170.468 64.3008H161.807ZM168.816 70.4083H170.418C172.02 70.4083 172.62 71.2593 172.62 73.462V79.119C172.62 81.1715 172.02 82.0225 170.418 82.0225H168.816V70.4083ZM180.971 64.3008L180.971 99.3438L187.98 99.3438V88.0799H189.582C195.789 88.0799 198.793 85.0763 198.793 76.5658V76.4657C198.793 68.1555 195.539 64.3008 189.632 64.3008H180.971ZM187.98 70.4083H189.582C191.184 70.4083 191.784 71.2593 191.784 73.462V79.119C191.784 81.1715 191.184 82.0225 189.582 82.0225H187.98V70.4083ZM200.185 64.2507V99.3438H212.951V93.2363H207.194V64.2507H200.185ZM214.02 64.3008V99.3438H221.028V64.3008H214.02ZM226.026 64.2507L222.121 99.2937H229.129L229.88 90.6331H232.934L233.735 99.2937H240.744L236.989 64.2507H226.026ZM230.431 84.5256L231.182 76.1653H231.683L232.383 84.5256H230.431ZM253.301 64.3008L254.953 87.329H254.552L249.546 64.3008H241.837V99.3438H248.845L247.293 76.4657H247.694L252.55 99.3438H260.309V64.3008H253.301ZM268.986 72.4107C268.986 70.5084 269.987 69.8576 271.039 69.8576C272.09 69.8576 273.091 70.5084 273.091 72.4107V80.4206L280.1 80.4206V72.9114C280.1 66.8539 276.495 63.7501 270.938 63.7501C265.482 63.7501 261.977 66.7538 261.977 72.9114V90.6331C261.977 96.8407 265.482 99.8444 270.938 99.8444C276.495 99.8444 280.1 96.7406 280.1 90.6331V83.1739L273.091 83.1739V91.1838C273.091 93.0861 272.09 93.7369 271.039 93.7369C269.987 93.7369 268.986 93.0861 268.986 91.1838V72.4107ZM294.495 70.3582V64.2507H281.729L281.729 99.3438H294.645V93.2363H288.738V84.025H294.395V77.9175H288.738V70.3582H294.495Z" fill="white"/>
</svg>
