<svg width="100" height="36" viewBox="0 0 100 36" fill="none" xmlns="http://www.w3.org/2000/svg">
<circle cx="17.9889" cy="17.9889" r="17.9889" fill="white"/>
<path fill-rule="evenodd" clip-rule="evenodd" d="M10.8335 33.4198C12.996 34.4146 15.4029 34.9662 17.9364 34.9662C22.7501 34.9662 27.0933 32.9767 30.1878 29.7754C27.4371 29.5584 24.1254 29.8387 20.7414 31.3308C17.6197 32.7144 14.127 33.3113 10.8335 33.4198Z" fill="#2A985D"/>
<path fill-rule="evenodd" clip-rule="evenodd" d="M5.38639 29.4589C6.50838 30.6798 7.81134 31.7378 9.25002 32.5969H9.27716C12.9055 32.6331 16.8958 32.0996 20.3976 30.5532C24.1978 28.8711 27.9076 28.6722 30.9026 28.9887C31.5903 28.1839 32.2056 27.3157 32.7304 26.3843C29.6268 25.7874 25.2565 25.6066 20.7414 27.6051C17.1221 29.2057 13.0051 29.7483 9.26812 29.7121C7.91088 29.6941 6.59888 29.6036 5.38639 29.4589Z" fill="#2A985D"/>
<path fill-rule="evenodd" clip-rule="evenodd" d="M3.09717 26.3119C3.53147 27.0806 4.02914 27.8131 4.57205 28.5004C6.00167 28.7084 7.59418 28.844 9.27716 28.8621C11.6026 28.8892 14.0909 28.6812 16.4977 28.1115L16.4434 28.0934C15.9548 27.9216 15.4843 27.7317 15.0409 27.5327C10.553 25.5523 6.20074 25.7151 3.09717 26.3119Z" fill="#2A985D"/>
<path fill-rule="evenodd" clip-rule="evenodd" d="M23.0389 1.81541L22.0092 6.32845C21.8907 6.84817 21.3732 7.17336 20.8535 7.05479L19.6225 6.77394C19.1005 6.65484 18.7739 6.13512 18.893 5.6131L19.9214 1.10561C20.4479 1.175 20.9759 1.26952 21.5041 1.39002C22.0271 1.50935 22.539 1.65158 23.0389 1.81541Z" fill="#DBDBDB"/>
<path fill-rule="evenodd" clip-rule="evenodd" d="M30.2241 13.7952C29.5034 11.2309 27.9753 8.93761 25.8658 7.26891L26.7335 3.43896C27.649 3.98206 28.5095 4.60815 29.3045 5.30705H29.3043C30.6766 6.51964 31.8581 7.95844 32.7851 9.55109H32.7869C33.5504 10.8632 34.1411 12.293 34.5319 13.7952H30.2241ZM15.0365 4.81683C10.5899 5.82936 6.87808 9.18234 5.6378 13.7952H1.47697C1.86775 12.2931 2.45848 10.8634 3.22187 9.55123H3.22021C4.14725 7.95852 5.32876 6.51966 6.71022 5.30703H6.71047C9.21204 3.10089 12.3728 1.62024 15.8593 1.18506L15.0365 4.81683ZM5.51655 14.285C5.55384 14.1204 5.59424 13.9573 5.63768 13.7957H1.47567C1.13031 15.1531 0.939453 16.5739 0.939453 18.0399H0.943848C0.943885 19.5056 1.13471 20.9352 1.47999 22.2924H1.47559C1.76642 23.3964 2.15722 24.4552 2.648 25.4597L2.90248 25.4144C4.62068 25.0851 6.35478 24.9458 8.07419 25.013C5.69421 22.1095 4.62927 18.2011 5.51655 14.285ZM15.0811 26.5366C14.2221 26.1792 13.3469 25.8864 12.4603 25.6557L12.4603 18.8074C12.4603 18.0965 12.8254 17.4355 13.4271 17.057L16.8767 14.887C17.5437 14.4675 18.3911 14.4634 19.062 14.8766L22.6072 17.0595C23.2185 17.4359 23.5908 18.1024 23.5908 18.8203V25.6797C22.7014 25.9027 21.8234 26.1876 20.9614 26.5366H15.0811ZM30.3778 19.9178C29.9342 21.8755 29.0513 23.6212 27.8545 25.0767C29.5786 25.0118 31.3174 25.1538 33.04 25.4868L33.3127 25.5411C33.8307 24.5096 34.2305 23.4238 34.5305 22.2927H34.535C34.8804 20.9353 35.0712 19.5055 35.0712 18.0394H35.0668C35.0668 16.5736 34.885 15.153 34.5306 13.7957H30.2243C30.7685 15.7326 30.8522 17.8241 30.3778 19.9178ZM20.9613 26.5369H15.0811C15.2174 26.5912 15.3446 26.6455 15.4719 26.6998C15.9172 26.8989 16.3625 27.0708 16.8079 27.2337L18.0076 27.65C18.8255 27.4057 19.6344 27.1161 20.416 26.7722C20.5978 26.6907 20.7796 26.6093 20.9613 26.5369ZM17.1588 20.1239C16.6671 20.1239 16.2686 20.5225 16.2686 21.0142V22.7036C16.2686 23.1953 16.6671 23.5939 17.1588 23.5939H18.8482C19.3399 23.5939 19.7385 23.1953 19.7385 22.7036V21.0142C19.7385 20.5225 19.3399 20.1239 18.8482 20.1239H17.1588Z" fill="#A63A42"/>
<path d="M44.7485 4.70973V15.6993H47.4645C49.3641 15.6993 50.4945 14.6946 50.4945 12.9676V12.7949C50.4945 11.2093 49.5054 10.2359 48.6891 10.1574V10.0004C49.4897 9.90624 50.2904 9.08987 50.2904 7.50423V7.42573C50.2904 5.68309 49.2542 4.70973 47.4331 4.70973H44.7485ZM46.9464 6.62506H47.4017C47.9041 6.62506 48.0925 6.86055 48.0925 7.42573V8.3363C48.0925 8.90148 47.9041 9.12127 47.4017 9.12127H46.9464V6.62506ZM46.9464 11.0366H47.4331C47.9512 11.0366 48.171 11.2878 48.171 11.8687V12.9676C48.171 13.5485 47.9669 13.784 47.4488 13.784H46.9464V11.0366Z" fill="#333333"/>
<path d="M51.7333 4.69403L50.5087 15.6836H52.7067L52.9421 12.9676H53.8998L54.151 15.6836H56.3489L55.1715 4.69403H51.7333ZM53.1148 11.0523L53.3503 8.43049H53.5073L53.7271 11.0523H53.1148Z" fill="#333333"/>
<path d="M55.8747 4.70973L57.5389 12.6536V15.6993H59.7368V12.6536L61.4637 4.70973H59.2501L58.732 9.60795H58.5907L58.0727 4.70973H55.8747Z" fill="#333333"/>
<path d="M64.4801 4.70973V15.6993H66.5053L66.2699 8.52469H66.4111L67.3217 15.6993H68.7818L69.6923 8.52469H69.8336L69.5981 15.6993H71.6077V4.70973H68.7661L68.1381 11.9315H67.9811L67.3374 4.70973H64.4801Z" fill="#333333"/>
<path d="M73.1973 4.69403L71.9728 15.6836H74.1707L74.4062 12.9676H75.3639L75.6151 15.6836H77.813L76.6355 4.69403H73.1973ZM74.5789 11.0523L74.8144 8.43049H74.9714L75.1912 11.0523H74.5789Z" fill="#333333"/>
<path d="M83.6543 8.60319V7.42573C83.6543 5.6046 82.6024 4.55273 80.797 4.55273C79.0229 4.55273 78.0182 5.5732 78.0182 7.42573V7.61412C78.0182 9.32536 78.395 10.1103 79.5724 10.6598L80.169 10.9267C81.2994 11.4762 81.472 11.696 81.472 12.3554V13.156C81.472 13.6584 81.2366 13.941 80.8284 13.941C80.4202 13.941 80.1847 13.6584 80.1847 13.1403V11.8059H77.9868V12.9676C77.9868 14.8359 78.9915 15.8563 80.797 15.8563C82.6181 15.8563 83.6857 14.8045 83.6857 12.9676V12.7164C83.6857 11.0052 83.2932 10.2516 82.1314 9.71785L81.5976 9.48236C80.3731 8.90148 80.2161 8.66599 80.2161 8.00661V7.26874C80.2161 6.75065 80.4359 6.46807 80.8284 6.46807C81.2209 6.46807 81.4564 6.75065 81.4564 7.26874V8.60319H83.6543Z" fill="#333333"/>
<path d="M89.3787 4.69403H83.9624V6.60936H85.5637V15.6836H87.7616V6.60936H89.3787V4.69403Z" fill="#333333"/>
<path d="M93.7804 6.60936V4.69403H89.7771V15.6993H93.8275V13.784H91.975V10.8953H93.749V8.97997H91.975V6.60936H93.7804Z" fill="#333333"/>
<path d="M94.2538 4.70973V15.715H96.4518V11.5076H96.9541C97.4251 11.5076 97.6449 11.7588 97.6449 12.324V13.4543C97.6449 14.3021 97.6606 15.04 97.8019 15.6993H99.9998C99.8585 15.0871 99.8428 14.412 99.8428 13.47V13.313C99.8428 11.7117 98.9951 10.7069 98.2258 10.6284V10.4714C98.9951 10.3929 99.8428 9.48236 99.8428 7.72402V7.64552C99.8428 5.69879 98.791 4.70973 96.9698 4.70973H94.2538ZM96.4518 6.62506H96.9541C97.4251 6.62506 97.6449 6.89195 97.6449 7.45713V8.74448C97.6449 9.32536 97.4251 9.59225 96.9541 9.59225H96.4518V6.62506Z" fill="#333333"/>
<path d="M45.7847 20.3935L44.5601 31.3831H46.758L46.9935 28.6671H47.9512L48.2024 31.3831H50.4003L49.2228 20.3935H45.7847ZM47.1662 26.7517L47.4017 24.1299H47.5587L47.7785 26.7517H47.1662Z" fill="#333333"/>
<path d="M50.7431 20.4092V31.3988H52.941V27.8664H53.4434C55.3902 27.8664 56.3321 26.9244 56.3321 24.2555V24.2241C56.3321 21.618 55.3117 20.4092 53.4591 20.4092H50.7431ZM52.941 22.3245H53.4434C53.9458 22.3245 54.1342 22.5914 54.1342 23.2822V25.0562C54.1342 25.6999 53.9458 25.9668 53.4434 25.9668H52.941V22.3245Z" fill="#333333"/>
<path d="M56.7531 20.4092V31.3988H58.951V27.8664H59.4534C61.4001 27.8664 62.3421 26.9244 62.3421 24.2555V24.2241C62.3421 21.618 61.3216 20.4092 59.4691 20.4092H56.7531ZM58.951 22.3245H59.4534C59.9557 22.3245 60.1441 22.5914 60.1441 23.2822V25.0562C60.1441 25.6999 59.9557 25.9668 59.4534 25.9668H58.951V22.3245Z" fill="#333333"/>
<path d="M62.7787 20.3935V31.3988H66.782V29.4834H64.9766V20.3935H62.7787Z" fill="#333333"/>
<path d="M67.1171 20.4092V31.3988H69.3151V20.4092H67.1171Z" fill="#333333"/>
<path d="M70.8823 20.3935L69.6577 31.3831H71.8557L72.0912 28.6671H73.0488L73.3 31.3831H75.4979L74.3205 20.3935H70.8823ZM72.2638 26.7517L72.4993 24.1299H72.6563L72.8761 26.7517H72.2638Z" fill="#333333"/>
<path d="M79.4359 20.4092L79.954 27.6309H79.8284L78.2585 20.4092H75.8407V31.3988H78.0387L77.552 24.2241H77.6776L79.2004 31.3988H81.6338V20.4092H79.4359Z" fill="#333333"/>
<path d="M84.3549 22.9525C84.3549 22.3559 84.6688 22.1518 84.9985 22.1518C85.3282 22.1518 85.6422 22.3559 85.6422 22.9525V25.4644H87.8401V23.1095C87.8401 21.2098 86.7098 20.2365 84.9671 20.2365C83.2559 20.2365 82.1569 21.1784 82.1569 23.1095V28.6671C82.1569 30.6138 83.2559 31.5558 84.9671 31.5558C86.7098 31.5558 87.8401 30.5824 87.8401 28.6671V26.3278H85.6422V28.8398C85.6422 29.4363 85.3282 29.6404 84.9985 29.6404C84.6688 29.6404 84.3549 29.4363 84.3549 28.8398V22.9525Z" fill="#333333"/>
<path d="M92.3546 22.3088V20.3935H88.3512V31.3988H92.4017V29.4834H90.5491V26.5947H92.3232V24.6794H90.5491V22.3088H92.3546Z" fill="#333333"/>
</svg>
