<svg width="166" height="57" viewBox="0 0 166 57" fill="none" xmlns="http://www.w3.org/2000/svg">
<circle cx="28.0062" cy="28.0062" r="28.0062" fill="white"/>
<path fill-rule="evenodd" clip-rule="evenodd" d="M16.8662 52.0292C20.2329 53.5779 23.9801 54.4367 27.9244 54.4367C35.4186 54.4367 42.1804 51.3393 46.9981 46.3554C42.7157 46.0175 37.5598 46.4539 32.2913 48.7769C27.4314 50.931 21.9938 51.8602 16.8662 52.0292Z" fill="#2A985D"/>
<path fill-rule="evenodd" clip-rule="evenodd" d="M8.38588 45.8627C10.1327 47.7633 12.1612 49.4105 14.401 50.748H14.4432C20.0921 50.8043 26.3044 49.9737 31.7561 47.5662C37.6726 44.9475 43.4482 44.6378 48.111 45.1306C49.1816 43.8775 50.1395 42.5259 50.9566 41.0758C46.1247 40.1466 39.3208 39.8651 32.2914 42.9765C26.6566 45.4684 20.2471 46.3132 14.4292 46.2569C12.3161 46.2287 10.2735 46.088 8.38588 45.8627Z" fill="#2A985D"/>
<path fill-rule="evenodd" clip-rule="evenodd" d="M4.8219 40.9633C5.49805 42.1599 6.27284 43.3003 7.11807 44.3704C9.34378 44.6941 11.8231 44.9053 14.4432 44.9335C18.0636 44.9757 21.9375 44.6519 25.6846 43.7649L25.6001 43.7368C24.8394 43.4693 24.1069 43.1736 23.4166 42.8638C16.4295 39.7806 9.65371 40.0341 4.8219 40.9633Z" fill="#2A985D"/>
<path fill-rule="evenodd" clip-rule="evenodd" d="M35.868 2.82581L34.1495 10.3579C34.0288 10.8872 33.5018 11.2184 32.9725 11.0976L30.0404 10.4287C29.5088 10.3074 29.1762 9.77808 29.2974 9.24645L31.0145 1.72058C31.8339 1.82859 32.6556 1.97571 33.4776 2.16323C34.2922 2.34909 35.0894 2.57062 35.868 2.82581Z" fill="#DBDBDB"/>
<path fill-rule="evenodd" clip-rule="evenodd" d="M43.7526 14.8705C42.7509 13.5545 41.5815 12.359 40.2672 11.3192L41.6186 5.3546C43.044 6.20012 44.3836 7.17484 45.6214 8.26293H45.6215C47.7581 10.1508 49.5976 12.3909 51.0408 14.8705H43.7526ZM23.4079 7.50044C18.8503 8.53789 14.7885 11.1546 11.9939 14.8705H5.01244C6.4557 12.3909 8.29515 10.1508 10.4459 8.26293H10.4464C14.3408 4.82854 19.2613 2.52353 24.689 1.84595L23.4079 7.50044ZM8.77425 21.4782C9.43413 19.0243 10.5433 16.7994 11.9938 14.8707H5.01468C3.82612 16.9135 2.9064 19.1395 2.29798 21.4782H8.77425ZM43.7527 14.8707C45.2536 16.8424 46.3784 19.0844 47.0512 21.4782H53.7597C53.1513 19.1395 52.2316 16.9135 51.043 14.8707H43.7527ZM2.29575 21.4789H8.77407C8.70638 21.7306 8.64343 21.9848 8.58531 22.2413C7.20397 28.338 8.86183 34.4227 12.5669 38.943C9.89062 38.8385 7.19145 39.0554 4.51702 39.568L4.12083 39.6384C3.35676 38.0746 2.74835 36.4262 2.29555 34.7074L2.30306 34.7074C1.76545 32.5943 1.46831 30.3686 1.46825 28.0864H1.46094C1.46094 25.8041 1.75808 23.5922 2.29575 21.4789ZM23.4774 41.315C22.1395 40.7584 20.7765 40.3024 19.3956 39.9432L19.3956 28.667C19.3956 27.943 19.7674 27.2698 20.3802 26.8844L26.8579 22.8096C27.5372 22.3823 28.4002 22.3782 29.0834 22.7989L35.7225 26.8869C36.345 27.2703 36.7242 27.949 36.7242 28.6801V39.9813C35.3401 40.3285 33.9736 40.7719 32.6321 41.315H23.4774ZM47.2907 31.0108C46.6001 34.0586 45.2256 36.7762 43.3624 39.0423C46.047 38.9411 48.7546 39.1621 51.4368 39.6807L51.8613 39.7652C52.6678 38.1591 53.2904 36.4685 53.7573 34.7074L53.7648 34.7074C54.3025 32.5941 54.5996 30.3681 54.5996 28.0857H54.5923C54.5923 25.8037 54.3093 23.592 53.7575 21.4789H47.0514C47.899 24.4945 48.0293 27.7509 47.2907 31.0108ZM32.6324 41.3152H23.4777C23.69 41.3997 23.8881 41.4842 24.0862 41.5688C24.7795 41.8787 25.4728 42.1463 26.1661 42.4L28.0339 43.048C29.3073 42.6676 30.5666 42.2168 31.7835 41.6814C32.0665 41.5546 32.3495 41.4278 32.6324 41.3152ZM26.2337 31.3314C25.7329 31.3314 25.327 31.7373 25.327 32.2381V35.8269C25.327 36.3277 25.7329 36.7336 26.2337 36.7336H29.8226C30.3233 36.7336 30.7292 36.3277 30.7292 35.8269V32.2381C30.7292 31.7373 30.3233 31.3314 29.8226 31.3314H26.2337Z" fill="#A63A42"/>
<path d="M69.667 6.96439V24.0736H73.8954C76.8528 24.0736 78.6126 22.5093 78.6126 19.8207V19.5519C78.6126 17.0833 77.0728 15.5679 75.8018 15.4457V15.2013C77.0484 15.0546 78.2949 13.7836 78.2949 11.315V11.1928C78.2949 8.47978 76.6818 6.96439 73.8465 6.96439L69.667 6.96439ZM73.0888 9.94629H73.7976C74.5798 9.94629 74.8731 10.3129 74.8731 11.1928V12.6104C74.8731 13.4903 74.5798 13.8325 73.7976 13.8325H73.0888V9.94629ZM73.0888 16.8144H73.8465C74.6531 16.8144 74.9953 17.2055 74.9953 18.1098V19.8207C74.9953 20.7251 74.6775 21.0917 73.871 21.0917H73.0888V16.8144ZM80.5413 6.93995L78.6348 24.0492L82.0566 24.0492L82.4233 19.8207H83.9142L84.3053 24.0492H87.7271L85.894 6.93995L80.5413 6.93995ZM82.6921 16.8389L83.0588 12.7571H83.3032L83.6454 16.8389H82.6921ZM86.9889 6.96439L89.5797 19.3319V24.0736H93.0016V19.3319L95.6902 6.96439L92.2439 6.96439L91.4373 14.5902H91.2173L90.4108 6.96439L86.9889 6.96439ZM100.386 6.96439V24.0736L103.539 24.0736L103.173 12.9037H103.393L104.81 24.0736H107.083L108.501 12.9037H108.721L108.354 24.0736H111.483V6.96439L107.059 6.96439L106.081 18.2076H105.837L104.835 6.96439H100.386ZM113.958 6.93995L112.051 24.0492H115.473L115.84 19.8207H117.331L117.722 24.0492H121.144L119.31 6.93995L113.958 6.93995ZM116.109 16.8389L116.475 12.7571H116.72L117.062 16.8389H116.109ZM130.238 13.0259V11.1928C130.238 8.35757 128.6 6.71998 125.789 6.71998C123.027 6.71998 121.463 8.30869 121.463 11.1928V11.4861C121.463 14.1503 122.05 15.3724 123.883 16.2278L124.812 16.6433C126.571 17.4988 126.84 17.841 126.84 18.8675V20.114C126.84 20.8962 126.474 21.3361 125.838 21.3361C125.203 21.3361 124.836 20.8962 124.836 20.0896V18.0121H121.414V19.8207C121.414 22.7293 122.978 24.318 125.789 24.318C128.624 24.318 130.286 22.6804 130.286 19.8207V19.4297C130.286 16.7655 129.675 15.5923 127.867 14.7613L127.036 14.3947C125.129 13.4903 124.885 13.1237 124.885 12.0972V10.9484C124.885 10.1418 125.227 9.70187 125.838 9.70187C126.449 9.70187 126.816 10.1418 126.816 10.9484V13.0259L130.238 13.0259ZM139.15 6.93995L130.717 6.93995V9.92184H133.21V24.0492H136.632V9.92184H139.15V6.93995ZM146.003 9.92184V6.93995L139.77 6.93995V24.0736H146.076V21.0917H143.192V16.5944H145.954V13.6125H143.192V9.92184L146.003 9.92184ZM146.74 6.96439V24.0981H150.161V17.5477H150.944C151.677 17.5477 152.019 17.9387 152.019 18.8186V20.5784C152.019 21.8983 152.043 23.0471 152.263 24.0736H155.685C155.465 23.1204 155.441 22.0694 155.441 20.6029V20.3585C155.441 17.8654 154.121 16.3011 152.923 16.1789V15.9345C154.121 15.8123 155.441 14.3947 155.441 11.6572V11.535C155.441 8.50422 153.803 6.96439 150.968 6.96439L146.74 6.96439ZM150.161 9.94629H150.944C151.677 9.94629 152.019 10.3618 152.019 11.2417V13.2459C152.019 14.1503 151.677 14.5658 150.944 14.5658H150.161V9.94629ZM71.2801 31.94L69.3737 49.0492H72.7955L73.1621 44.8207H74.6531L75.0442 49.0492H78.466L76.6329 31.94H71.2801ZM73.431 41.8389L73.7976 37.7571H74.042L74.3842 41.8389H73.431ZM78.9997 31.9644V49.0736H82.4215V43.5742H83.2037C86.2345 43.5742 87.701 42.1077 87.701 37.9526V37.9037C87.701 33.8464 86.1123 31.9644 83.2281 31.9644L78.9997 31.9644ZM82.4215 34.9463H83.2037C83.9858 34.9463 84.2791 35.3618 84.2791 36.4372V39.1991C84.2791 40.2013 83.9858 40.6168 83.2037 40.6168H82.4215V34.9463ZM88.3563 31.9644V49.0736L91.7781 49.0736V43.5742H92.5603C95.5911 43.5742 97.0576 42.1077 97.0576 37.9526V37.9037C97.0576 33.8464 95.4689 31.9644 92.5847 31.9644H88.3563ZM91.7781 34.9463H92.5603C93.3424 34.9463 93.6357 35.3618 93.6357 36.4372V39.1991C93.6357 40.2013 93.3424 40.6168 92.5603 40.6168H91.7781V34.9463ZM97.7373 31.94L97.7373 49.0736H103.97V46.0917H101.159V31.94H97.7373ZM104.492 31.9644V49.0736H107.914V31.9644H104.492ZM110.353 31.94L108.447 49.0492H111.869L112.235 44.8207H113.726L114.118 49.0492H117.539L115.706 31.94H110.353ZM112.504 41.8389L112.871 37.7571H113.115L113.458 41.8389H112.504ZM123.67 31.9644L124.477 43.2076H124.281L121.837 31.9644H118.073V49.0736H121.495L120.737 37.9037H120.933L123.304 49.0736H127.092V31.9644L123.67 31.9644ZM131.328 35.924C131.328 34.9952 131.817 34.6774 132.33 34.6774C132.844 34.6774 133.333 34.9952 133.333 35.924V39.8346L136.754 39.8346V36.1684C136.754 33.2109 134.995 31.6955 132.282 31.6955C129.617 31.6955 127.906 33.162 127.906 36.1684V44.8207C127.906 47.8515 129.617 49.318 132.282 49.318C134.995 49.318 136.754 47.8026 136.754 44.8207V41.1789L133.333 41.1789V45.0896C133.333 46.0184 132.844 46.3361 132.33 46.3361C131.817 46.3361 131.328 46.0184 131.328 45.0896V35.924ZM143.783 34.9218V31.94H137.55V49.0736H143.856V46.0917H140.972V41.5944H143.734V38.6125H140.972V34.9218H143.783Z" fill="white"/>
</svg>
