<svg width="163" height="56" viewBox="0 0 163 56" fill="none" xmlns="http://www.w3.org/2000/svg">
<path d="M68.408 7.2V24H72.56C75.464 24 77.192 22.464 77.192 19.824V19.56C77.192 17.136 75.68 15.648 74.432 15.528V15.288C75.656 15.144 76.88 13.896 76.88 11.472V11.352C76.88 8.688 75.296 7.2 72.512 7.2L68.408 7.2ZM71.768 10.128H72.464C73.232 10.128 73.52 10.488 73.52 11.352V12.744C73.52 13.608 73.232 13.944 72.464 13.944H71.768V10.128ZM71.768 16.872H72.512C73.304 16.872 73.64 17.256 73.64 18.144V19.824C73.64 20.712 73.328 21.072 72.536 21.072H71.768V16.872ZM79.0858 7.176L77.2138 23.976L80.5738 23.976L80.9338 19.824H82.3978L82.7818 23.976H86.1418L84.3418 7.176L79.0858 7.176ZM81.1978 16.896L81.5578 12.888H81.7978L82.1338 16.896H81.1978ZM85.4169 7.2L87.9609 19.344V24H91.3209V19.344L93.9609 7.2H90.5769L89.7849 14.688H89.5689L88.7769 7.2L85.4169 7.2ZM98.5721 7.2V24L101.668 24L101.308 13.032H101.524L102.916 24H105.148L106.54 13.032L106.756 13.032L106.396 24H109.468V7.2L105.124 7.2L104.164 18.24H103.924L102.94 7.2H98.5721ZM111.898 7.176L110.026 23.976H113.386L113.746 19.824H115.21L115.594 23.976H118.954L117.154 7.176L111.898 7.176ZM114.01 16.896L114.37 12.888H114.61L114.946 16.896H114.01ZM127.884 13.152V11.352C127.884 8.568 126.276 6.96 123.516 6.96C120.804 6.96 119.268 8.52 119.268 11.352V11.64C119.268 14.256 119.844 15.456 121.644 16.296L122.556 16.704C124.284 17.544 124.548 17.88 124.548 18.888V20.112C124.548 20.88 124.188 21.312 123.564 21.312C122.94 21.312 122.58 20.88 122.58 20.088V18.048H119.22V19.824C119.22 22.68 120.756 24.24 123.516 24.24C126.3 24.24 127.932 22.632 127.932 19.824V19.44C127.932 16.824 127.332 15.672 125.556 14.856L124.74 14.496C122.868 13.608 122.628 13.248 122.628 12.24V11.112C122.628 10.32 122.964 9.888 123.564 9.888C124.164 9.888 124.524 10.32 124.524 11.112V13.152H127.884ZM136.635 7.176L128.355 7.176V10.104H130.803V23.976H134.163V10.104H136.635V7.176ZM143.364 10.104V7.176L137.244 7.176V24H143.436V21.072H140.604V16.656H143.316V13.728H140.604V10.104L143.364 10.104ZM144.088 7.2V24.024L147.448 24.024V17.592H148.216C148.936 17.592 149.272 17.976 149.272 18.84V20.568C149.272 21.864 149.296 22.992 149.512 24H152.872C152.656 23.064 152.632 22.032 152.632 20.592V20.352C152.632 17.904 151.336 16.368 150.16 16.248V16.008C151.336 15.888 152.632 14.496 152.632 11.808V11.688C152.632 8.712 151.024 7.2 148.24 7.2H144.088ZM147.448 10.128L148.216 10.128C148.936 10.128 149.272 10.536 149.272 11.4V13.368C149.272 14.256 148.936 14.664 148.216 14.664H147.448V10.128ZM69.992 31.176L68.12 47.976H71.48L71.84 43.824H73.304L73.688 47.976H77.048L75.248 31.176H69.992ZM72.104 40.896L72.464 36.888H72.704L73.04 40.896H72.104ZM77.5721 31.2V48H80.9321V42.6H81.7001C84.6761 42.6 86.1161 41.16 86.1161 37.08V37.032C86.1161 33.048 84.5561 31.2 81.7241 31.2L77.5721 31.2ZM80.9321 34.128H81.7001C82.4681 34.128 82.7561 34.536 82.7561 35.592V38.304C82.7561 39.288 82.4681 39.696 81.7001 39.696H80.9321V34.128ZM86.7596 31.2V48L90.1196 48V42.6H90.8876C93.8636 42.6 95.3036 41.16 95.3036 37.08V37.032C95.3036 33.048 93.7436 31.2 90.9116 31.2H86.7596ZM90.1196 34.128H90.8876C91.6556 34.128 91.9436 34.536 91.9436 35.592V38.304C91.9436 39.288 91.6556 39.696 90.8876 39.696H90.1196V34.128ZM95.9711 31.176V48H102.091V45.072H99.3311V31.176H95.9711ZM102.603 31.2V48H105.963V31.2H102.603ZM108.359 31.176L106.487 47.976H109.847L110.207 43.824H111.671L112.055 47.976H115.415L113.615 31.176H108.359ZM110.471 40.896L110.831 36.888H111.071L111.407 40.896H110.471ZM121.435 31.2L122.227 42.24H122.035L119.635 31.2H115.939V48H119.299L118.555 37.032H118.747L121.075 48H124.795V31.2L121.435 31.2ZM128.955 35.088C128.955 34.176 129.435 33.864 129.939 33.864C130.443 33.864 130.923 34.176 130.923 35.088V38.928L134.283 38.928V35.328C134.283 32.424 132.555 30.936 129.891 30.936C127.275 30.936 125.595 32.376 125.595 35.328V43.824C125.595 46.8 127.275 48.24 129.891 48.24C132.555 48.24 134.283 46.752 134.283 43.824V40.248L130.923 40.248V44.088C130.923 45 130.443 45.312 129.939 45.312C129.435 45.312 128.955 45 128.955 44.088V35.088ZM141.184 34.104V31.176H135.064V48H141.256V45.072H138.424V40.656H141.136V37.728H138.424V34.104H141.184Z" fill="#333333"/>
<circle cx="27.5" cy="27.5" r="27.5" fill="white"/>
<path fill-rule="evenodd" clip-rule="evenodd" d="M16.561 51.089C19.8669 52.6097 23.5463 53.453 27.4193 53.453C34.7781 53.453 41.4177 50.4116 46.1483 45.5177C41.9433 45.1859 36.8807 45.6145 31.7074 47.8955C26.9352 50.0106 21.5959 50.923 16.561 51.089Z" fill="#2A985D"/>
<path fill-rule="evenodd" clip-rule="evenodd" d="M8.23395 45.0339C9.94915 46.9002 11.941 48.5176 14.1403 49.8309H14.1818C19.7286 49.8862 25.8287 49.0707 31.1818 46.7066C36.9914 44.1353 42.6626 43.8312 47.2411 44.315C48.2924 43.0846 49.233 41.7575 50.0352 40.3336C45.2908 39.4212 38.6097 39.1447 31.7074 42.1999C26.1745 44.6468 19.8808 45.4763 14.168 45.421C12.0932 45.3933 10.0875 45.2551 8.23395 45.0339Z" fill="#2A985D"/>
<path fill-rule="evenodd" clip-rule="evenodd" d="M4.73438 40.223C5.39831 41.3981 6.1591 42.5179 6.98905 43.5686C9.17453 43.8865 11.609 44.0939 14.1818 44.1215C17.7368 44.163 21.5406 43.845 25.22 42.9741L25.1371 42.9464C24.3901 42.6838 23.6708 42.3934 22.993 42.0893C16.1322 39.0618 9.47886 39.3106 4.73438 40.223Z" fill="#2A985D"/>
<path fill-rule="evenodd" clip-rule="evenodd" d="M35.1095 3.10527L33.7497 9.06573C33.4501 10.3787 32.1428 11.2003 30.8298 10.9008C29.511 10.5999 28.6858 9.28684 28.9867 7.96802L30.3437 2.02006C31.1484 2.12613 31.9554 2.2706 32.7626 2.45475C33.5624 2.63723 34.3451 2.85473 35.1095 3.10527Z" fill="#DBDBDB"/>
<path fill-rule="evenodd" clip-rule="evenodd" d="M46.1841 30.7132C47.858 23.3254 44.9561 15.9559 39.3341 11.5082L40.7319 5.3388C44.2343 7.43737 47.1962 10.3351 49.3722 13.8C51.7091 17.5212 53.0631 21.7748 53.3073 26.1622C53.5458 30.4474 52.718 34.7232 50.9001 38.6074C48.6883 38.1371 46.3941 37.8897 44.0421 37.8897C43.644 37.8897 43.2476 37.8968 42.853 37.9108C44.4164 35.8346 45.574 33.406 46.1841 30.7132ZM35.8785 28.3419L35.8785 38.9133C32.9695 39.6581 30.2162 40.7917 27.6773 42.2554L27.3905 42.2972L27.1043 42.2556C24.5872 40.8044 21.8594 39.6777 18.9781 38.9327L18.9781 28.3301C18.9781 27.6845 19.3097 27.084 19.8563 26.7402L26.3485 22.6563C26.9543 22.2753 27.7241 22.2716 28.3335 22.6468L34.985 26.7425C35.5403 27.0844 35.8785 27.6898 35.8785 28.3419ZM8.43534 22.1604C7.14237 27.8671 8.57963 33.5629 11.8919 37.9095C11.5092 37.8963 11.1249 37.8897 10.739 37.8897C8.38697 37.8897 6.09275 38.1371 3.88095 38.6074C2.06521 34.7278 1.23712 30.4574 1.47289 26.1771C1.71456 21.7895 3.06613 17.5351 5.40097 13.8126C7.7358 10.09 10.9775 7.0211 14.8222 4.89343C17.7444 3.27627 20.9424 2.24309 24.2382 1.83984L22.8914 7.7839C15.9026 9.37484 10.109 14.7736 8.43534 22.1604ZM25.5717 31.026C25.1251 31.026 24.7631 31.388 24.7631 31.8346V35.486C24.7631 35.9326 25.1251 36.2947 25.5717 36.2947H29.2231C29.6697 36.2947 30.0318 35.9326 30.0318 35.486V31.8346C30.0318 31.388 29.6697 31.026 29.2231 31.026H25.5717Z" fill="#A63A42"/>
</svg>
