<svg xmlns="http://www.w3.org/2000/svg" viewBox="0 0 90 101">
  <path fill="none" stroke="#fff" stroke-width="2.61" d="M34.59 12.23c.18-1.4 2.34-4.62 3.92-6.36.54-.6 1-1.24 1.98-1.98 1.43-1.09 4.87-1.64 6.7-1.82.78-.08.9-.07 1.5-.07.61 0 .82.01 1.45.07 1.83.18 5.35.75 6.76 1.91.55.43 1.2.86 1.77 1.52a22.59 22.59 0 013.3 5" transform="scale(.92783 .9266)"/>
  <path stroke="#fff" stroke-width="3.23" d="M95.16 22.15l.06-1.25-1.2-.37-44.94-13.8-.47-.14-.48.15-44.6 13.79-1.2.37.06 1.25.06 1.31c.01 1.2.52 16.75 6.08 34.57 3.3 10.7 7.78 19.96 13.3 27.52 6.97 9.56 15.61 16.49 25.68 20.4h.02l.02.01.67.25.55.2.56-.2.67-.25.04-.02c10.06-3.97 18.7-10.83 25.67-20.4h0c5.53-7.6 9.95-16.88 13.3-27.5h0a140.82 140.82 0 006.07-34.15v-.1l.01-.2v-.1zm0 0" transform="scale(.92783 .9266)"/>
  <path fill="none" stroke="#fff" stroke-width="1.89" d="M15.35 62.07l1.43-4.56c.2-.64.5-1.24.86-1.8l.37-.56.04-.04c.08-.08.1-.21.05-.31l-.3-.6a1.2 1.2 0 01.27-1.41l.75-.67c.1-.1.22-.18.33-.25l1.56-1 2.4-1.71c.6-.43 1.27-.77 1.98-1l3.24-1.04c.36-.12.64-.41.73-.79.1-.4.42-.72.84-.8l3.38-.75c.64-.14 1.21-.49 1.62-1l1.7-2.5c.23-.33.44-.68.6-1.05l.5-1.07c.13-.28.32-.53.56-.73l.51-.43c.05-.03.1-.05.16-.05.13 0 .24-.1.25-.23l.2-2.2a2.62 2.62 0 00-.38-1.65l-.47-.76a5.42 5.42 0 01-.51-1.1l-.37-1.11c-.26-.77-.45-1.55-.58-2.35l-.28-1.64-.84-4.58c-.17-.94-.26-1.9-.26-2.85v-4.1a12.07 12.07 0 012.2-6.98l.03-.02c.4-.58.85-1.11 1.35-1.6l.5-.51a8.32 8.32 0 014.26-2.28l2.06-.42 1.68-.16a15 15 0 012.95 0l.2.01c1.1.1 2.16.34 3.18.7l.61.2a8.43 8.43 0 013.67 2.56l.27.32c.35.42.67.87.96 1.34l.36.59a12.34 12.34 0 011.8 5.82l.16 3.26a15.8 15.8 0 01-.22 3.5l-.8 4.57-.38 2.11c-.17.9-.42 1.79-.77 2.63l-.73 1.79c-.11.27-.27.51-.46.73L57.2 35a.38.38 0 00.02.52c.04.04.06.09.09.14l.7 2c.13.38.44.66.82.77.32.1.59.3.75.6l1.32 2.38 1.69 2.39c.13.2.3.37.48.53l.63.54a.7.7 0 00.46.17h.1l2.5.4a4.8 4.8 0 012.67 1.35c.51.5 1.13.9 1.81 1.13l1.18.42c.62.22 1.21.52 1.75.9l5.2 3.67c.5.35.61 1.05.24 1.53l-.23.29a.5.5 0 00-.05.52l.04.07.4.54a8.5 8.5 0 011.26 2.54l1.16 3.82" transform="scale(.92783 .9266)"/>
  <path fill="#fff" d="M34.3 9.14l1.64-2.41 12.68-2.64 5.74 2.6s1.17 1.45 1.73 2.52c.5.95.93 2.59.93 2.59l.27 2.23.13 4.23-.1.84s-.06.2-.12.67c-.02.09-.14 0-.14 0l-.29-.02-.57-.18-1.18-.49-1.02-.75-.9-1.06-.5-.78-.44-.7-.53-1.05-1.2-1.15-1.26-.7-1.81-.74-2.75-.24-4.5 2.1-3.18 4.01-1.64 1.17-1.06.16s-1.07.09-1.09.04c-.24-1.09-.15-1.35-.15-1.35l.13-1.68.1-3.15.03-.33.05-.26.04-.25.11-.46.16-.58.18-.5s.06-.53.15-.85c.1-.35.36-.84.36-.84zm0 0"/>
  <path fill="#fff" d="M34.3 9.14l1.64-2.41 12.68-2.64 5.74 2.6s1.17 1.45 1.73 2.52c.5.95.93 2.59.93 2.59l.27 2.23.13 4.23-.1.84s-.06.2-.12.67c-.02.09-.14 0-.14 0l-.29-.02-.57-.18-1.18-.49-1.02-.75-.9-1.06-.5-.78-.44-.7-.53-1.05-1.2-1.15-1.26-.7-1.81-.74-2.75-.24-4.5 2.1-3.18 4.01-1.64 1.17-1.06.16s-1.07.09-1.09.04c-.24-1.09-.15-1.35-.15-1.35l.13-1.68.1-3.15.03-.33.05-.26.04-.25.11-.46.16-.58.18-.5s.06-.53.15-.85c.1-.35.36-.84.36-.84zm0 0M30.64 64.04l4.68.4 10.75 2.26 8.18 2.41 4.13 1.75 1.86 6.87-9.93-3.75 9.15 5.67-17.33-6.62L60 83.6l-9.96-3.67-16.78-9.06.89.78-3.7-.78h-1.98l-.93-.5-.74-2.68zm0 0M59.02 64.47l3.48.3 4.21 1.2-1.77 3.3-5.72-.68-5.39-1.11-1.88-.8zm0 0M31.27 74.63l5.14.2 7.82 4.7-5.2 1.87-8.56 2.97-4.21-4.83 2.08-2.95zm0 0M45.14 83.21l1.2 3.42 3.68.1-2.9 2.28 1.1 3.46-3.01-2.04-3.05 2.04 1-3.5-2.92-2.24 3.67-.09zm0 0"/>
  <path d="M57.27 19.41l-.51 3.2-.51 3.18"/>
  <path fill="#fff" d="M24.37 64.71l-7.03.29 1.02 2.1 7.43-.28s-.17-5.98-.63-7.85a4.7 4.7 0 00-1.5-2.16 18.8 18.8 0 00-1.93-1.5l-.06-.05-1.78-1.18s-.23.48-.5 1.18l-.02.04c-.21.54-.44 1.2-.6 1.86-.22.8-.34 1.63-.25 2.27.28 1.87-1.42 3.02-1.42 3.02s4.83.85 7.27 2.26zm0 0M38.04 43.13c.23 1.02-1.02 2.43-.85 2.87l1.87-2.03 5.08 3.16c-.03-.06-2.71-3.56-3.73-4.34-.28-.22-1.86-2.7-1.86-2.7s-.52-1.74-1.51-2.52c-.33-.25-.69-.4-1.1-.36 0 0 .54 1.23 1.1 2.73.38 1.04.77 2.2 1 3.2zm0 0M51.6 44.29s3.5 1.13 6.04 5.1l.74-4.81-.2-.55-.04-.14-.21-.61s-3.28-5.67-3.73-5.44c0 0-1.24 4.34-2.31 6.06l-.1.14-.2.25zm0 0M35.9 61.2s6.39.28 10.78.4c1.76.06 12.02-.23 12.02-.23l.23-3.69-.46-.7-.06-.1.01-.1.01-.42.04-1.52.51-.73.06-2.45s-.8.06-1.7-.34c-.4-.16-2.4-1.42-4.23-2.15a31.87 31.87 0 00-3.29 6.05 48.67 48.67 0 00-.87 2.12c-.1-2.02.52-5.1 1.05-7.3l.33-1.25-.33.42c-2.47 3.17-3.73 9.59-3.9 10.46v.17c-4.27.52-10.2 1.36-10.2 1.36zm0 0"/>
  <path fill="#fff" d="M44.2 56.38l-.48-7.48-2.99-.97zm0 0M63.34 42.41l.75 16.01c.8-5.54 1.35-9.04.94-14.35l-.7-.48zm0 0M31.07 41.7l.43 3.68.29 4.8v-.06l.01-.02.17-.66v-.03l.1-.37.25-1.14.18-1.2.04-.33.07-.54v-.01l.03-.3.11-1.18v-1.21l-.07-1.24-.14-.62-.18-.56zm0 0M46 41.9v.48l.8-.32.55-.32.4-.23.71-.48.66-.52.26-.22.33-.3.4-.35.42-.42.3-.33.03-.02-.25.4-.05.08-.04.08-.94 1.6-.53.84-.39.65-.52.83-.66 1.04-.52.77-.03.06.36-.26.19-.16.52-.45.56-.55.43-.45.52-.67.85-1.13.79-1.23.52-.84.46-.84.46-.77.4-.84.29-.58-.08-.42-.52-1.68-.09-.26-.3-.64-.6.84-.55.8-.68.9-.69.59-.23.18-.49.27-.91.26-.66.06-.69.06.17 1.49.03.3-.03.28-.15.5-.02.05-.04.08-.32.57-.1.2-.15.3-.07.14-.07.29zm0 0M19.4 69.2h1.56l4.25-.4.58 1.66.22 1.82-3.94 1.37zm0 0"/>
  <path d="M32.53 11.5l-.15 1.46-.15 2.04L7.2 22.83a129.79 129.79 0 005.41 29.63c.3.91.6 1.86.94 2.82v.04l.67 1.86.1.27c.01-.1.04-.18.06-.27l.17-.69.04-.16a37.92 37.92 0 011.15-3.75c0-.03.02-.06.03-.08.04-.09.1-.17.17-.27l.18-.23.4-.47c.19-.23.34-.43.4-.6.12-.23-.96-1.13-.56-1.59 1.13-1.36 2.33-1.93 2.79-2.15l.29-.19.52-.34.25-.18a9.84 9.84 0 01.34-.23c.86-.6 1.78-1.28 1.78-1.28l1.35-.44.77-.26.7-.22.41-.14 1.22-.4.4-1.25s2.73-.74 3.58-.74c.16 0 .29.03.37.08.04.02.07.05.1.1.05-.07.05-.12.1-.18-.05.17-.1.28-.1.28l.18 2.1.01.14c.18 2.05.4 4.92.37 5.97v-.03l.01-.02.01-.02.15-.64v-.02c.15-.69.36-1.78.51-3.02v-.02l.06-.54c.05-.55.09-1.1.1-1.66l.02-.14c.02-.8-.02-1.6-.12-2.33-.06-.45-.17-.73-.23-.96.17-.17.46-.5.97-1.3.62-1.02 1.36-2.1 1.76-3 .34-.8 1.14-1.14 1.14-1.14l.23.06c.06-1.07.16-2.27.27-3.18l-.16-.16a12 12 0 01-2.05-4.93v-.06l-.06-.23a15.7 15.7 0 01-.18-.9c0-.06-.22-1.09-.22-1.14-.17-.85-.15-.9-.32-1.84l-.56-3.45c.81.1 2.15-.54 2.75-1.05 1.3-1.14 2-2.8 3.21-4.16a8.8 8.8 0 015.2-2.8c-2.09-.78-5.72 1.86-6.86 3.65-.96.96-1.66 2.16-2.8 2.96-.29.23-1.08.58-1.48.4-.06-.05-.12-.05-.17-.1.06-2.55.08-4.96.13-5.4.17-1.3.57-2.62 1.2-3.75-.06.29-.06.62-.11 1.13-.34 3.8.03 6.6.03 6.6s.29-.8.4-2.04c.23-2.15.3-4 .7-6.6.12-.68.46-1.36.91-1.87.51-.56 1.08-1.08 1.66-1.52 1.36-1.09 4.2-1.48 5.91-1.65.72-.07.82-.07 1.4-.07.56 0 .76.01 1.33.07 1.7.17 4.61.56 5.92 1.65.51.39 1.08.96 1.65 1.52.46.57.8 1.2.9 1.87.35 2.27.44 3.6.67 5.75.17 1.7.5 2.88.5 2.88s.31-2.85-.03-6.6c-.06-.5-.1-.85-.1-1.12a10.32 10.32 0 011.19 3.73c.06.46.14 2.86.2 5.41-.11.11-.34.17-.51.11l-.06-.01-.1-.04-.13-.06-.17-.06c-.06-.06-.1-.06-.16-.12-2.34-1.05-3.85-3.92-4.84-5.22-1.17-1.14-4.02-1.98-5.29-1.5 1.58.03 4.87 1.9 5.7 3.45.79 1.48 1.8 3.61 4.2 4.35.37.17.8.27 1.19.25l-1.02 6.38-.1.8c-.02.04-.02.07-.02.1a22.26 22.26 0 01-1.4 3.9l-.06.13-.13.2s0 .03-.2.25c-.05.07-.26.27-.26.27l-.29.32s-.61.6-1.04 1.1c-.87 1.03-1.72 2.76-2.72 3.6l-.49.37c-.5.4-1.2.51-1.88.57-.28 0-.5.06-.8.06.07.46.12 1.07.18 1.53.03.34-.05.66-.18.97l-.06.15c-.14.27-.28.53-.42.76-.06.1-.1.21-.15.31-.05.11-.08.2-.1.3-.06.17-.06.46-.06.85 1.46-.5 2.86-1.6 3.77-2.44.66-.61 1.06-1.07 1.06-1.07l-.02.05-.23.39-.01.02-.09.14-.71 1.19a179.56 179.56 0 01-2.86 4.6l.03-.02c1-.7 1.98-1.78 2.84-2.95 2-2.7 3.44-5.86 3.44-5.86 0-.56-.97-2.1-.97-2.96l.26-.39.33-.36c.29.4.9 2.24 1.12 2.75h.34s.8.34 1.14 1.13c.4.9 1.08 2.04 1.76 3 1.2 1.87 1.09 1.2 1.48 1.6.17.16.4.5.57.73.11-.12.23-.17.46-.17a8.34 8.34 0 011.48.23 32.53 32.53 0 012.1.5l.01.02.02.07.19.64.01.04.11.36c.03 1.37.19 6.26.28 10.06v.17L64 55.5l.01.17.03 1.69v.86l.12-.86.24-1.69.03-.17.22-1.73.02-.17.05-.47.03-.26.02-.2a42.76 42.76 0 00.27-6.3V46L65 44.27v-.2-.01l.03.01.59.2 2.5.89 1.3.93 1.25.87c.28.18.5.33.63.4.52.23 1.66.8 2.8 2.16.33.45-.69 1.35-.57 1.59.22.43.96 1.08 1.17 1.58l.02.06.05.14.1.27.17.47.05.17c.19.56.36 1.14.52 1.73l.05.17.43 1.68.05.24.1-.24.6-1.68.05-.17.6-1.73.05-.17.3-1A129.75 129.75 0 0083.26 23l-24.98-7.56-.44-3.94 28.97 9.13-.06 1.25c-.06.62-.4 15.07-5.58 31.67-3.07 9.75-7.11 18.19-12.12 25.1-6.32 8.67-14.11 14.85-23.16 18.42l-.63.22-.62-.22c-9.05-3.52-16.84-9.75-23.16-18.42-5-6.86-9.1-15.3-12.12-25.1a126.3 126.3 0 01-5.58-31.67l-.06-1.25zm3.4 25.67s.53 1.24 1.09 2.74c.38 1.05.78 2.22 1 3.21.23 1.02-1.02 2.44-.85 2.9V46l1.88-2.03 5.12 3.17c-.14-.19-2.75-3.58-3.75-4.35-.29-.24-1.88-2.73-1.88-2.73s-.52-1.75-1.52-2.53c-.32-.25-.69-.4-1.1-.36zm6.65 13.2c.57 1.08 1.6 5.9 1.6 5.9l-.51-7.42-1.7-.46-1.36-.5h-.02.02c.15.16 1.44 1.48 1.97 2.48zm8.6-43.9a4.32 4.32 0 011.59 3.02c.11 1.57.46 1.72.74 2.1.11.1.23.14.34.1.11-.06.17-.15.17-.24 0-.72-.17-1.4-.23-2.58-.11-1.67-1.65-2.67-2.5-3.3-1.09-.75-4.22-.9-4.27-.9.03 0 2.97.67 4.16 1.8zm7.03 37.58l-.05-.14-.21-.62s-2.34-4.02-3.36-5.15l-.09-.1a456.31 456.31 0 01-.12-.11c-.09-.07-.15-.1-.2-.08 0 0-1.24 4.34-2.32 6.06l-.09.14-.08.13h-.01l-.1.13s3.52 1.14 6.08 5.1l.74-4.81zm.81 7.63h-.16-.13a4.17 4.17 0 01-1.41-.35c-.4-.17-2.39-1.42-4.21-2.15a31.63 31.63 0 00-3.29 6.03c-.5 1.15-.82 1.99-.86 2.11l-.01.02c-.1-2.03.51-5.1 1.05-7.28v-.03l.32-1.2-.32.38c-2.46 3.18-3.73 9.58-3.9 10.45v.17c-4.26.5-10.18 1.36-10.18 1.36H36.16a.7.7 0 01.08 0H36.41l.13.02h.22a1.84 1.84 0 00.32.02c.09 0 .19 0 .3.02h.19l.12.02h.39l.95.05.25.01h.25l.26.02a.7.7 0 01.09 0l.17.01.24.01h.21l1.61.06.59.02.24.01h.23l.9.04.39.01 1.18.04h.33c.13.02.25.02.37.02s.24 0 .36.02h2.67l.96-.02h.1l.18-.01h.16l.35-.01.17-.01h.25l.37-.01.22-.01.51-.01.31-.01h.37l.23-.01.36-.01.68-.02.88-.02.67-.02h.52l.27-.01h.12l.81-.03h.69c.08 0 .13-.02.15-.02l.22-3.68-.46-.7-.05-.1v-.1l.02-.41.03-1.52.52-.73zm5.81 17.4s1.54-2.45 1.54-2.78c0-.9-7.23-1.65-7.23-1.65l-7 2.04c3.99 1.48 9.73 2.1 12.7 2.38zm-5.7 10.42a293.05 293.05 0 01-8.86-5.55c.18.07 5.86 2.28 9.61 3.46-.28-.68-.34-1.02-.62-1.82a18 18 0 01-1.31-4.64c-3.75-2.61-23.61-6.86-25.55-6.63-1.93.23-4.44 2.1-4.61 3.51-.23 2.15.57 2.97 2.17 2.35 1.08-.4 2.01 1.21 3.94 1.39-.8-.96-.65-.85-.65-.85 3.19.34 6.15 2.78 7.24 3.23 2.73 1.2 13.02 7.26 18.48 9.12-6.49-3.4-17.13-10.25-17.13-10.25s9.45 3.79 17.3 6.68zm-9.45 7.48l.3-.23-3.64-.11-1.2-3.4-1.2 3.4-3.64.11 2.9 2.21-1.02 3.45 3.02-2.04 3.02 2.04-1.13-3.43v-.02l2.55-1.94zm-19.22-2.95a255.43 255.43 0 0013.26-4.48c-2.4-2.03-6.83-4.25-7.28-4.47-.4-.23-4.9-.23-4.9-.23-.62 1.36-2.61 4.53-3.75 6.35.85.96 1.76 1.92 2.67 2.83zm-3.07-3.29l1.14-4.08c-.51.57-1.26 1.7-2 3.06l.86 1.02zm-5.35-7.2c1.14-.5 2.4-1.01 3.82-1.35l-.17-1.59s-2.28.63-4.44 1.65c.23.45.5.84.8 1.3zm-.85-1.35c.28-.4 1.53-2.1 3.86-3.35l-4.21.46-1.36-.06c.57 1.02 1.14 1.99 1.7 2.95zm3.17-7.48l-7.03.28h-.01l1.03 2.1 7.45-.28v-.03-.04-.17-.04-.05l-.01-.15v-.05l-.01-.08v-.02-.07l-.01-.32v-.09l-.01-.15v-.19l-.04-.75v-.07l-.03-.46-.01-.09v-.07l-.01-.08-.05-.9-.02-.16-.01-.17-.07-.95c0-.03 0-.07-.02-.11v-.06-.1l-.02-.08-.03-.31c-.07-.83-.17-1.54-.29-2a4.68 4.68 0 00-1.5-2.16 18.26 18.26 0 00-1.94-1.5l-.06-.04-1.79-1.18s-.22.48-.5 1.18l-.02.04c-.2.53-.44 1.2-.6 1.86a7.98 7.98 0 00-.27 1.58l.01.55.01.12.02.16.01.08v.4a3.49 3.49 0 01-1.44 2.37h-.01s4.83.84 7.28 2.25zm0 0"/>
  <path fill="#fff" fill-rule="evenodd" d="M52.53 18.49c-.5-.63-1.4-2.49-1.9-3.18-1.6-2.16-3.73-2.32-5.65-2.32-2.23 0-5.16 2.46-6.21 4.51-.35.34-.27.8-.57 1.14 1.44.09 5.12-.15 6.08.45 0 0 .84.75.94 1.43.1.67.05 3.08-.24 3.75-.3.68-1.88 1.02-1.84 2.08 0 0 .55-.15 1.14.19.5.29.35.53 1.04.58.7.05 1.09-.82 1.78-.58.7.24 0 1.2-.99 1.06-.98-.14-.5.44-1.38.48-1.83.1-2.97 1.74-.45 1.2.15-.04.55-.28.84-.28.3 0 .6.29.74.29.4 0 1.13.06 1.72.1.58 0 .65.03.93-.06l.33-.09.34-.13s.74-.55 1.12-.45c0 0-.07.69-.34 1.05-.12.29-.7.61-.78.65a6.1 6.1 0 01-1.63.28c-1.2 0-1.78.04-2.38.04-.6 0-2.03-.29-2.27.53-.25.83 1.28.44 2.08.49.73.05 1.38.38 1.23 1.1 0 0-3.46-.28-4.2.54-.74.82.14 1.96 3.17 2.14 3.03.2 3.92-.3 4.05-.41 1.58-1.4 1.36-2.57 2.68-3.86 0 0 1.52-1.44 1.66-2.16.2-.78.45-1.6.55-2.37l.42-1.6c.1-1.44-.13-4.52-.37-4.7-.45-.4-.68-.86-1.08-1.3-.64-.04-1.5.33-1.5.33s1.2.29 1.69 1.3c-1.29.38-1.48 1.4-3.17 1.5-1.68.04-2.91-1.3-2.91-1.84 0 0 .03-1.71 2.57-1.88 1.09.15 2.31 0 2.76 0zm-12.35 4c.4-.05 1.68 0 1.98.53.3.53-1 2.9-1.68 2.84-.6 0-1.24-.96-1.83-1.73-.54-.82-.4-1.35 1.53-1.64zm0 0"/>
  <path fill="#fff" stroke="#000" stroke-width="1.18" d="M30.36 60.04l-.58-.1.04-.26c.15-.96.35-2.3 1.36-3.29h.01c.25-.24.54-.43.88-.52.12-.04.25-.05.3-.05h.08c.34 0 .62.06.85.23.21.16.33.46.26.34l.05.08.02.1-.59.1.59-.1h0v.03l.01.06h0l.02.2V57l-.01.08c.06.54.03 1.05 0 1.5-.02.06-.02.13-.02.18-.04.54-.05 1.03.08 1.57a7.64 7.64 0 001.01 2.33l.12.21c.1.18.23.4.28.6.1.33.2.98.27 1.5a55.33 55.33 0 01.1.81c.3.38.53.58.67.67h0l.09.05.2.09c.15.04.32.1.47.17h.01l.39.15c.07.02.15.02.26.02h.02c.11 0 .3 0 .47.05.34.08.68.18.96.33.27.13.59.36.72.74v.03l.1.38.15.95-.63-.2c-.12.09-.26.22-.44.38-.4.36-.9.89-1.35 1.54-.9 1.31-1.54 3.06-.78 4.99l.17.44-.4.26c-.18.12-.38.23-.57.3h0-.02a.98.98 0 01-.32.03c-.1 0-.18-.01-.26-.03-.16-.03-.34-.09-.52-.14-.34-.12-.73-.27-1.03-.4-.25-.1-.55-.3-.77-.46a2.06 2.06 0 00-.05-.04l-.35-.23c-.1-.07-.17-.1-.2-.1h0a9.5 9.5 0 00-1.38-.34l-.08-.01h-.42c-.3 0-.7 0-1.18-.02a13.6 13.6 0 01-3.09-.44 6.07 6.07 0 01-2.02-.89h0a2.02 2.02 0 00-.2-.14l-.07-.04a7.61 7.61 0 01-.54-.37c-.49-.28-.9-.57-1.22-.89-.33-.32-.58-.69-.67-1.11-.02-.1-.02-.2-.02-.24v-.22V70.81a1.08 1.08 0 01.25-.7l-.27-.34c-.3-.34-.34-.77-.31-1.1.02-.35.13-.68.22-.93l.01-.02.01-.02c.08-.17.2-.32.36-.42a1.9 1.9 0 01-.21-.31c-.1-.17-.17-.38-.15-.63v-.04-.16a5.3 5.3 0 01.19-1.1c.06-.16.18-.44.45-.62l.19-.1c-.1-.11-.18-.23-.24-.36a1.11 1.11 0 01-.13-.59c.02-.56.36-1.48 1.46-2.24a2 2 0 011.36-.28c.44.04.92.17 1.36.28h0l.02.01c.1.03.19.06.27.07l.09.02.07.04a7.18 7.18 0 002.26.73h1.09s0 0 0 0a4.2 4.2 0 01-.16-2.04zm0 0c-.14.83.05 1.45.15 1.83.07.2.1.34.06.4l1.86-5.87-.2.03c-.22.06-.43.19-.63.38-.87.84-1.05 1.99-1.2 2.97l-.04.26zm0 0" transform="scale(.92783 .9266)"/>
</svg>
