<svg width="166" height="57" viewBox="0 0 166 57" fill="none" xmlns="http://www.w3.org/2000/svg">
<path d="M69.6675 6.96453V24.0737H73.8959C76.8533 24.0737 78.6131 22.5095 78.6131 19.8209V19.552C78.6131 17.0834 77.0733 15.568 75.8023 15.4458V15.2014C77.0489 15.0547 78.2954 13.7838 78.2954 11.3152V11.1929C78.2954 8.47991 76.6822 6.96453 73.847 6.96453L69.6675 6.96453ZM73.0893 9.94642H73.7981C74.5802 9.94642 74.8735 10.313 74.8735 11.1929V12.6106C74.8735 13.4905 74.5802 13.8326 73.7981 13.8326H73.0893V9.94642ZM73.0893 16.8145H73.847C74.6536 16.8145 74.9958 17.2056 74.9958 18.11V19.8209C74.9958 20.7252 74.678 21.0918 73.8714 21.0918H73.0893V16.8145ZM80.5417 6.94008L78.6353 24.0493L82.0571 24.0493L82.4237 19.8209H83.9147L84.3058 24.0493H87.7276L85.8945 6.94008L80.5417 6.94008ZM82.6926 16.839L83.0592 12.7572H83.3037L83.6458 16.839H82.6926ZM86.9894 6.96453L89.5802 19.332V24.0737H93.002V19.332L95.6906 6.96453L92.2444 6.96453L91.4378 14.5903H91.2178L90.4112 6.96453L86.9894 6.96453ZM100.387 6.96453V24.0737L103.54 24.0737L103.173 12.9039H103.393L104.811 24.0737H107.084L108.501 12.9039H108.721L108.355 24.0737H111.483V6.96453L107.059 6.96453L106.082 18.2077H105.837L104.835 6.96453H100.387ZM113.958 6.94008L112.052 24.0493H115.474L115.84 19.8209H117.331L117.722 24.0493H121.144L119.311 6.94008L113.958 6.94008ZM116.109 16.839L116.476 12.7572H116.72L117.062 16.839H116.109ZM130.238 13.0261V11.1929C130.238 8.3577 128.6 6.72011 125.79 6.72011C123.028 6.72011 121.463 8.30882 121.463 11.1929V11.4862C121.463 14.1504 122.05 15.3725 123.883 16.2279L124.812 16.6434C126.572 17.4989 126.841 17.8411 126.841 18.8676V20.1142C126.841 20.8963 126.474 21.3363 125.839 21.3363C125.203 21.3363 124.836 20.8963 124.836 20.0897V18.0122H121.415V19.8209C121.415 22.7294 122.979 24.3181 125.79 24.3181C128.625 24.3181 130.287 22.6806 130.287 19.8209V19.4298C130.287 16.7657 129.676 15.5925 127.867 14.7614L127.036 14.3948C125.13 13.4905 124.885 13.1238 124.885 12.0973V10.9485C124.885 10.1419 125.227 9.702 125.839 9.702C126.45 9.702 126.816 10.1419 126.816 10.9485V13.0261L130.238 13.0261ZM139.15 6.94008L130.718 6.94008V9.92197H133.211V24.0493H136.633V9.92197H139.15V6.94008ZM146.003 9.92197V6.94008L139.77 6.94008V24.0737H146.076V21.0918H143.192V16.5946H145.954V13.6127H143.192V9.92197L146.003 9.92197ZM146.74 6.96453V24.0982H150.162V17.5478H150.944C151.677 17.5478 152.019 17.9389 152.019 18.8188V20.5786C152.019 21.8984 152.044 23.0472 152.264 24.0737H155.686C155.466 23.1205 155.441 22.0695 155.441 20.603V20.3586C155.441 17.8655 154.121 16.3013 152.924 16.1791V15.9346C154.121 15.8124 155.441 14.3948 155.441 11.6573V11.5351C155.441 8.50435 153.804 6.96453 150.968 6.96453L146.74 6.96453ZM150.162 9.94642H150.944C151.677 9.94642 152.019 10.3619 152.019 11.2418V13.246C152.019 14.1504 151.677 14.5659 150.944 14.5659H150.162V9.94642ZM71.2806 31.9401L69.3742 49.0493H72.796L73.1626 44.8209H74.6536L75.0446 49.0493H78.4665L76.6334 31.9401H71.2806ZM73.4315 41.839L73.7981 37.7572H74.0425L74.3847 41.839H73.4315ZM79.0002 31.9645V49.0737H82.422V43.5743H83.2042C86.2349 43.5743 87.7014 42.1078 87.7014 37.9527V37.9039C87.7014 33.8465 86.1127 31.9645 83.2286 31.9645L79.0002 31.9645ZM82.422 34.9464H83.2042C83.9863 34.9464 84.2796 35.3619 84.2796 36.4374V39.1993C84.2796 40.2014 83.9863 40.6169 83.2042 40.6169H82.422V34.9464ZM88.3568 31.9645V49.0737L91.7786 49.0737V43.5743H92.5608C95.5915 43.5743 97.058 42.1078 97.058 37.9527V37.9039C97.058 33.8465 95.4693 31.9645 92.5852 31.9645H88.3568ZM91.7786 34.9464H92.5608C93.3429 34.9464 93.6362 35.3619 93.6362 36.4374V39.1993C93.6362 40.2014 93.3429 40.6169 92.5608 40.6169H91.7786V34.9464ZM97.7378 31.9401L97.7378 49.0737H103.97V46.0918H101.16V31.9401H97.7378ZM104.492 31.9645V49.0737H107.914V31.9645H104.492ZM110.354 31.9401L108.447 49.0493H111.869L112.236 44.8209H113.727L114.118 49.0493H117.54L115.707 31.9401H110.354ZM112.505 41.839L112.871 37.7572H113.116L113.458 41.839H112.505ZM123.671 31.9645L124.477 43.2077H124.282L121.838 31.9645H118.074V49.0737H121.495L120.738 37.9039H120.933L123.304 49.0737H127.093V31.9645L123.671 31.9645ZM131.329 35.9241C131.329 34.9953 131.818 34.6776 132.331 34.6776C132.844 34.6776 133.333 34.9953 133.333 35.9241V39.8348L136.755 39.8348V36.1685C136.755 33.2111 134.995 31.6957 132.282 31.6957C129.618 31.6957 127.907 33.1622 127.907 36.1685V44.8209C127.907 47.8516 129.618 49.3181 132.282 49.3181C134.995 49.3181 136.755 47.8028 136.755 44.8209V41.1791L133.333 41.1791V45.0897C133.333 46.0185 132.844 46.3363 132.331 46.3363C131.818 46.3363 131.329 46.0185 131.329 45.0897V35.9241ZM143.783 34.922V31.9401H137.551L137.551 49.0737H143.856V46.0918H140.972V41.5946H143.734V38.6127H140.972V34.922H143.783Z" fill="white"/>
<circle cx="28.005" cy="28.005" r="28.005" fill="white"/>
<path fill-rule="evenodd" clip-rule="evenodd" d="M16.8651 52.0272C20.2317 53.5759 23.9787 54.4347 27.9228 54.4347C35.4168 54.4347 42.1782 51.3374 46.9957 46.3537C42.7135 46.0158 37.5579 46.4522 32.2896 48.7751C27.4298 50.9291 21.9925 51.8583 16.8651 52.0272Z" fill="#2A985D"/>
<path fill-rule="evenodd" clip-rule="evenodd" d="M8.38513 45.861C10.1318 47.7615 12.1603 49.4087 14.4 50.7461H14.4422C20.0909 50.8024 26.3029 49.9719 31.7544 47.5644C37.6706 44.9459 43.446 44.6362 48.1086 45.1289C49.1792 43.8759 50.137 42.5244 50.9541 41.0743C46.1224 40.1452 39.3187 39.8636 32.2896 42.9749C26.6551 45.4668 20.2458 46.3115 14.4282 46.2552C12.3152 46.227 10.2727 46.0862 8.38513 45.861Z" fill="#2A985D"/>
<path fill-rule="evenodd" clip-rule="evenodd" d="M4.82129 40.9618C5.49741 42.1584 6.27217 43.2987 7.11737 44.3687C9.34298 44.6925 11.8222 44.9037 14.4422 44.9318C18.0625 44.9741 21.9362 44.6503 25.6831 43.7633L25.5986 43.7352C24.838 43.4677 24.1055 43.172 23.4152 42.8623C16.4284 39.7792 9.6529 40.0326 4.82129 40.9618Z" fill="#2A985D"/>
<path fill-rule="evenodd" clip-rule="evenodd" d="M35.7542 3.1624L34.3694 9.23235C34.0643 10.5695 32.733 11.4061 31.3959 11.1011C30.0529 10.7947 29.2125 9.45751 29.5189 8.11448L30.9009 2.05727C31.7204 2.16528 32.5422 2.3124 33.3642 2.49994C34.1787 2.68577 34.9758 2.90726 35.7542 3.1624Z" fill="#DBDBDB"/>
<path fill-rule="evenodd" clip-rule="evenodd" d="M47.0323 31.2769C48.7369 23.7534 45.7817 16.2485 40.0564 11.7191L41.4798 5.43663C45.0466 7.57375 48.0629 10.5247 50.2789 14.0533C52.6587 17.8429 54.0376 22.1746 54.2863 26.6426C54.5291 31.0064 53.6861 35.3607 51.8348 39.3163C49.5823 38.8373 47.2459 38.5853 44.8506 38.5853C44.4453 38.5853 44.0417 38.5925 43.6399 38.6069C45.2321 36.4924 46.411 34.0192 47.0323 31.2769ZM36.537 28.8429V39.6277C33.5745 40.3862 30.7707 41.5407 28.1851 43.0313L27.8935 43.0738L27.6023 43.0315C25.0388 41.5535 22.2607 40.4061 19.3262 39.6473L19.3262 28.8311C19.3262 28.1854 19.6579 27.585 20.2044 27.2412L26.8502 23.0607C27.456 22.6797 28.2257 22.676 28.8352 23.0512L35.6435 27.2435C36.1988 27.5854 36.537 28.1908 36.537 28.8429ZM8.59031 22.5671C7.27359 28.3786 8.73729 34.1791 12.1105 38.6056C11.7208 38.5921 11.3294 38.5853 10.9364 38.5853C8.54117 38.5853 6.20475 38.8374 3.95227 39.3163C2.10318 35.3654 1.25988 31.0166 1.49997 26.6576C1.74608 22.1895 3.12248 17.857 5.50019 14.0661C7.8779 10.2752 11.1791 7.14991 15.0944 4.98318C18.0703 3.33634 21.3269 2.2842 24.6832 1.87354L23.3117 7.92659C16.1946 9.5468 10.2947 15.0446 8.59031 22.5671ZM26.026 31.5954C25.5794 31.5954 25.2173 31.9575 25.2173 32.4041V36.1522C25.2173 36.5988 25.5794 36.9609 26.026 36.9609H29.7741C30.2207 36.9609 30.5828 36.5988 30.5828 36.1522V32.4041C30.5828 31.9575 30.2207 31.5954 29.7741 31.5954H26.026Z" fill="#A63A42"/>
</svg>
