<?xml version="1.0" encoding="utf-8"?><svg xmlns="http://www.w3.org/2000/svg" xmlns:xlink="http://www.w3.org/1999/xlink"><symbol fill="none" viewBox="0 0 19 19" id="Group_581" xmlns="http://www.w3.org/2000/svg"><circle cx="9.5" cy="9.5" r="9.5" fill="#333"/><path d="M14.379 12.461l-2.207-2.006a.544.544 0 00-.755.023l-1.299 1.336c-.313-.06-.941-.256-1.588-.901-.648-.648-.843-1.278-.902-1.588l1.335-1.3a.543.543 0 00.024-.755L6.98 5.064a.543.543 0 00-.755-.048l-1.178 1.01a.543.543 0 00-.158.353c-.008.136-.163 3.35 2.33 5.844 2.174 2.175 4.898 2.334 5.649 2.334.11 0 .177-.004.194-.005a.539.539 0 00.352-.158l1.01-1.178a.541.541 0 00-.046-.755z" fill="#fff"/></symbol><symbol fill="none" viewBox="0 0 10 8" id="Polygon_1" xmlns="http://www.w3.org/2000/svg"><path d="M5 8L.67.5h8.66L5 8z" fill="#333"/></symbol><symbol fill="none" viewBox="0 0 24 30" id="Vector12" xmlns="http://www.w3.org/2000/svg"><path d="M21.419 3.903l-2.07-2.073A6.21 6.21 0 0014.929 0H7A6.258 6.258 0 00.75 6.25v17.5A6.258 6.258 0 007 30h10a6.258 6.258 0 006.25-6.25V8.321a6.21 6.21 0 00-1.831-4.418zM19.65 5.67c.178.177.336.371.474.58H17V3.125c.209.14.403.298.581.475l2.07 2.07zm1.099 18.08A3.75 3.75 0 0117 27.5H7a3.75 3.75 0 01-3.75-3.75V6.25A3.75 3.75 0 017 2.5h7.5v3.75a2.5 2.5 0 002.5 2.5h3.75v15zM17 11.25a1.25 1.25 0 010 2.5H7a1.25 1.25 0 010-2.5h10zm1.25 6.25A1.25 1.25 0 0117 18.75H7a1.25 1.25 0 010-2.5h10a1.25 1.25 0 011.25 1.25zm-.24 4.266a1.25 1.25 0 01-.271 1.743A8.08 8.08 0 0113.419 25a4.064 4.064 0 01-2.5-.875c-.41-.281-.567-.375-.875-.375a4.939 4.939 0 00-2.29.992 1.25 1.25 0 01-1.518-1.985 7.327 7.327 0 013.813-1.507 3.78 3.78 0 012.29.819c.297.267.68.42 1.08.431a5.732 5.732 0 002.846-1.011 1.25 1.25 0 011.745.277z" fill="#A63A42"/></symbol><symbol fill="none" viewBox="0 0 30 30" id="Vector13" xmlns="http://www.w3.org/2000/svg"><path d="M29.634 27.866l-7.462-7.461a12.52 12.52 0 10-1.767 1.767l7.461 7.462a1.25 1.25 0 001.768-1.768zM12.5 22.5a10 10 0 1110-10 10.012 10.012 0 01-10 10z" fill="#A63A42"/></symbol><symbol fill="none" viewBox="0 0 30 21" id="Vector14" xmlns="http://www.w3.org/2000/svg"><path d="M27.899.539L10.625 17.81a1.249 1.249 0 01-1.771 0l-6.68-6.686a1.25 1.25 0 00-1.771 0 1.25 1.25 0 000 1.771l6.682 6.681a3.76 3.76 0 005.313 0L29.67 2.31a1.25 1.25 0 00-.406-2.042 1.25 1.25 0 00-1.365.272z" fill="#A63A42"/></symbol><symbol fill="none" viewBox="0 0 30 30" id="Vector_(1)" xmlns="http://www.w3.org/2000/svg"><path d="M18.722 8.775V3.77a1.251 1.251 0 012.503 0v3.267c.788-.793 5.883-5.914 6.623-6.655a1.25 1.25 0 111.77 1.77c-.74.74-5.81 5.837-6.592 6.623h3.204a1.251 1.251 0 010 2.503h-5.005a2.503 2.503 0 01-2.503-2.503zm10.13 12.188a3.88 3.88 0 010 5.478l-1.141 1.314C17.46 37.564-7.478 12.633 2.182 2.352L3.622 1.1a3.856 3.856 0 015.414.05c.039.037 2.356 3.05 2.356 3.05a3.89 3.89 0 01-.007 5.359l-1.45 1.822a15.999 15.999 0 008.674 8.69l1.834-1.457a3.88 3.88 0 015.356-.008s3.014 2.32 3.053 2.357zm-1.72 1.82s-2.995-2.306-3.034-2.343a1.376 1.376 0 00-1.938 0c-.034.032-2.558 2.044-2.558 2.044a1.252 1.252 0 01-1.226.19A18.784 18.784 0 017.334 11.65a1.251 1.251 0 01.181-1.252s2.013-2.52 2.046-2.553a1.377 1.377 0 000-1.938A722.879 722.879 0 017.218 2.87a1.377 1.377 0 00-1.89.049L3.888 4.17c-7.06 8.489 14.555 28.904 21.992 21.879l1.141-1.316a1.402 1.402 0 00.11-1.952z" fill="#A63A42"/></symbol></svg>