<?xml version="1.0" encoding="utf-8"?><svg xmlns="http://www.w3.org/2000/svg" xmlns:xlink="http://www.w3.org/1999/xlink"><symbol fill="none" viewBox="0 0 19 19" id="Group_581" xmlns="http://www.w3.org/2000/svg"><circle cx="9.5" cy="9.5" r="9.5" fill="#333"/><path d="M14.379 12.461l-2.207-2.006a.544.544 0 00-.755.023l-1.299 1.336c-.313-.06-.941-.256-1.588-.901-.648-.648-.843-1.278-.902-1.588l1.335-1.3a.543.543 0 00.024-.755L6.98 5.064a.543.543 0 00-.755-.048l-1.178 1.01a.543.543 0 00-.158.353c-.008.136-.163 3.35 2.33 5.844 2.174 2.175 4.898 2.334 5.649 2.334.11 0 .177-.004.194-.005a.539.539 0 00.352-.158l1.01-1.178a.541.541 0 00-.046-.755z" fill="#fff"/></symbol><symbol fill="none" viewBox="0 0 10 8" id="Polygon_1" xmlns="http://www.w3.org/2000/svg"><path d="M5 8L.67.5h8.66L5 8z" fill="#333"/></symbol><symbol fill="none" viewBox="0 0 26 24" id="Star_76" xmlns="http://www.w3.org/2000/svg"><path d="M12.049.927c.3-.921 1.603-.921 1.902 0l2.192 6.747a1 1 0 00.951.69h7.094c.969 0 1.372 1.24.588 1.81l-5.74 4.17a1 1 0 00-.362 1.117l2.192 6.747c.3.922-.755 1.688-1.54 1.118l-5.738-4.17a1 1 0 00-1.176 0l-5.739 4.17c-.784.57-1.838-.197-1.539-1.118l2.192-6.746a1 1 0 00-.363-1.118l-5.739-4.17c-.784-.57-.38-1.81.588-1.81h7.094a1 1 0 00.95-.69L12.05.927z" fill="#A63A42"/></symbol><symbol fill="none" viewBox="0 0 24 30" id="Vector12" xmlns="http://www.w3.org/2000/svg"><path d="M21.419 3.903l-2.07-2.073A6.21 6.21 0 0014.929 0H7A6.258 6.258 0 00.75 6.25v17.5A6.258 6.258 0 007 30h10a6.258 6.258 0 006.25-6.25V8.321a6.21 6.21 0 00-1.831-4.418zM19.65 5.67c.178.177.336.371.474.58H17V3.125c.209.14.403.298.581.475l2.07 2.07zm1.099 18.08A3.75 3.75 0 0117 27.5H7a3.75 3.75 0 01-3.75-3.75V6.25A3.75 3.75 0 017 2.5h7.5v3.75a2.5 2.5 0 002.5 2.5h3.75v15zM17 11.25a1.25 1.25 0 010 2.5H7a1.25 1.25 0 010-2.5h10zm1.25 6.25A1.25 1.25 0 0117 18.75H7a1.25 1.25 0 010-2.5h10a1.25 1.25 0 011.25 1.25zm-.24 4.266a1.25 1.25 0 01-.271 1.743A8.08 8.08 0 0113.419 25a4.064 4.064 0 01-2.5-.875c-.41-.281-.567-.375-.875-.375a4.939 4.939 0 00-2.29.992 1.25 1.25 0 01-1.518-1.985 7.327 7.327 0 013.813-1.507 3.78 3.78 0 012.29.819c.297.267.68.42 1.08.431a5.732 5.732 0 002.846-1.011 1.25 1.25 0 011.745.277z" fill="#A63A42"/></symbol><symbol fill="none" viewBox="0 0 30 30" id="Vector13" xmlns="http://www.w3.org/2000/svg"><path d="M29.634 27.866l-7.462-7.461a12.52 12.52 0 10-1.767 1.767l7.461 7.462a1.25 1.25 0 001.768-1.768zM12.5 22.5a10 10 0 1110-10 10.012 10.012 0 01-10 10z" fill="#A63A42"/></symbol><symbol fill="none" viewBox="0 0 30 21" id="Vector14" xmlns="http://www.w3.org/2000/svg"><path d="M27.899.539L10.625 17.81a1.249 1.249 0 01-1.771 0l-6.68-6.686a1.25 1.25 0 00-1.771 0 1.25 1.25 0 000 1.771l6.682 6.681a3.76 3.76 0 005.313 0L29.67 2.31a1.25 1.25 0 00-.406-2.042 1.25 1.25 0 00-1.365.272z" fill="#A63A42"/></symbol></svg>