<?xml version="1.0" encoding="utf-8"?><svg xmlns="http://www.w3.org/2000/svg" xmlns:xlink="http://www.w3.org/1999/xlink"><symbol fill="none" viewBox="0 0 19 19" id="Group_581" xmlns="http://www.w3.org/2000/svg"><circle cx="9.5" cy="9.5" r="9.5" fill="#333"/><path d="M14.379 12.461l-2.207-2.006a.544.544 0 00-.755.023l-1.299 1.336c-.313-.06-.941-.256-1.588-.901-.648-.648-.843-1.278-.902-1.588l1.335-1.3a.543.543 0 00.024-.755L6.98 5.064a.543.543 0 00-.755-.048l-1.178 1.01a.543.543 0 00-.158.353c-.008.136-.163 3.35 2.33 5.844 2.174 2.175 4.898 2.334 5.649 2.334.11 0 .177-.004.194-.005a.539.539 0 00.352-.158l1.01-1.178a.541.541 0 00-.046-.755z" fill="#fff"/></symbol><symbol fill="none" viewBox="0 0 10 8" id="Polygon_1" xmlns="http://www.w3.org/2000/svg"><path d="M5 8L.67.5h8.66L5 8z" fill="#333"/></symbol></svg>