<?xml version="1.0" encoding="utf-8"?><svg xmlns="http://www.w3.org/2000/svg" xmlns:xlink="http://www.w3.org/1999/xlink"><symbol fill="none" viewBox="0 0 19 19" id="Group_581" xmlns="http://www.w3.org/2000/svg"><circle cx="9.5" cy="9.5" r="9.5" fill="#333"/><path d="M14.379 12.461l-2.207-2.006a.544.544 0 00-.755.023l-1.299 1.336c-.313-.06-.941-.256-1.588-.901-.648-.648-.843-1.278-.902-1.588l1.335-1.3a.543.543 0 00.024-.755L6.98 5.064a.543.543 0 00-.755-.048l-1.178 1.01a.543.543 0 00-.158.353c-.008.136-.163 3.35 2.33 5.844 2.174 2.175 4.898 2.334 5.649 2.334.11 0 .177-.004.194-.005a.539.539 0 00.352-.158l1.01-1.178a.541.541 0 00-.046-.755z" fill="#fff"/></symbol><symbol fill="none" viewBox="0 0 10 8" id="Polygon_1" xmlns="http://www.w3.org/2000/svg"><path d="M5 8L.67.5h8.66L5 8z" fill="#333"/></symbol><symbol fill="none" viewBox="0 0 10 8" id="Polygon_3" xmlns="http://www.w3.org/2000/svg"><path d="M5 8L.67.5h8.66L5 8z" fill="#fff"/></symbol><symbol fill="none" viewBox="0 0 26 24" id="Star_76" xmlns="http://www.w3.org/2000/svg"><path d="M12.049.927c.3-.921 1.603-.921 1.902 0l2.192 6.747a1 1 0 00.951.69h7.094c.969 0 1.372 1.24.588 1.81l-5.74 4.17a1 1 0 00-.362 1.117l2.192 6.747c.3.922-.755 1.688-1.54 1.118l-5.738-4.17a1 1 0 00-1.176 0l-5.739 4.17c-.784.57-1.838-.197-1.539-1.118l2.192-6.746a1 1 0 00-.363-1.118l-5.739-4.17c-.784-.57-.38-1.81.588-1.81h7.094a1 1 0 00.95-.69L12.05.927z" fill="#A63A42"/></symbol><symbol fill="none" viewBox="0 0 30 30" id="Union" xmlns="http://www.w3.org/2000/svg"><path fill-rule="evenodd" clip-rule="evenodd" d="M8.711 10.47c.145-.274.3-.557.462-.85.867-1.58 1.905-3.47 2.504-5.845C12.258 1.47 14.102.028 16.067 0c.982-.014 1.985.339 2.738 1.12.757.787 1.127 1.863 1.127 3.06v5.818l5.096.013c3.14.008 5.49 2.883 4.873 5.962l-1.993 9.948a4.983 4.983 0 01-4.886 4.005H9.966v.027H4.983A4.983 4.983 0 010 24.97v-9.966a4.983 4.983 0 014.983-4.982h1.66c.738 0 1.438.16 2.068.447zm6.187-5.883c.25-.99.898-1.26 1.216-1.265.16-.002.247.05.298.103.048.05.198.24.198.756v7.474a1.66 1.66 0 001.656 1.66l6.754.018a1.66 1.66 0 011.624 1.987l-1.993 9.949a1.661 1.661 0 01-1.629 1.335H11.627V24.97a1.66 1.66 0 10-3.322 0v1.661H4.983a1.66 1.66 0 01-1.661-1.66v-9.967c0-.917.744-1.66 1.66-1.66h1.662c.917 0 1.66.743 1.66 1.66v4.153a1.66 1.66 0 003.323 0v-7.093c.108-.201.23-.422.362-.661.872-1.58 2.193-3.974 2.91-6.816z" fill="#A63A42"/></symbol><symbol fill="none" viewBox="0 0 30 30" id="Union_1" xmlns="http://www.w3.org/2000/svg"><path d="M21 16.5a1.5 1.5 0 000-3h-4.5v-6a1.5 1.5 0 00-3 0V15a1.5 1.5 0 001.5 1.5h6z" fill="#A63A42"/><path fill-rule="evenodd" clip-rule="evenodd" d="M15 0C6.716 0 0 6.716 0 15c0 8.284 6.716 15 15 15 8.284 0 15-6.716 15-15 0-8.284-6.716-15-15-15zM3 15C3 8.373 8.373 3 15 3s12 5.373 12 12-5.373 12-12 12S3 21.627 3 15z" fill="#A63A42"/></symbol><symbol fill="none" viewBox="0 0 30 27" id="Union_2" xmlns="http://www.w3.org/2000/svg"><path d="M22.845 9.512a1.667 1.667 0 10-2.357-2.357l-8.821 8.821-2.155-2.155a1.667 1.667 0 10-2.357 2.357l3.333 3.334c.651.65 1.706.65 2.357 0l10-10z" fill="#A63A42"/><path fill-rule="evenodd" clip-rule="evenodd" d="M5 0a5 5 0 00-5 5v16.667a5 5 0 005 5h20a5 5 0 005-5V5a5 5 0 00-5-5H5zM3.333 5c0-.92.747-1.667 1.667-1.667h20c.92 0 1.667.747 1.667 1.667v16.667c0 .92-.747 1.666-1.667 1.666H5c-.92 0-1.667-.746-1.667-1.666V5z" fill="#A63A42"/></symbol><symbol fill="none" viewBox="0 0 24 30" id="Vector12" xmlns="http://www.w3.org/2000/svg"><path d="M21.419 3.903l-2.07-2.073A6.21 6.21 0 0014.929 0H7A6.258 6.258 0 00.75 6.25v17.5A6.258 6.258 0 007 30h10a6.258 6.258 0 006.25-6.25V8.321a6.21 6.21 0 00-1.831-4.418zM19.65 5.67c.178.177.336.371.474.58H17V3.125c.209.14.403.298.581.475l2.07 2.07zm1.099 18.08A3.75 3.75 0 0117 27.5H7a3.75 3.75 0 01-3.75-3.75V6.25A3.75 3.75 0 017 2.5h7.5v3.75a2.5 2.5 0 002.5 2.5h3.75v15zM17 11.25a1.25 1.25 0 010 2.5H7a1.25 1.25 0 010-2.5h10zm1.25 6.25A1.25 1.25 0 0117 18.75H7a1.25 1.25 0 010-2.5h10a1.25 1.25 0 011.25 1.25zm-.24 4.266a1.25 1.25 0 01-.271 1.743A8.08 8.08 0 0113.419 25a4.064 4.064 0 01-2.5-.875c-.41-.281-.567-.375-.875-.375a4.939 4.939 0 00-2.29.992 1.25 1.25 0 01-1.518-1.985 7.327 7.327 0 013.813-1.507 3.78 3.78 0 012.29.819c.297.267.68.42 1.08.431a5.732 5.732 0 002.846-1.011 1.25 1.25 0 011.745.277z" fill="#A63A42"/></symbol><symbol fill="none" viewBox="0 0 30 30" id="Vector13" xmlns="http://www.w3.org/2000/svg"><path d="M29.634 27.866l-7.462-7.461a12.52 12.52 0 10-1.767 1.767l7.461 7.462a1.25 1.25 0 001.768-1.768zM12.5 22.5a10 10 0 1110-10 10.012 10.012 0 01-10 10z" fill="#A63A42"/></symbol><symbol fill="none" viewBox="0 0 30 21" id="Vector14" xmlns="http://www.w3.org/2000/svg"><path d="M27.899.539L10.625 17.81a1.249 1.249 0 01-1.771 0l-6.68-6.686a1.25 1.25 0 00-1.771 0 1.25 1.25 0 000 1.771l6.682 6.681a3.76 3.76 0 005.313 0L29.67 2.31a1.25 1.25 0 00-.406-2.042 1.25 1.25 0 00-1.365.272z" fill="#A63A42"/></symbol><symbol fill="none" viewBox="0 0 25 25" id="Vector_5" xmlns="http://www.w3.org/2000/svg"><path d="M12.5 25a12.5 12.5 0 100-25 12.5 12.5 0 000 25zm1.453-14.706l-1.562 7.351c-.11.532.045.833.475.833.303 0 .76-.11 1.072-.384l-.138.65c-.448.54-1.438.934-2.29.934-1.098 0-1.565-.66-1.262-2.06l1.154-5.42c.1-.457.009-.623-.449-.734l-.705-.127.129-.595 3.578-.448h-.002zm-1.453-1.7a1.563 1.563 0 110-3.126 1.563 1.563 0 010 3.126z" fill="#A63A42"/></symbol></svg>